<svg width="154" height="176" viewBox="0 0 154 176" fill="none" xmlns="http://www.w3.org/2000/svg">
<path d="M72.9524 61.3785C72.4384 61.3619 71.9259 61.3438 71.4134 61.3272C70.9371 61.3106 70.4563 61.2277 69.983 61.1765C69.4796 61.1222 68.9746 61.068 68.4682 61.0122C68.0039 60.9625 67.5367 60.8494 67.0769 60.768C66.6157 60.6866 66.1575 60.6067 65.6977 60.5253C64.3487 60.2872 63.0117 59.8998 61.7094 59.4793C59.2585 58.6864 56.8906 57.6072 54.6793 56.2853C53.573 55.6236 52.5224 54.8609 51.4959 54.0786C50.4061 53.2511 49.3827 52.3422 48.3984 51.3926C46.454 49.5175 44.808 47.3485 43.3956 45.0513C41.9953 42.7723 40.9809 40.2762 40.378 37.67C39.7871 35.1182 39.7706 32.4864 40.1142 29.9014C40.4594 27.2862 41.3261 24.769 42.4566 22.395C44.7251 17.6289 48.1045 13.3617 52.1199 9.95068C53.775 8.54285 55.5717 7.24657 57.4829 6.20502C58.3753 5.71967 59.254 5.19965 60.181 4.78212C61.0884 4.37364 61.9853 3.93803 62.9198 3.59738C63.5076 3.38184 64.094 3.1678 64.6818 2.95376C65.0526 2.81811 65.437 2.71561 65.8153 2.60406C66.3896 2.43675 66.9624 2.26944 67.5367 2.10364C67.9331 1.98757 68.3431 1.9107 68.744 1.81876C69.2233 1.70872 69.6996 1.59718 70.1775 1.48715C70.7065 1.36656 71.2507 1.28969 71.7858 1.19021C72.8183 1.00029 73.8523 0.854081 74.8923 0.70938C75.236 0.661146 75.5721 0.626476 75.9173 0.597837C76.5066 0.551111 77.099 0.474243 77.6899 0.463692C78.1903 0.456155 78.6937 0.448615 79.1942 0.439571C79.675 0.432034 80.1528 0.465199 80.6321 0.484794C81.4566 0.520969 82.2751 0.600853 83.089 0.74254C83.6076 0.832978 84.117 0.970147 84.622 1.12239C84.824 1.08018 85.0335 1.07717 85.2445 1.12239C88.8937 1.90769 92.5519 2.7774 96.0579 4.06917C97.7928 4.70977 99.4689 5.51015 101.091 6.39796C101.915 6.84864 102.722 7.33399 103.493 7.8721C104.318 8.44638 105.102 9.05383 105.877 9.69594C107.417 10.9741 108.751 12.486 110.004 14.04C111.14 15.4493 112.142 17.0094 112.977 18.6147C113.446 19.5176 113.894 20.428 114.274 21.373C114.657 22.3272 114.964 23.2949 115.228 24.2882C115.469 25.1971 115.623 26.1256 115.713 27.0616C115.77 27.657 115.769 28.2599 115.79 28.8568C115.807 29.3603 115.781 29.8848 115.737 30.3882C115.697 30.8359 115.683 31.2911 115.617 31.7358C115.538 32.2452 115.481 32.7623 115.368 33.2642C115.269 33.7073 115.196 34.1701 115.064 34.6042C114.913 35.0956 114.785 35.6005 114.601 36.0798C114.435 36.5094 114.29 36.9556 114.1 37.3731C113.874 37.863 113.665 38.3634 113.416 38.8397C113.185 39.2844 112.955 39.7275 112.723 40.1707C112.26 41.0585 111.699 41.895 111.155 42.7331C110.665 43.4867 110.121 44.2223 109.535 44.9051C109.2 45.2955 108.879 45.704 108.523 46.0763C108.122 46.4923 107.723 46.9083 107.322 47.3243C106.721 47.9499 106.065 48.5347 105.414 49.109C104.589 49.8325 103.754 50.5304 102.904 51.2207C102.188 51.8025 101.433 52.3331 100.69 52.8803C100.339 53.138 99.9528 53.3611 99.5865 53.5978C99.2127 53.8419 98.8419 54.0952 98.4545 54.3197C97.5818 54.8262 96.7181 55.3402 95.8167 55.7984C95.3254 56.0486 94.8325 56.2988 94.3396 56.5506C93.8949 56.7782 93.4246 56.9605 92.9709 57.164C92.5368 57.357 92.1027 57.5514 91.6686 57.7444C91.2104 57.9493 90.7235 58.1046 90.2548 58.2825C89.8373 58.4407 89.4197 58.6005 89.0007 58.7603C88.5154 58.9457 87.9999 59.0753 87.5024 59.2321C87.0593 59.3707 86.6176 59.5109 86.173 59.6496C85.6786 59.8048 85.1691 59.9119 84.6672 60.0385C84.1427 60.1696 83.6181 60.3007 83.0951 60.4319C82.6866 60.5329 82.263 60.5886 81.85 60.6655C81.2954 60.7665 80.7392 60.8705 80.186 60.973C79.7473 61.0544 79.3012 61.0861 78.858 61.1328C78.2973 61.1946 77.7366 61.2534 77.1744 61.3152C76.7433 61.3604 76.2971 61.3498 75.8645 61.3634C75.3144 61.3815 74.7657 61.3996 74.214 61.4192C74.1552 61.4207 74.098 61.4222 74.0392 61.4222C73.6774 61.4207 73.3127 61.392 72.9524 61.3785ZM74.2427 57.8574C74.6934 57.8725 75.1576 57.8288 75.6083 57.8122C75.9972 57.7986 76.3861 57.7866 76.7749 57.773C77.6823 57.675 78.5913 57.577 79.4986 57.4791C80.406 57.3118 81.3134 57.1429 82.2224 56.9756C82.7092 56.8852 83.1961 56.7314 83.6754 56.6109C84.1547 56.4918 84.634 56.3697 85.1119 56.2506C85.8067 56.0305 86.5016 55.8135 87.1965 55.5949C87.7511 55.4216 88.2877 55.2151 88.8319 55.0071C89.4227 54.7825 90.0242 54.579 90.6015 54.3213C91.2888 54.0153 91.9776 53.7078 92.665 53.4018C93.3885 53.034 94.1105 52.6662 94.8325 52.2985C95.1339 52.1447 95.4218 51.9578 95.7158 51.7875C96.085 51.5734 96.4528 51.3594 96.8236 51.1454C97.6828 50.5892 98.5374 50.0375 99.3634 49.43C99.781 49.1241 100.206 48.8271 100.607 48.5C101.07 48.1232 101.534 47.7479 101.997 47.3711C102.664 46.7847 103.335 46.2044 103.977 45.5909C104.669 44.9307 105.332 44.2555 105.994 43.5666C106.342 43.1582 106.69 42.7512 107.04 42.3427C107.207 42.1467 107.351 41.9237 107.503 41.7172C107.67 41.4926 107.838 41.268 108.005 41.0419C108.406 40.4269 108.808 39.8134 109.176 39.1774C109.559 38.5172 109.916 37.8509 110.269 37.1757C110.459 36.7596 110.65 36.3421 110.842 35.9261C111.007 35.5643 111.137 35.18 111.276 34.8047C111.399 34.4007 111.523 33.9952 111.646 33.5913C111.773 33.1798 111.841 32.7396 111.934 32.3176C111.921 32.3779 111.907 32.4382 111.895 32.4985C111.963 32.0538 112.032 31.6122 112.1 31.1675C112.165 30.7334 112.179 30.2842 112.218 29.8456C112.21 29.9225 112.206 29.9979 112.198 30.0732C112.209 29.6391 112.219 29.205 112.23 28.7709C112.239 28.4287 112.215 28.0821 112.198 27.7384C112.16 27.2681 112.108 26.8024 112.037 26.3381C111.91 25.6659 111.737 25.0132 111.562 24.353C111.443 23.9988 111.325 23.6446 111.206 23.2919C111.08 22.9135 110.908 22.5427 110.759 22.1719C110.432 21.471 110.091 20.7837 109.735 20.0964C109.39 19.4362 108.992 18.8046 108.597 18.1715C107.946 17.2264 107.268 16.3145 106.55 15.4207C105.84 14.6143 105.108 13.844 104.339 13.0934C103.857 12.6623 103.37 12.2418 102.872 11.8273C102.39 11.4278 101.875 11.0721 101.359 10.7149C100.523 10.1783 99.6739 9.67936 98.8042 9.20004C97.3105 8.44035 95.7926 7.76508 94.222 7.18175C91.6159 6.30601 88.9585 5.60662 86.2815 4.99164C85.76 5.21623 85.145 5.18608 84.6386 4.88613C84.5436 4.84543 84.4486 4.80624 84.3537 4.77006C83.8231 4.59974 83.294 4.43394 82.7529 4.30431C82.2314 4.20031 81.7099 4.12946 81.1808 4.07821C80.0337 3.99079 78.8912 4.00134 77.7426 4.01942C77.4276 4.04505 77.1111 4.07068 76.7945 4.09479C76.4418 4.12193 76.0831 4.13248 75.7349 4.18071C74.9466 4.29074 74.1583 4.40077 73.3699 4.51081C72.7354 4.62838 72.0993 4.74595 71.4647 4.86352C70.8859 4.97054 70.3146 5.1077 69.7419 5.23884C69.1736 5.36997 68.6069 5.49207 68.0491 5.65486C67.4055 5.84176 66.7619 6.03017 66.1183 6.21708C65.2862 6.52005 64.4572 6.82452 63.6252 7.129C63.2318 7.27219 62.8489 7.47869 62.4661 7.65053C62.0893 7.81934 61.7124 7.98967 61.3341 8.16C60.2684 8.74031 59.1922 9.30254 58.1567 9.93711C56.8906 10.739 55.6817 11.6178 54.5241 12.5719C53.3846 13.5441 52.3098 14.5796 51.2909 15.6754C50.2072 16.8768 49.2048 18.1384 48.2748 19.4603C47.4789 20.6269 46.7494 21.8298 46.0907 23.0793C45.5496 24.148 45.0657 25.2393 44.6467 26.3607C44.3513 27.2063 44.0995 28.058 43.9006 28.9307C43.7242 29.8049 43.5946 30.6852 43.5087 31.5745C43.4514 32.3417 43.4333 33.1059 43.4589 33.8762C43.5011 34.5906 43.5735 35.2991 43.6835 36.006C43.8313 36.8109 44.0242 37.6022 44.2563 38.3875C44.5382 39.2648 44.8683 40.1194 45.2436 40.9605C45.7033 41.9297 46.2264 42.8567 46.7916 43.7671C47.4789 44.8328 48.2281 45.8517 49.033 46.8315C49.8288 47.7675 50.6744 48.6508 51.5713 49.4903C52.7168 50.5259 53.9272 51.4755 55.1903 52.3648C56.1836 53.0401 57.2086 53.649 58.2728 54.2022C59.5223 54.8277 60.8035 55.3764 62.1164 55.8527C63.3991 56.2943 64.7014 56.6561 66.0248 56.953C67.0031 57.1595 67.9949 57.3102 68.9792 57.4821C69.3741 57.5514 69.7856 57.571 70.1835 57.6147C70.6402 57.6645 71.0954 57.7142 71.5521 57.7624C72.4475 57.7971 73.3458 57.8273 74.2427 57.8574Z" fill="#242424"/>
<path d="M72.2078 27.2545C71.2567 27.2319 70.4201 26.4013 70.4684 25.4321C70.5799 23.2089 70.8 20.9946 71.0336 18.7834C71.1512 17.6816 71.2914 16.5843 71.4466 15.4869C71.528 14.9232 71.623 14.364 71.7224 13.8048C71.7661 13.5576 71.8219 13.3119 71.8747 13.0677C71.9772 12.5899 72.1324 12.0473 72.5243 11.7187C73.0835 11.2499 73.7709 11.0901 74.4627 11.372C74.6798 11.4609 74.8833 11.6071 75.0445 11.779C75.557 12.3186 75.6625 13.1159 75.3671 13.7611C75.3626 13.7761 75.3581 13.7927 75.3535 13.8078C75.0491 15.2759 74.8486 16.7666 74.6737 18.2544C74.5004 19.7511 74.3527 21.2509 74.22 22.7522C74.1432 23.6716 74.0768 24.5926 74.0301 25.5151C73.9819 26.4707 73.2192 27.2545 72.247 27.2545C72.2349 27.256 72.2214 27.256 72.2078 27.2545Z" fill="#242424"/>
<path d="M83.3935 24.2293C82.9232 24.2187 82.471 24.0183 82.147 23.6776C81.8093 23.3249 81.6676 22.8863 81.6541 22.4069C81.5953 20.3887 81.6058 18.3704 81.6284 16.3521C81.639 15.3377 81.6526 14.3218 81.6857 13.3073C81.7053 12.7662 81.7249 12.2251 81.7475 11.6825C81.7656 11.2197 81.7641 10.7494 81.8138 10.2882C81.9163 9.32201 82.9142 8.65579 83.8427 8.79597C84.3115 8.86681 84.7395 9.12908 85.0169 9.51344C85.2761 9.87067 85.3696 10.2822 85.3455 10.7118C85.3485 10.6756 85.353 10.6379 85.356 10.6017C85.2867 11.5604 85.2776 12.5296 85.2445 13.4912C85.2098 14.5177 85.2008 15.5472 85.1887 16.5752C85.1646 18.5452 85.1601 20.5183 85.2143 22.4898C85.2415 23.447 84.3491 24.2293 83.4282 24.2293C83.4176 24.2293 83.4056 24.2293 83.3935 24.2293Z" fill="#242424"/>
<path d="M74.5486 42.873C73.4649 42.7766 72.3947 42.4796 71.3923 42.0651C70.6101 41.744 69.9001 41.2376 69.2279 40.7296C68.2165 39.9639 67.2804 39.1409 66.4092 38.2185C65.5621 37.3201 64.8913 36.2439 64.2809 35.1752C63.6855 34.1337 63.2017 33.0137 62.855 31.8667C62.5279 30.7874 62.2189 29.3871 63.1202 28.4918C63.8091 27.8075 64.9788 27.8587 65.639 28.5506C66.0459 28.9772 66.1921 29.5514 66.0957 30.0896C66.0957 30.1061 66.0942 30.1242 66.0942 30.1408C66.0957 30.1634 66.0987 30.186 66.1017 30.2086C66.156 30.4558 66.2208 30.6985 66.2916 30.9412C66.4424 31.3949 66.6142 31.8365 66.8041 32.2751C67.1086 32.9203 67.4447 33.5443 67.8125 34.1578C68.1064 34.61 68.4154 35.0471 68.744 35.4752C69.0771 35.855 69.4238 36.2183 69.781 36.577C70.491 37.2116 71.2326 37.7964 72.0103 38.3451C72.2063 38.4732 72.4037 38.5908 72.6072 38.7023C72.8017 38.7897 72.9961 38.8726 73.1951 38.948C73.4739 39.0369 73.7513 39.1168 74.0362 39.1861C74.4281 39.263 74.8185 39.3188 75.2149 39.3595C75.5977 39.3806 75.9791 39.3896 76.3634 39.3836C76.888 39.3535 77.4065 39.2992 77.925 39.2163C78.3651 39.1289 78.7993 39.0249 79.2303 38.9013C79.672 38.7566 80.1031 38.5923 80.5296 38.4084C81.0135 38.1778 81.4807 37.9275 81.942 37.6517C82.569 37.2432 83.1493 36.791 83.7282 36.3208C84.209 35.8701 84.6732 35.4134 85.1284 34.9386C85.7012 34.2693 86.2469 33.588 86.7699 32.8796C87.1241 32.3565 87.4648 31.8275 87.7828 31.2803C88.1008 30.7302 88.3948 30.1664 88.6857 29.6012C89.2268 28.5219 89.7348 27.4292 90.1598 26.2972C90.2111 26.151 90.2608 26.0032 90.3106 25.857C90.6196 24.9376 91.5526 24.3603 92.5157 24.6361C93.4171 24.8939 94.0457 25.9203 93.7367 26.8413C93.1413 28.6199 92.3454 30.3126 91.4667 31.9677C90.5804 33.6393 89.5675 35.2415 88.3315 36.678C87.9833 37.0819 87.6321 37.4723 87.2643 37.8582C86.9176 38.223 86.5498 38.5606 86.1836 38.9028C85.8414 39.2223 85.4555 39.5042 85.0923 39.8011C84.6536 40.1599 84.1607 40.4719 83.6769 40.7643C83.089 41.1185 82.4876 41.4426 81.8561 41.7154C80.7648 42.1902 79.6298 42.5384 78.4571 42.7359C77.6341 42.8745 76.8156 42.9393 75.9942 42.9393C75.5133 42.9363 75.0325 42.9152 74.5486 42.873Z" fill="#242424"/>
<path d="M75.0882 130.454C71.2145 130.293 67.3316 130.073 63.4744 129.675C61.5014 129.47 59.5404 129.219 57.5899 128.849C56.7308 128.686 55.858 128.503 55.0441 128.182C54.607 128.009 54.1201 127.816 53.7599 127.503C53.3484 127.145 53.0092 126.764 52.7861 126.261C52.5374 125.703 52.4771 125.094 52.45 124.491C52.4259 123.98 52.4229 123.477 52.444 122.967C52.5239 121.172 52.6821 119.377 52.7997 117.584C52.9203 115.699 53.0439 113.813 53.169 111.925C53.4147 108.197 53.7086 104.471 53.9965 100.745C54.2904 96.9284 54.5663 93.1104 54.8346 89.2923C55.1074 85.3914 55.3893 81.4905 55.7194 77.5941C56.0675 73.5093 56.4368 69.426 56.8137 65.3428C56.9584 63.7706 57.1046 62.1985 57.2508 60.6264C57.3216 59.8742 57.391 59.1191 57.4603 58.3654C57.4965 57.9766 57.5326 57.5907 57.5658 57.2018C57.5944 56.8747 57.6125 56.5356 57.7376 56.2311C58.0677 55.4156 59.0279 54.968 59.875 55.2106C60.7598 55.4624 61.2663 56.3396 61.1366 57.2154C61.1381 57.2108 61.1396 57.2048 61.1411 57.2003C61.0432 57.7866 61.0296 58.3986 60.9738 58.9895C60.9015 59.7717 60.8291 60.5525 60.7568 61.3333C60.6196 62.7999 60.4824 64.268 60.3483 65.7362C60.0604 68.8744 59.777 72.0111 59.4967 75.1493C59.1801 78.8723 58.8696 82.5969 58.6089 86.3245C58.327 90.3505 58.0466 94.378 57.7452 98.401C57.4648 102.132 57.1573 105.858 56.8981 109.59C56.6358 113.323 56.4067 117.06 56.158 120.795C56.0886 121.852 55.9877 122.908 55.9892 123.966C56.0012 124.224 56.0163 124.482 56.0419 124.738C56.1354 124.782 56.2318 124.823 56.3283 124.86C56.8393 125.025 57.3533 125.16 57.8763 125.278C58.9103 125.474 59.9428 125.67 60.9889 125.799C62.2324 125.955 63.4729 126.095 64.7195 126.221C67.8396 126.482 70.9612 126.68 74.0874 126.844C77.1864 127.007 80.2824 126.99 83.3814 126.882C85.9574 126.759 88.5349 126.619 91.0989 126.346C93.6537 126.077 96.1966 125.728 98.7304 125.302C98.6942 125.308 98.6565 125.314 98.6203 125.321C99.796 125.118 100.997 124.951 102.149 124.63C102.193 124.613 102.236 124.596 102.28 124.58C102.313 124.563 102.346 124.545 102.38 124.529C102.401 124.509 102.42 124.489 102.441 124.47C102.453 124.456 102.465 124.441 102.479 124.428C102.473 124.435 102.468 124.443 102.464 124.45L102.47 124.444C102.505 124.391 102.538 124.337 102.569 124.281C102.64 124.128 102.705 123.972 102.765 123.814C102.845 123.552 102.918 123.291 102.982 123.024C103.126 122.31 103.206 121.594 103.285 120.87C103.386 119.129 103.441 117.387 103.418 115.642C103.394 113.721 103.337 111.804 103.263 109.885C103.266 109.962 103.269 110.037 103.272 110.113C102.937 102.468 102.464 94.8196 101.522 87.2228C101.034 83.2691 100.48 79.323 99.9302 75.3769C99.4056 71.6101 98.9369 67.8389 98.5148 64.0585C98.0807 60.1576 97.6798 56.2522 97.1838 52.3573C97.0618 51.3941 97.8199 50.4973 98.7695 50.3993C99.7508 50.2968 100.605 51.0218 100.728 51.985C101.178 55.5257 101.551 59.0769 101.941 62.6236C102.357 66.4069 102.812 70.1857 103.331 73.9555C103.849 77.7403 104.408 81.5192 104.877 85.31C105.352 89.1461 105.757 92.9898 106.054 96.844C106.354 100.755 106.592 104.667 106.766 108.586C106.938 112.476 107.12 116.392 106.888 120.284C106.814 121.51 106.712 122.746 106.424 123.942C106.178 124.975 105.827 125.994 105.124 126.811C104.849 127.129 104.5 127.444 104.122 127.638C103.714 127.846 103.304 127.998 102.865 128.127C102.485 128.237 102.089 128.3 101.7 128.377C101.248 128.466 100.792 128.547 100.339 128.629C99.4719 128.784 98.6022 128.93 97.7325 129.067C94.017 129.65 90.2879 130.042 86.5347 130.275C84.004 130.43 81.4717 130.525 78.9379 130.525C77.6552 130.531 76.3725 130.507 75.0882 130.454Z" fill="#242424"/>
<path d="M55.1346 173.824C54.3116 173.501 53.5971 172.928 52.9987 172.289C52.2873 171.528 51.7476 170.569 51.4628 169.567C50.8975 167.577 51.205 165.215 52.854 163.815C53.8337 162.984 55.1737 162.884 56.4067 162.874C57.1664 162.868 57.9185 163.022 58.6571 163.177C59.3957 163.331 60.1298 163.536 60.8382 163.8C62.1043 164.267 63.268 164.974 64.5266 165.458C64.5356 165.461 64.5447 165.464 64.5552 165.467C64.608 165.147 64.6411 164.826 64.6728 164.504C64.9592 160.936 65.2124 157.365 65.4913 153.796C65.7912 149.964 66.1258 146.136 66.4921 142.309C66.893 138.134 67.2593 133.952 67.7552 129.786C67.8698 128.821 68.848 128.152 69.7841 128.294C70.7668 128.443 71.3909 129.359 71.2763 130.323C70.9085 133.407 70.6267 136.503 70.3267 139.594C70.0222 142.744 69.7223 145.896 69.4434 149.051C69.4449 149.025 69.4479 149 69.4494 148.974C69.4464 149.018 69.4419 149.061 69.4389 149.104C69.4359 149.137 69.4329 149.169 69.4299 149.202C69.4314 149.178 69.4344 149.152 69.4359 149.128C69.1284 152.831 68.8465 156.538 68.5646 160.243C68.4968 161.132 68.429 162.02 68.3627 162.908C68.2903 163.847 68.2451 164.793 68.117 165.726C68.0688 166.085 68.0039 166.441 67.8788 166.78C67.698 167.268 67.4432 167.693 67.1297 168.106C66.9895 168.292 66.8282 168.455 66.6504 168.595C66.6745 168.944 66.5976 169.303 66.4062 169.62C65.6812 170.809 64.7662 171.853 63.6282 172.661C62.133 173.721 60.3604 174.214 58.5501 174.319C58.3572 174.332 58.1642 174.338 57.9743 174.338C57.0036 174.339 56.06 174.185 55.1346 173.824ZM58.208 170.777C58.5501 170.755 58.8908 170.725 59.2314 170.678C59.5374 170.619 59.8404 170.548 60.1403 170.464C60.3378 170.397 60.5307 170.322 60.7221 170.242C60.9377 170.135 61.1502 170.022 61.3567 169.9C61.5723 169.758 61.7803 169.608 61.9822 169.446C62.1616 169.288 62.3335 169.124 62.4993 168.95C62.5972 168.839 62.6922 168.724 62.7856 168.608C62.4917 168.483 62.2053 168.347 61.925 168.215C61.0929 167.82 60.2715 167.399 59.4123 167.068C58.933 166.922 58.4521 166.786 57.9638 166.668C57.5839 166.59 57.2056 166.518 56.8227 166.465C56.5816 166.45 56.3419 166.441 56.0992 166.441C55.8701 166.456 55.6425 166.474 55.4149 166.501C55.3199 166.519 55.2235 166.537 55.127 166.557C55.1195 166.564 55.1134 166.57 55.1059 166.578C55.0788 166.611 55.0516 166.644 55.026 166.677C54.9929 166.733 54.9597 166.79 54.9265 166.846C54.9054 166.891 54.8858 166.937 54.8678 166.983C54.8467 167.054 54.8256 167.124 54.806 167.193C54.7894 167.28 54.7758 167.369 54.7653 167.458C54.7592 167.564 54.7562 167.669 54.7562 167.776C54.7683 167.953 54.7879 168.124 54.812 168.299C54.8331 168.4 54.8587 168.5 54.8858 168.599C54.9235 168.712 54.9642 168.824 55.0094 168.934C55.0818 169.085 55.1587 169.231 55.2401 169.377C55.3305 169.51 55.4224 169.638 55.5189 169.764C55.6184 169.876 55.7194 169.983 55.8249 170.088C55.9259 170.174 56.0284 170.257 56.1339 170.337C56.1942 170.375 56.2545 170.411 56.3163 170.446C56.4263 170.498 56.5379 170.547 56.6509 170.593C56.7715 170.631 56.8921 170.666 57.0142 170.696C57.1543 170.72 57.293 170.743 57.4347 170.762C57.6955 170.777 57.9502 170.782 58.208 170.777Z" fill="#242424"/>
<path d="M96.3398 172.455C95.3856 172.247 94.4843 171.939 93.6161 171.49C91.9882 170.645 90.722 169.259 89.8282 167.675C89.6172 167.301 89.5705 166.875 89.6579 166.475C89.2856 166.07 89.0685 165.545 88.9932 165.003C88.8469 163.978 88.8575 162.929 88.8213 161.895C88.7927 161.014 88.7656 160.136 88.7414 159.255C88.6329 155.457 88.5485 151.657 88.4777 147.857C88.3993 143.57 88.3254 139.284 88.1626 135C88.1023 133.74 88.0044 132.475 87.9848 131.214C87.9712 130.241 88.865 129.451 89.8071 129.474C90.8049 129.497 91.533 130.326 91.548 131.296C91.548 131.312 91.548 131.328 91.548 131.343C91.6309 133.149 91.7334 134.956 91.7877 136.762C91.851 138.815 91.9023 140.868 91.946 142.921C92.0274 146.636 92.0801 150.353 92.166 154.069C92.2369 157.103 92.3107 160.139 92.4223 163.174C92.9348 162.897 93.4427 162.611 93.9658 162.356C94.7511 161.976 95.562 161.675 96.4166 161.489C97.4296 161.271 98.5028 161.265 99.5277 161.397C99.8186 161.435 100.108 161.473 100.397 161.509C100.931 161.578 101.434 161.727 101.938 161.907C102.918 162.258 103.808 162.909 104.526 163.651C105.105 164.251 105.569 165.031 105.769 165.842C105.982 166.705 105.964 167.559 105.72 168.414C105.24 170.087 103.765 171.463 102.185 172.11C101.644 172.331 101.065 172.511 100.483 172.592C99.9618 172.667 99.4448 172.698 98.9173 172.714C98.8283 172.717 98.7394 172.719 98.652 172.719C97.8802 172.719 97.0904 172.618 96.3398 172.455ZM99.2594 169.143C99.5006 169.124 99.7372 169.1 99.9769 169.067C100.176 169.021 100.37 168.972 100.565 168.916C100.663 168.883 100.758 168.845 100.854 168.806C100.97 168.75 101.085 168.691 101.198 168.628C101.349 168.527 101.493 168.421 101.635 168.311C101.731 168.225 101.823 168.137 101.914 168.046C101.985 167.962 102.051 167.877 102.116 167.79C102.15 167.736 102.182 167.681 102.214 167.626C102.236 167.576 102.259 167.526 102.28 167.475C102.306 167.393 102.33 167.311 102.351 167.228C102.357 167.193 102.361 167.158 102.366 167.124C102.367 167.084 102.367 167.045 102.367 167.006C102.364 166.959 102.358 166.914 102.354 166.867C102.342 166.813 102.33 166.759 102.315 166.705C102.303 166.671 102.291 166.638 102.277 166.605C102.233 166.519 102.187 166.433 102.138 166.35C102.105 166.302 102.069 166.254 102.034 166.207C101.941 166.103 101.846 166.004 101.746 165.907C101.633 165.812 101.517 165.72 101.398 165.631C101.255 165.539 101.11 165.455 100.963 165.372C100.792 165.294 100.622 165.22 100.449 165.154C100.385 165.135 100.322 165.119 100.259 165.101C99.7704 165.006 99.2715 164.947 98.7756 164.897C98.4982 164.882 98.2224 164.875 97.9466 164.881C97.7461 164.896 97.5456 164.915 97.3451 164.941C97.113 164.986 96.8854 165.039 96.6578 165.102C96.3443 165.209 96.0368 165.328 95.7323 165.46C94.9485 165.844 94.1903 166.275 93.4156 166.679C93.4925 166.784 93.5724 166.89 93.6538 166.994C93.8587 167.229 94.0758 167.454 94.3019 167.671C94.4225 167.773 94.5446 167.874 94.6697 167.969C94.9289 168.137 95.1942 168.293 95.4655 168.441C95.675 168.536 95.8846 168.623 96.0986 168.705C96.3383 168.785 96.5794 168.856 96.8251 168.92C97.2894 169.014 97.7536 169.086 98.2254 169.134C98.5691 169.148 98.9127 169.149 99.2594 169.143Z" fill="#242424"/>
<path d="M58.4326 61.9525C56.5379 61.5078 54.7533 60.715 52.9776 59.9432C52.025 59.5272 51.0965 59.0449 50.159 58.5942C49.3767 58.2189 48.5944 57.8285 47.8272 57.423C46.1827 56.5518 44.5548 55.6534 42.9345 54.7355C41.2056 53.7542 39.4797 52.767 37.7342 51.8143C36.0415 50.8919 34.3473 49.9694 32.6471 49.059C30.9107 48.1305 29.1577 47.2246 27.4348 46.269C25.7677 45.3465 24.1233 44.3939 22.4969 43.4036C20.8871 42.4223 19.2652 41.4576 17.6403 40.5005C15.9853 39.5268 14.3348 38.547 12.6708 37.5869C11.8297 37.103 11.4694 36.0524 11.9367 35.1767C12.3814 34.3416 13.5073 33.9588 14.3469 34.4426C17.6057 36.3237 20.8509 38.235 24.066 40.193C25.709 41.1939 27.367 42.16 29.0522 43.0915C30.7479 44.0291 32.4692 44.9214 34.177 45.8348C37.6061 47.6677 41.0096 49.5473 44.392 51.4646C46.0485 52.4052 47.7111 53.3277 49.3948 54.2185C51.0242 55.0807 52.6988 55.863 54.3614 56.6603C55.0185 56.9467 55.6742 57.2331 56.3314 57.518C56.7293 57.6913 57.1544 57.8194 57.5629 57.9702C57.8779 58.0847 58.2005 58.1827 58.5185 58.2837C58.7612 58.3545 59.0038 58.4254 59.2495 58.4827C60.1961 58.7042 60.796 59.684 60.573 60.626C60.3815 61.44 59.6339 61.9962 58.8275 61.9962C58.6979 61.9992 58.5652 61.9841 58.4326 61.9525Z" fill="#242424"/>
<path d="M15.0734 38.0282C13.0596 36.5918 10.984 35.2443 8.98084 33.7927C8.5196 33.4596 8.08097 33.0948 7.63782 32.7406C7.18413 32.3758 6.73645 31.9779 6.32496 31.5649C5.88483 31.1233 5.44469 30.6846 5.01662 30.2294C4.5388 29.7245 4.07154 29.2 3.5485 28.7387L3.54398 28.7357C2.79334 28.3197 2.44063 27.3641 2.74812 26.5486C3.0948 25.6307 4.13334 25.1815 5.04526 25.5101C5.64064 25.7256 6.1064 26.2306 6.539 26.6722C6.94597 27.0867 7.34239 27.5103 7.74032 27.9323C8.41258 28.6422 9.12553 29.2979 9.85055 29.9506C10.4158 30.4013 10.9825 30.8399 11.5674 31.265C12.1658 31.6976 12.7823 32.1075 13.3927 32.5221C14.6528 33.3797 15.9069 34.2434 17.1474 35.1282C17.9373 35.6919 18.1242 36.8269 17.5589 37.6137C17.2137 38.0961 16.6606 38.3523 16.1014 38.3523C15.7426 38.3553 15.3824 38.2483 15.0734 38.0282Z" fill="#242424"/>
<path d="M14.6107 37.0928C13.9731 34.9358 13.4485 32.7412 12.9345 30.5511C12.6557 29.3618 12.3874 28.171 12.1417 26.9757C11.899 25.7985 11.6247 24.6047 11.5569 23.4034C11.5041 22.4342 12.3482 21.6022 13.2963 21.5796C14.2866 21.557 15.0629 22.3453 15.1186 23.3115C15.2784 24.6002 15.5467 25.8664 15.8075 27.1385C16.4752 30.1411 17.161 33.1527 18.0338 36.104C18.3096 37.034 17.7443 38.0424 16.8174 38.3107C16.6561 38.3574 16.4948 38.3785 16.3335 38.3785C15.5618 38.3785 14.8398 37.8645 14.6107 37.0928Z" fill="#242424"/>
<path d="M0.066628 40.145C-0.197151 39.2285 0.345478 38.1855 1.28453 37.9368C3.46862 37.3625 5.66627 36.8349 7.86242 36.3104C10.1339 35.7678 12.4356 35.302 14.6498 34.5559C14.9347 34.4489 15.2181 34.3419 15.503 34.2348C15.9446 34.069 16.3983 34.0314 16.846 34.2017C17.2906 34.369 17.6584 34.7187 17.8498 35.1543C18.2236 36.0074 17.8408 37.159 16.9319 37.5012C15.7939 37.9277 14.6559 38.3362 13.4726 38.6256C12.2396 38.9256 11.0036 39.2195 9.76765 39.5149C7.26703 40.1118 4.76189 40.7042 2.27483 41.3599C2.11656 41.4021 1.95679 41.4217 1.80003 41.4217C1.02075 41.4232 0.294231 40.9333 0.066628 40.145Z" fill="#242424"/>
<path d="M4.89454 46.9758C4.07155 46.5387 3.65855 45.3962 4.16048 44.5656C4.51922 43.9703 5.10556 43.613 5.6708 43.2347C6.08079 42.9604 6.49379 42.6906 6.90529 42.4192C7.74335 41.8661 8.5784 41.3068 9.41646 40.7522C10.2741 40.1839 11.1333 39.6217 12.009 39.0836C12.8019 38.5952 13.6203 38.1506 14.4162 37.6667L14.4192 37.6637C14.4298 37.6486 14.4403 37.6351 14.4494 37.62C14.5398 37.4572 14.6227 37.2944 14.7011 37.1271C14.8352 36.797 14.9528 36.4624 15.0613 36.1247C15.714 33.6874 16.1918 31.2109 16.8234 28.7676C17.467 26.282 18.1468 23.804 18.8808 21.3441C19.018 20.8798 19.2682 20.4879 19.6903 20.2302C20.0867 19.989 20.572 19.9137 21.0242 20.0207C21.9286 20.2347 22.625 21.2341 22.3476 22.1656C21.2654 25.8027 20.2796 29.4715 19.4461 33.1734C19.2411 34.0823 19.0542 34.9988 18.8115 35.8971C18.6382 36.5423 18.4663 37.1844 18.2553 37.8189C17.9177 38.8243 17.4172 39.8568 16.5611 40.5155C16.1782 40.8094 15.7245 41.0235 15.307 41.2647C14.9181 41.4877 14.5353 41.7183 14.1524 41.949C13.3852 42.4132 12.6285 42.8971 11.8809 43.3915C10.3133 44.4285 8.7442 45.4625 7.18263 46.5101C7.11028 46.5628 7.04094 46.6171 6.97161 46.6744C6.76812 46.8779 6.52243 47.0331 6.227 47.1175C6.06723 47.1627 5.90142 47.1869 5.73562 47.1869C5.44471 47.1838 5.1538 47.1145 4.89454 46.9758Z" fill="#242424"/>
<path d="M99.8337 59.7601C99.0228 59.1798 98.8841 58.0824 99.4207 57.2745C99.9015 56.548 100.485 55.8833 101.038 55.2125C101.563 54.5749 102.131 53.9826 102.72 53.4038C103.365 52.7692 104.018 52.1437 104.674 51.5181C104.925 51.277 105.174 51.0328 105.43 50.7946C105.435 50.7901 105.439 50.7856 105.444 50.7825C105.53 50.6861 105.625 50.5987 105.727 50.5203C105.723 50.5248 105.718 50.5293 105.714 50.5323C105.717 50.5293 105.72 50.5278 105.721 50.5248C105.723 50.5233 105.726 50.5218 105.727 50.5203L105.729 50.5173C105.757 50.4901 105.786 50.4645 105.813 50.4389C105.833 50.4208 105.852 50.4027 105.872 50.3846C105.935 50.3258 105.997 50.2686 106.06 50.2098C106.158 50.1133 106.264 50.0214 106.366 49.9264C106.407 49.8887 106.448 49.851 106.49 49.8149C106.513 49.7922 106.537 49.7696 106.561 49.747C106.614 49.6988 106.665 49.6491 106.718 49.5993C106.749 49.5677 106.782 49.5375 106.816 49.5074C106.843 49.4832 106.868 49.4591 106.895 49.435C106.954 49.3808 107.015 49.325 107.073 49.2707C107.128 49.2134 107.185 49.1607 107.245 49.1125C107.328 49.0356 107.412 48.9572 107.495 48.8803C107.435 48.9346 107.378 48.9904 107.317 49.0446C107.462 48.9105 107.602 48.7628 107.753 48.6271C107.828 48.5442 107.91 48.4658 107.997 48.395C108.044 48.3498 108.094 48.306 108.145 48.2653C108.169 48.2442 108.195 48.2231 108.219 48.202C108.368 48.0604 108.528 47.9292 108.677 47.7951C109.203 47.3248 109.731 46.8545 110.257 46.3827C110.861 45.8446 111.467 45.3095 112.084 44.782C113.748 43.35 115.424 41.9316 117.106 40.5193C120.057 38.0428 123.019 35.5783 125.984 33.1199C128.955 30.6585 131.956 28.2332 134.891 25.7266C137.696 23.333 140.475 20.9123 143.307 18.5518C143.713 18.2142 144.117 17.8765 144.522 17.5389C145.268 16.9179 146.422 17.0551 147.027 17.8012C147.645 18.5624 147.511 19.6853 146.765 20.3063C143.88 22.7075 141.021 25.1357 138.183 27.5896C135.15 30.2093 132.054 32.7461 128.956 35.2874C125.943 37.7594 122.959 40.2691 119.968 42.7682C118.639 43.8791 117.306 44.987 115.994 46.1159C114.32 47.5539 112.664 49.0054 111.019 50.4751C110.848 50.6288 110.677 50.781 110.507 50.9333C110.511 50.9303 110.514 50.9257 110.517 50.9227C110.504 50.9348 110.489 50.9484 110.475 50.9604C110.439 50.9966 110.401 51.0328 110.362 51.0659C110.343 51.0855 110.323 51.1036 110.302 51.1232C110.297 51.1277 110.294 51.1307 110.29 51.1353C110.335 51.0946 110.379 51.0524 110.424 51.0117C110.377 51.0554 110.331 51.0976 110.284 51.1413C110.266 51.1579 110.248 51.1744 110.23 51.191C110.168 51.2483 110.104 51.3071 110.043 51.3644C109.945 51.4608 109.841 51.5528 109.74 51.6477C109.699 51.6854 109.658 51.7231 109.618 51.7578C109.595 51.7819 109.571 51.8045 109.547 51.8271C109.49 51.8799 109.434 51.9341 109.376 51.9869C109.352 52.011 109.327 52.0351 109.301 52.0577C109.266 52.0894 109.232 52.121 109.196 52.1527C109.141 52.2039 109.086 52.2552 109.031 52.3049C108.979 52.3607 108.923 52.4119 108.865 52.4587C108.816 52.5039 108.768 52.5506 108.718 52.5958C108.597 52.7119 108.478 52.8325 108.353 52.947C108.281 53.0269 108.201 53.1023 108.118 53.1716C108.07 53.2184 108.018 53.2636 107.966 53.3058C107.935 53.3329 107.905 53.3585 107.874 53.3842C107.592 53.654 107.308 53.9253 107.027 54.1936C106.617 54.5855 106.202 54.9759 105.798 55.3738C105.296 55.8652 104.802 56.3566 104.318 56.866C103.928 57.2745 103.578 57.7252 103.219 58.1608C103.269 58.1005 103.32 58.0402 103.37 57.9784C103.013 58.4261 102.639 58.8693 102.322 59.3486C101.998 59.8369 101.439 60.0872 100.878 60.0872C100.506 60.0856 100.137 59.9786 99.8337 59.7601Z" fill="#242424"/>
<path d="M145.968 29.4407C144.956 29.4106 143.948 29.3593 142.94 29.284C141.815 29.198 140.674 29.0488 139.586 28.7534C138.599 28.4866 137.631 28.0299 136.936 27.2642C136.642 26.9416 136.359 26.5346 136.246 26.1081C136.185 25.8835 136.11 25.6529 136.113 25.4192C136.118 25.1178 136.145 24.8419 136.208 24.5465C136.289 24.1606 136.427 23.7778 136.538 23.4009C136.665 22.9729 136.791 22.5433 136.919 22.1167C137.192 21.1927 137.464 20.2688 137.733 19.3448C137.849 18.9484 137.963 18.5534 138.079 18.1555C138.241 17.5978 138.376 17.0039 138.65 16.4869C139 15.8282 139.713 15.468 140.447 15.5298C141.414 15.6112 142.132 16.5367 142.032 17.4863C142.004 17.7621 141.913 18.0153 141.776 18.2339C141.735 18.35 141.699 18.4675 141.661 18.5851C141.321 19.7502 140.983 20.9154 140.641 22.0805C140.468 22.6669 140.294 23.2532 140.121 23.8381C140.005 24.23 139.878 24.6234 139.77 25.0198C139.826 25.0514 139.881 25.0801 139.939 25.1087C140.113 25.1796 140.287 25.2429 140.465 25.3001C140.715 25.3665 140.965 25.4253 141.218 25.4795C142.524 25.6785 143.826 25.7855 145.143 25.8563C147.193 25.9166 149.248 25.9196 151.298 25.8337C152.268 25.793 153.1 26.6145 153.122 27.5717C153.146 28.5544 152.353 29.3548 151.384 29.3955C150.246 29.4437 149.103 29.4694 147.962 29.4694C147.293 29.4694 146.63 29.4603 145.968 29.4407Z" fill="#242424"/>
<path d="M148.856 34.6175C148.809 34.5964 148.764 34.5753 148.717 34.5542C148.752 34.5708 148.786 34.5859 148.821 34.6025C147.11 33.8292 145.397 33.0635 143.675 32.3099C141.961 31.5607 140.222 30.896 138.452 30.2961C138.041 30.1755 137.628 30.0444 137.207 29.9479C136.672 29.8243 136.139 29.7067 135.598 29.6057C135.659 29.6163 135.72 29.6268 135.78 29.6359C135.411 29.5741 135.064 29.5032 134.714 29.3601C134.348 29.2093 134.098 28.9757 133.843 28.6788C133.454 28.2281 133.346 27.5679 133.215 27.0041C133.029 26.2158 132.877 25.4184 132.725 24.6241C132.572 23.8313 132.431 23.0369 132.294 22.241C132.23 21.8657 132.17 21.4874 132.111 21.1106C132.016 20.5001 131.834 19.8309 131.924 19.2144C131.994 18.7426 132.199 18.3205 132.574 18.0161C132.955 17.7071 133.401 17.6076 133.881 17.6287C134.053 17.6362 134.205 17.689 134.366 17.7402C135.174 17.9965 135.614 18.8918 135.492 19.6952C135.555 20.173 135.644 20.6508 135.721 21.1256C135.806 21.6502 135.891 22.1747 135.986 22.6978C136.178 23.7484 136.378 24.7974 136.598 25.8435C136.582 25.7681 136.565 25.6928 136.549 25.6174C136.591 25.8073 136.633 25.9973 136.678 26.1857C137.711 26.3816 138.734 26.6303 139.729 26.9665C141.025 27.4051 142.298 27.8829 143.565 28.3939C144.67 28.84 145.758 29.3314 146.847 29.8183C148.077 30.3669 149.307 30.9156 150.532 31.4718C151.417 31.8727 151.7 33.0665 151.266 33.882C151.041 34.3025 150.647 34.6221 150.188 34.7547C150.03 34.7999 149.875 34.821 149.72 34.821C149.426 34.8225 149.138 34.7457 148.856 34.6175Z" fill="#242424"/>
</svg>
