<svg width="22" height="22" viewBox="0 0 22 22" fill="none" xmlns="http://www.w3.org/2000/svg">
<g opacity="0.8">
<path d="M19.8357 5.55215C18.7879 8.16763 16.3964 11.5829 14.1169 13.8145C13.7889 11.7509 12.1412 10.1352 10.0617 9.84729C12.3012 7.55975 15.7405 5.13624 18.364 4.08045C18.8279 3.90448 19.2918 4.04045 19.5798 4.3284C19.8837 4.63234 20.0277 5.08825 19.8357 5.55215Z" fill="white"/>
<path d="M13.4124 14.4726C13.2525 14.6085 13.0925 14.7445 12.9325 14.8725L11.5008 16.0162C11.5008 15.9923 11.4928 15.9603 11.4928 15.9283C11.3808 15.0724 10.9809 14.2806 10.3331 13.6327C9.67721 12.9769 8.86137 12.5769 7.96555 12.465C7.94156 12.465 7.90956 12.457 7.88557 12.457L9.04534 10.9933C9.15731 10.8493 9.27729 10.7133 9.40526 10.5693L9.94915 10.6413C11.6688 10.8813 13.0525 12.233 13.3244 13.9447L13.4124 14.4726Z" fill="white"/>
<path d="M10.7335 16.4963C10.7335 17.3761 10.3976 18.2159 9.7577 18.8478C9.26979 19.3437 8.61393 19.6796 7.81409 19.7756L5.85448 19.9916C4.78269 20.1116 3.86287 19.1917 3.98285 18.112L4.19881 16.1444C4.39077 14.3927 5.85448 13.2729 7.40617 13.2409C7.55814 13.2329 7.7261 13.2409 7.88607 13.2569C8.56593 13.3449 9.2218 13.6568 9.77369 14.2007C10.3096 14.7366 10.6136 15.3685 10.7015 16.0324C10.7175 16.1923 10.7335 16.3443 10.7335 16.4963Z" fill="white"/>
</g>
</svg>
