<svg width="22" height="22" viewBox="0 0 22 22" fill="none" xmlns="http://www.w3.org/2000/svg">
<path d="M18 11.2C18 13.517 16.117 15.4 13.8 15.4C13.2788 15.4 12.7775 15.305 12.3168 15.1299C12.0937 15.045 12.0521 14.7596 12.2074 14.5783C13.0068 13.6457 13.45 12.4502 13.45 11.2C13.45 9.94574 13.0028 8.74602 12.2095 7.82227C12.0536 7.6408 12.0949 7.35435 12.3186 7.26946C12.7788 7.09476 13.2795 7 13.8 7C16.117 7 18 8.883 18 11.2Z" fill="#242424"/>
<path d="M12.4 11.2C12.4 12.439 11.861 13.559 11 14.322C10.258 14.994 9.278 15.4 8.2 15.4C5.883 15.4 4 13.517 4 11.2C4 8.883 5.883 7 8.2 7C9.278 7 10.258 7.406 11 8.078C11.861 8.841 12.4 9.961 12.4 11.2Z" fill="#242424"/>
</svg>
