<svg width="46" height="46" viewBox="0 0 46 46" fill="none" xmlns="http://www.w3.org/2000/svg">
<path d="M10 1H36C40.9706 1 45 5.02944 45 10V36C45 40.9706 40.9706 45 36 45H10C5.02944 45 1 40.9706 1 36V10C1 5.02944 5.02944 1 10 1Z" fill="#E2FE52"/>
<path d="M10 1H36C40.9706 1 45 5.02944 45 10V36C45 40.9706 40.9706 45 36 45H10C5.02944 45 1 40.9706 1 36V10C1 5.02944 5.02944 1 10 1Z" stroke="#343434" stroke-width="2"/>
<path d="M28.202 10.793L29.8586 10.788L29.8637 13.5148C29.8637 13.8207 29.8586 14.135 29.8484 14.4578C29.8348 14.784 29.8195 15.1085 29.8025 15.4313C29.9486 15.2716 30.0981 15.1085 30.251 14.942C30.4039 14.7823 30.5552 14.6277 30.7047 14.4782L35.2257 9.95714L36.4286 11.16L31.9076 15.6811C31.758 15.8306 31.6017 15.9801 31.4386 16.1296C31.2789 16.2825 31.1192 16.432 30.9595 16.5781C31.2823 16.5611 31.6034 16.5459 31.9228 16.5323C32.2457 16.5221 32.56 16.517 32.8658 16.517L35.5978 16.517L35.5927 18.1837H28.202V10.793Z" fill="#4D5745"/>
<path d="M10.5352 27.7782L10.5301 29.4347L13.257 29.4398C13.5628 29.4398 13.8772 29.4347 14.2 29.4245C14.5262 29.4109 14.8507 29.3957 15.1735 29.3787C15.0138 29.5248 14.8507 29.6743 14.6842 29.8272C14.5245 29.9801 14.3699 30.1313 14.2204 30.2808L9.69933 34.8019L10.9022 36.0048L15.4233 31.4837C15.5728 31.3342 15.7223 31.1779 15.8718 31.0148C16.0247 30.8551 16.1742 30.6954 16.3203 30.5357C16.3033 30.8585 16.288 31.1796 16.2744 31.499C16.2643 31.8218 16.2592 32.1361 16.2592 32.442L16.2592 35.1739L17.9259 35.1689V27.7782H10.5352Z" fill="#4D5745"/>
</svg>
