<svg width="22" height="22" viewBox="0 0 22 22" fill="none" xmlns="http://www.w3.org/2000/svg">
<path d="M13.4055 5.78004L5.78891 13.3966C5.49814 13.6874 5.03009 13.6874 4.74641 13.3966H4.73932C3.75356 12.4038 3.75356 10.801 4.73932 9.81527L9.80996 4.74464C10.8028 3.75179 12.4056 3.75179 13.3984 4.74464C13.6892 5.02122 13.6892 5.49637 13.4055 5.78004Z" fill="#242424"/>
<path d="M17.2564 8.59449L15.0934 6.43149C14.8026 6.14073 14.3345 6.14073 14.0509 6.43149L6.43426 14.0481C6.1435 14.3318 6.1435 14.7998 6.43426 15.0906L8.59727 17.2607C9.59011 18.2464 11.1929 18.2464 12.1857 17.2607L17.2493 12.19C18.2563 11.1972 18.2563 9.58735 17.2564 8.59449ZM11.5404 14.9984L10.6823 15.8636C10.505 16.0409 10.2142 16.0409 10.0298 15.8636C9.85251 15.6863 9.85251 15.3955 10.0298 15.2111L10.895 14.3459C11.0652 14.1757 11.3631 14.1757 11.5404 14.3459C11.7177 14.5232 11.7177 14.8282 11.5404 14.9984ZM14.3558 12.1829L12.6254 13.9204C12.4481 14.0906 12.1573 14.0906 11.973 13.9204C11.7957 13.7431 11.7957 13.4524 11.973 13.268L13.7105 11.5305C13.8807 11.3603 14.1785 11.3603 14.3558 11.5305C14.5331 11.7149 14.5331 12.0056 14.3558 12.1829Z" fill="#242424"/>
</svg>
