<svg width="153" height="176" viewBox="0 0 153 176" fill="none" xmlns="http://www.w3.org/2000/svg">
<path d="M70.273 62.2305C69.7558 62.2139 69.2401 62.1957 68.7244 62.179C68.2451 62.1623 67.7612 62.0789 67.2849 62.0273C66.7783 61.9727 66.2702 61.9181 65.7605 61.862C65.2934 61.8119 64.8232 61.6982 64.3605 61.6147C63.8964 61.5328 63.4353 61.4524 62.9727 61.3705C61.6151 61.1309 60.2697 60.7396 58.9592 60.3179C56.4929 59.52 54.11 58.434 51.8849 57.1038C50.7716 56.4379 49.7144 55.6704 48.6814 54.8832C47.5848 54.0505 46.5549 53.1358 45.5644 52.1803C43.6077 50.2934 41.9514 48.1107 40.5301 45.7991C39.121 43.5042 38.1002 40.9939 37.4935 38.3713C36.8989 35.8034 36.8823 33.1551 37.2281 30.5538C37.5754 27.9221 38.4476 25.3891 39.5852 23.0001C41.868 18.204 45.2686 13.91 49.3094 10.4775C50.9748 9.06077 52.7828 7.75632 54.7061 6.70822C55.6041 6.21981 56.4868 5.69651 57.4197 5.27636C58.3328 4.86683 59.2353 4.42848 60.1757 4.08417C60.7672 3.86727 61.3573 3.65187 61.9488 3.43496C62.322 3.29845 62.7072 3.19532 63.0895 3.08308C63.6658 2.91471 64.2437 2.74635 64.8216 2.5795C65.2206 2.46271 65.6331 2.38536 66.0366 2.29283C66.5189 2.1821 66.9982 2.06986 67.4791 1.95913C68.0115 1.83779 68.559 1.76042 69.096 1.66032C70.135 1.4692 71.1755 1.32208 72.2221 1.17495C72.5679 1.12642 72.9077 1.09152 73.255 1.0627C73.8481 1.01568 74.4442 0.938318 75.0388 0.9277C75.5424 0.920117 76.049 0.912546 76.5525 0.903445C77.0364 0.895861 77.5172 0.929229 77.9996 0.948947C78.8293 0.98535 79.6544 1.06575 80.472 1.20833C80.9937 1.29934 81.5064 1.43736 82.0145 1.59056C82.2178 1.54809 82.4286 1.54354 82.641 1.59056C86.3131 2.38081 89.9944 3.256 93.5225 4.5559C95.2683 5.20054 96.955 6.00595 98.587 6.89935C99.4167 7.35287 100.228 7.84127 101.005 8.38277C101.834 8.96067 102.625 9.57192 103.403 10.2181C104.953 11.5043 106.295 13.0257 107.556 14.5895C108.7 16.0077 109.708 17.5776 110.548 19.193C111.02 20.1015 111.472 21.0177 111.853 21.9687C112.238 22.9288 112.548 23.9026 112.813 24.9022C113.056 25.8168 113.21 26.7512 113.301 27.6931C113.359 28.2922 113.358 28.899 113.379 29.4996C113.396 30.0062 113.37 30.5341 113.326 31.0407C113.285 31.4896 113.271 31.9492 113.204 32.3967C113.126 32.9094 113.068 33.4296 112.954 33.9347C112.854 34.3822 112.781 34.8463 112.648 35.2832C112.496 35.7776 112.367 36.2858 112.182 36.7681C112.015 37.2004 111.87 37.6494 111.679 38.0695C111.451 38.5625 111.24 39.066 110.99 39.5453C110.758 39.9928 110.526 40.4387 110.292 40.8847C109.826 41.7781 109.262 42.6199 108.715 43.4632C108.222 44.2232 107.674 44.9618 107.084 45.6489C106.747 46.0418 106.424 46.4528 106.066 46.8275C105.663 47.2461 105.261 47.6648 104.857 48.0834C104.252 48.7129 103.592 49.3014 102.937 49.8793C102.108 50.6073 101.267 51.3096 100.412 52.0043C99.6913 52.5898 98.9314 53.1237 98.1836 53.6743C97.8302 53.9337 97.4419 54.1582 97.0733 54.3963C96.6971 54.6405 96.324 54.8968 95.9342 55.1228C95.0559 55.6325 94.1868 56.1497 93.2798 56.6108C92.7853 56.8626 92.2893 57.1159 91.7933 57.3677C91.3459 57.5952 90.8726 57.7803 90.4161 57.985C89.9792 58.1792 89.5424 58.3749 89.1056 58.569C88.6444 58.7753 88.1545 58.9315 87.6828 59.1105C87.2626 59.2698 86.8425 59.4305 86.4208 59.5913C85.9324 59.7779 85.4137 59.9083 84.9131 60.0661C84.4672 60.2056 84.0228 60.3467 83.5753 60.4862C83.0778 60.6409 82.5651 60.7501 82.06 60.8776C81.5322 61.0095 81.0043 61.1415 80.478 61.2734C80.067 61.3751 79.6407 61.4312 79.2251 61.5085C78.667 61.6102 78.1073 61.7148 77.5506 61.818C77.1092 61.8999 76.6602 61.9317 76.2143 61.9788C75.6501 62.0409 75.0858 62.1001 74.52 62.1623C74.0862 62.2078 73.6373 62.1972 73.2019 62.2108C72.6483 62.229 72.0962 62.2472 71.5411 62.2669C71.4819 62.2685 71.4243 62.27 71.3651 62.27C71.0026 62.273 70.634 62.2442 70.273 62.2305ZM71.5714 58.6873C72.0249 58.7025 72.4921 58.6585 72.9456 58.6418C73.3369 58.6282 73.7283 58.616 74.1196 58.6024C75.0327 58.5038 75.9473 58.4052 76.8605 58.3066C77.7736 58.1382 78.6867 57.9684 79.6013 57.8C80.0912 57.709 80.5812 57.5543 81.0635 57.4329C81.5458 57.3131 82.0282 57.1902 82.509 57.0704C83.2082 56.8505 83.9075 56.6305 84.6067 56.4106C85.1649 56.2362 85.7049 56.0284 86.2525 55.8191C86.847 55.5931 87.4522 55.3883 88.0332 55.1289C88.7248 54.821 89.418 54.5116 90.1097 54.2037C90.8377 53.8351 91.5628 53.4635 92.2908 53.0934C92.5942 52.9387 92.8854 52.7506 93.1797 52.5792C93.5513 52.3638 93.9214 52.1484 94.2945 51.933C95.1591 51.3733 96.0191 50.8182 96.8503 50.2084C97.2705 49.9005 97.6982 49.6017 98.1017 49.2726C98.5673 48.8934 99.0345 48.5157 99.5002 48.1365C100.172 47.5464 100.847 46.9625 101.493 46.3451C102.189 45.6808 102.857 45.0013 103.523 44.3081C103.873 43.897 104.223 43.4875 104.575 43.0765C104.744 42.8793 104.888 42.6548 105.041 42.447C105.209 42.221 105.378 41.995 105.546 41.7674C105.95 41.1486 106.355 40.5313 106.725 39.8912C107.11 39.2268 107.469 38.5564 107.824 37.8769C108.017 37.4582 108.208 37.0381 108.401 36.6194C108.568 36.2554 108.698 35.8686 108.838 35.4909C108.962 35.0844 109.086 34.6764 109.211 34.2699C109.338 33.8559 109.406 33.4129 109.5 32.9882C109.487 33.0489 109.473 33.1096 109.461 33.1702C109.529 32.7228 109.597 32.2784 109.667 31.8309C109.732 31.3941 109.746 30.9421 109.786 30.5007C109.778 30.5781 109.773 30.6539 109.766 30.7282C109.776 30.2914 109.787 29.8545 109.798 29.4177C109.807 29.0734 109.783 28.7245 109.766 28.3787C109.728 27.9055 109.675 27.4368 109.604 26.9696C109.476 26.2931 109.302 25.6363 109.126 24.972C109.006 24.617 108.888 24.2606 108.768 23.9041C108.64 23.5234 108.467 23.1503 108.317 22.7772C107.988 22.0719 107.645 21.3802 107.287 20.6885C106.94 20.0242 106.54 19.3886 106.142 18.7516C105.487 17.8006 104.804 16.8829 104.082 15.9834C103.368 15.1719 102.631 14.3969 101.857 13.6415C101.372 13.2077 100.882 12.7845 100.381 12.3674C99.8976 11.967 99.3773 11.6075 98.8601 11.248C98.0182 10.708 97.1643 10.206 96.2891 9.72362C94.786 8.95915 93.2585 8.27962 91.678 7.69262C89.0555 6.81136 86.3814 6.10757 83.6875 5.48871C83.1627 5.71472 82.5439 5.68439 82.0342 5.38255C81.9387 5.3416 81.8431 5.30214 81.7476 5.26574C81.2137 5.09434 80.6813 4.9275 80.1367 4.79554C79.6119 4.69239 79.0871 4.6196 78.5547 4.56803C77.4004 4.48005 76.2507 4.49067 75.0949 4.50887C74.7779 4.53465 74.4594 4.56044 74.1408 4.58471C73.7859 4.61202 73.4249 4.62262 73.0745 4.67116C72.2813 4.78188 71.488 4.89262 70.6947 5.00335C70.0561 5.12166 69.416 5.23996 68.7775 5.35827C68.195 5.46596 67.6201 5.604 67.0437 5.73597C66.4719 5.86793 65.9016 5.99079 65.3404 6.1546C64.6927 6.34269 64.045 6.53226 63.3974 6.72035C62.5601 7.02522 61.7259 7.33163 60.8886 7.63802C60.4927 7.78212 60.1074 7.98991 59.7222 8.16283C59.343 8.33271 58.9638 8.5041 58.5831 8.6755C57.5107 9.25947 56.4277 9.82524 55.3857 10.4623C54.1115 11.2692 52.8951 12.1535 51.7302 13.1121C50.5835 14.0905 49.502 15.1325 48.4766 16.2352C47.3861 17.4441 46.3774 18.7137 45.4415 20.0439C44.6422 21.2179 43.9065 22.4283 43.2437 23.6857C42.6992 24.7611 42.2123 25.8593 41.7906 26.9878C41.4933 27.8387 41.24 28.6957 41.0398 29.5739C40.8623 30.4537 40.7319 31.3395 40.6454 32.2344C40.5893 33.0065 40.5696 33.7755 40.5954 34.5505C40.6363 35.2695 40.7106 35.9824 40.8214 36.6938C40.97 37.5037 41.1642 38.3001 41.3978 39.0903C41.6814 39.9731 42.0136 40.8331 42.3913 41.6795C42.8539 42.6548 43.3802 43.5876 43.949 44.5037C44.6407 45.5761 45.3945 46.6015 46.2045 47.5874C47.0054 48.5293 47.8563 49.4182 48.7588 50.263C49.9115 51.3051 51.128 52.2607 52.3991 53.1556C53.3986 53.8351 54.4301 54.4479 55.5009 55.0045C56.7584 55.634 58.0476 56.1861 59.3688 56.6654C60.6596 57.1098 61.9701 57.4739 63.3018 57.7727C64.2862 57.9805 65.2843 58.1322 66.2747 58.3051C66.6721 58.3748 67.0862 58.3946 67.4867 58.4385C67.9462 58.4886 68.4043 58.5387 68.8654 58.5872C69.7634 58.6266 70.6674 58.657 71.5714 58.6873Z" fill="black"/>
<path d="M72.4207 131.741C68.5226 131.579 64.6153 131.357 60.7338 130.957C58.7483 130.751 56.7735 130.499 54.8123 130.126C53.9477 129.962 53.0695 129.778 52.2504 129.455C51.8105 129.281 51.3206 129.087 50.9581 128.771C50.544 128.412 50.2027 128.028 49.9782 127.521C49.728 126.96 49.6673 126.347 49.6415 125.741C49.6172 125.226 49.6127 124.72 49.6354 124.207C49.7158 122.401 49.8751 120.594 49.9934 118.791C50.1147 116.893 50.2391 114.996 50.365 113.097C50.6122 109.346 50.908 105.596 51.1977 101.847C51.4935 98.006 51.7711 94.164 52.0411 90.3219C52.3156 86.3965 52.5993 82.4695 52.9314 78.5501C53.2818 74.4396 53.6534 70.3306 54.0326 66.2216C54.1782 64.6395 54.3254 63.0575 54.4725 61.4755C54.5438 60.7171 54.6136 59.9587 54.6833 59.2003C54.7197 58.809 54.7561 58.4207 54.7895 58.0293C54.8183 57.7002 54.8365 57.3589 54.9624 57.0525C55.2946 56.2319 56.2608 55.7815 57.1132 56.0257C58.0036 56.279 58.5132 57.1617 58.3828 58.043C58.3843 58.0385 58.3858 58.0324 58.3873 58.0278C58.2887 58.6179 58.2751 59.2337 58.219 59.8283C58.1462 60.6155 58.0734 61.4012 58.0006 62.1869C57.8625 63.6627 57.7245 65.1401 57.588 66.6175C57.2983 69.7754 57.0131 72.9319 56.731 76.0898C56.4125 79.8363 56.1 83.5843 55.8376 87.3354C55.554 91.3867 55.2718 95.4396 54.967 99.4879C54.6848 103.242 54.3754 106.992 54.1145 110.747C53.8506 114.504 53.6201 118.264 53.3698 122.023C53.3 123.086 53.1984 124.15 53.1999 125.214C53.212 125.474 53.2272 125.733 53.253 125.991C53.347 126.035 53.4441 126.076 53.5412 126.114C54.0554 126.279 54.5741 126.416 55.1004 126.534C56.141 126.731 57.18 126.928 58.2326 127.059C59.484 127.215 60.7323 127.356 61.9867 127.483C65.1265 127.746 68.2678 127.945 71.4151 128.11C74.5336 128.274 77.6491 128.257 80.7677 128.148C83.3599 128.025 85.9536 127.884 88.5337 127.609C91.1046 127.338 93.6635 126.987 96.2132 126.558C96.1768 126.564 96.1389 126.57 96.1025 126.578C97.2856 126.373 98.4945 126.205 99.6533 125.882C99.6973 125.865 99.7413 125.848 99.7853 125.832C99.8186 125.815 99.852 125.797 99.8854 125.78C99.9066 125.76 99.9263 125.741 99.9476 125.721C99.9597 125.707 99.9718 125.692 99.9855 125.678C99.9794 125.686 99.9749 125.694 99.9703 125.701L99.9764 125.695C100.011 125.642 100.045 125.587 100.076 125.531C100.148 125.377 100.213 125.22 100.274 125.061C100.354 124.797 100.427 124.535 100.492 124.266C100.636 123.547 100.717 122.827 100.797 122.099C100.899 120.347 100.953 118.593 100.93 116.837C100.906 114.905 100.85 112.975 100.774 111.044C100.777 111.122 100.78 111.198 100.783 111.273C100.447 103.58 99.9703 95.884 99.0223 88.2394C98.5309 84.2608 97.9742 80.2898 97.4206 76.3189C96.8927 72.5284 96.421 68.7334 95.9963 64.9292C95.5595 61.0038 95.156 57.0738 94.657 53.1544C94.5341 52.1851 95.2971 51.2826 96.2527 51.184C97.2401 51.0809 98.1001 51.8105 98.223 52.7797C98.6765 56.3427 99.0511 59.9162 99.444 63.4853C99.8626 67.2924 100.321 71.095 100.842 74.8885C101.364 78.6972 101.927 82.4998 102.399 86.3146C102.877 90.1748 103.285 94.0426 103.583 97.9211C103.885 101.857 104.125 105.793 104.299 109.737C104.472 113.652 104.654 117.592 104.422 121.509C104.348 122.742 104.245 123.986 103.955 125.19C103.708 126.229 103.354 127.254 102.647 128.077C102.37 128.397 102.02 128.714 101.639 128.909C101.228 129.119 100.815 129.272 100.374 129.401C99.9915 129.511 99.5926 129.575 99.2013 129.652C98.7463 129.742 98.2882 129.824 97.8316 129.906C96.9595 130.062 96.0843 130.209 95.2091 130.347C91.4702 130.934 87.7176 131.329 83.9408 131.562C81.3941 131.718 78.8459 131.814 76.2962 131.814C75.0038 131.818 73.7131 131.794 72.4207 131.741Z" fill="black"/>
<path d="M52.343 175.384C51.5148 175.059 50.7958 174.483 50.1937 173.84C49.4777 173.074 48.9347 172.109 48.648 171.1C48.0792 169.1 48.3887 166.721 50.0481 165.314C51.034 164.478 52.3824 164.376 53.6231 164.367C54.3876 164.361 55.1445 164.516 55.8877 164.672C56.6309 164.828 57.3696 165.033 58.0825 165.299C59.3566 165.769 60.5276 166.48 61.7941 166.967C61.8032 166.97 61.8123 166.973 61.8229 166.976C61.876 166.654 61.9094 166.331 61.9413 166.007C62.2294 162.417 62.4843 158.823 62.7649 155.231C63.0667 151.376 63.4034 147.523 63.772 143.672C64.1755 139.47 64.5441 135.263 65.0431 131.07C65.1584 130.1 66.1428 129.426 67.0847 129.569C68.0737 129.719 68.7016 130.641 68.5863 131.61C68.2162 134.714 67.9326 137.829 67.6308 140.94C67.3244 144.11 67.0225 147.282 66.7419 150.457C66.7434 150.431 66.7465 150.405 66.748 150.379C66.7449 150.423 66.7404 150.467 66.7374 150.51C66.7343 150.543 66.7313 150.575 66.7283 150.608C66.7298 150.584 66.7328 150.558 66.7343 150.534C66.4249 154.261 66.1413 157.991 65.8576 161.719C65.7894 162.614 65.7211 163.507 65.6544 164.401C65.5816 165.346 65.5361 166.298 65.4071 167.237C65.3586 167.598 65.2934 167.956 65.1675 168.297C64.9855 168.789 64.7291 169.216 64.4136 169.632C64.2726 169.819 64.1103 169.982 63.9313 170.123C63.9556 170.475 63.8782 170.836 63.6856 171.155C62.956 172.352 62.0353 173.403 60.8901 174.216C59.3854 175.282 57.6017 175.778 55.7785 175.884C55.5844 175.896 55.3902 175.902 55.1991 175.902C54.2223 175.902 53.2728 175.748 52.343 175.384ZM55.4342 172.318C55.7785 172.295 56.1213 172.265 56.4641 172.218C56.772 172.159 57.0754 172.088 57.3787 172.003C57.5774 171.936 57.7716 171.86 57.9642 171.778C58.1811 171.672 58.395 171.557 58.6028 171.434C58.8197 171.291 59.029 171.14 59.2322 170.977C59.4127 170.818 59.5857 170.653 59.751 170.478C59.8496 170.366 59.9452 170.251 60.0392 170.134C59.7434 170.007 59.4552 169.872 59.1731 169.738C58.3358 169.341 57.5092 168.918 56.6446 168.584C56.1623 168.437 55.6784 168.3 55.187 168.182C54.8047 168.103 54.424 168.03 54.0387 167.977C53.7961 167.962 53.5549 167.953 53.3107 167.953C53.0801 167.968 52.8511 167.986 52.6221 168.014C52.525 168.032 52.4294 168.05 52.3323 168.07C52.3248 168.076 52.3187 168.083 52.3111 168.089C52.2838 168.123 52.2565 168.156 52.2307 168.189C52.1974 168.246 52.164 168.303 52.1306 168.359C52.1094 168.405 52.0897 168.45 52.0715 168.497C52.0502 168.569 52.029 168.638 52.0093 168.708C51.9926 168.796 51.9789 168.886 51.9698 168.975C51.9638 169.081 51.9607 169.188 51.9607 169.295C51.9729 169.473 51.9926 169.647 52.0169 169.822C52.0381 169.923 52.0639 170.023 52.0912 170.123C52.1291 170.237 52.1701 170.349 52.2156 170.46C52.2884 170.612 52.3657 170.759 52.4476 170.906C52.5371 171.04 52.6312 171.168 52.7282 171.296C52.8283 171.408 52.93 171.516 53.0346 171.622C53.1363 171.708 53.2394 171.792 53.3471 171.872C53.4078 171.91 53.4684 171.947 53.5306 171.981C53.6413 172.035 53.7536 172.083 53.8673 172.13C53.9887 172.168 54.11 172.203 54.2329 172.233C54.374 172.259 54.5135 172.28 54.6561 172.3C54.9185 172.318 55.1748 172.323 55.4342 172.318Z" fill="black"/>
<path d="M93.806 174.006C92.8459 173.797 91.9388 173.488 91.0652 173.036C89.427 172.185 88.1529 170.791 87.2535 169.197C87.0411 168.82 86.9941 168.391 87.0821 167.989C86.7074 167.581 86.489 167.053 86.4132 166.507C86.266 165.476 86.2766 164.42 86.2402 163.38C86.2114 162.494 86.1841 161.61 86.1598 160.724C86.0506 156.901 85.9657 153.078 85.8959 149.254C85.817 144.94 85.7427 140.626 85.5789 136.315C85.5182 135.047 85.4197 133.775 85.3999 132.505C85.3863 131.527 86.2857 130.732 87.2337 130.755C88.2379 130.778 88.9705 131.612 88.9856 132.589C88.9856 132.604 88.9856 132.621 88.9856 132.636C89.0691 134.453 89.1722 136.271 89.2268 138.089C89.289 140.154 89.3421 142.22 89.3861 144.286C89.468 148.027 89.5211 151.766 89.6075 155.504C89.6788 158.558 89.7531 161.613 89.8654 164.667C90.3811 164.388 90.8922 164.1 91.4201 163.844C92.2103 163.462 93.0264 163.158 93.8864 162.972C94.9057 162.752 95.9857 162.746 97.0171 162.879C97.3098 162.917 97.601 162.955 97.8923 162.991C98.4292 163.061 98.9358 163.211 99.4424 163.392C100.428 163.745 101.325 164.4 102.047 165.147C102.629 165.75 103.096 166.536 103.298 167.352C103.512 168.221 103.494 169.08 103.248 169.94C102.766 171.623 101.281 173.008 99.6912 173.659C99.1467 173.882 98.5642 174.062 97.9787 174.144C97.4539 174.22 96.9337 174.251 96.4028 174.267C96.3133 174.27 96.2238 174.272 96.1343 174.272C95.3577 174.272 94.5614 174.17 93.806 174.006ZM96.7456 170.674C96.9883 170.654 97.2264 170.63 97.4676 170.597C97.6678 170.551 97.8635 170.501 98.0591 170.445C98.1577 170.411 98.2533 170.374 98.3503 170.334C98.4671 170.278 98.5824 170.219 98.6947 170.155C98.8463 170.054 98.9919 169.947 99.1345 169.835C99.2316 169.749 99.3241 169.659 99.4151 169.568C99.4864 169.483 99.5532 169.398 99.6184 169.31C99.6533 169.256 99.6851 169.201 99.717 169.145C99.7397 169.095 99.7625 169.045 99.7837 168.993C99.8095 168.911 99.8338 168.828 99.855 168.745C99.8611 168.71 99.8656 168.675 99.8702 168.64C99.8717 168.6 99.8717 168.561 99.8717 168.522C99.8687 168.475 99.8626 168.429 99.858 168.382C99.8474 168.327 99.8338 168.273 99.8186 168.218C99.8065 168.185 99.7943 168.151 99.7807 168.118C99.7367 168.032 99.6897 167.945 99.6411 167.862C99.6078 167.813 99.5714 167.765 99.5365 167.718C99.4424 167.613 99.3469 167.513 99.2468 167.416C99.133 167.32 99.0162 167.228 98.8964 167.14C98.7523 167.047 98.6067 166.962 98.458 166.879C98.2866 166.8 98.1152 166.726 97.9408 166.659C97.8771 166.642 97.8134 166.624 97.7497 166.606C97.2582 166.51 96.7562 166.451 96.2572 166.401C95.9781 166.386 95.702 166.378 95.4229 166.384C95.2212 166.4 95.0195 166.419 94.8177 166.445C94.5841 166.491 94.3551 166.544 94.1261 166.607C93.8106 166.715 93.5011 166.835 93.1947 166.967C92.406 167.354 91.6431 167.787 90.8634 168.194C90.9408 168.3 91.0212 168.406 91.1031 168.511C91.3094 168.748 91.5278 168.974 91.7553 169.192C91.8766 169.295 91.9995 169.397 92.1254 169.492C92.3863 169.661 92.6533 169.82 92.9263 169.967C93.1371 170.063 93.3479 170.151 93.5633 170.233C93.8045 170.313 94.0472 170.384 94.2944 170.449C94.7616 170.543 95.2288 170.616 95.7035 170.665C96.0509 170.678 96.3967 170.681 96.7456 170.674Z" fill="black"/>
<path d="M55.6981 22.7436C54.7167 22.4479 53.6049 21.917 53.4775 20.7733C53.3698 19.8025 54.1055 18.9031 55.0732 18.803C55.5009 18.7575 55.912 18.8728 56.2487 19.0972C56.276 19.1124 56.3018 19.1291 56.3291 19.1443C56.4171 19.1867 56.5066 19.2247 56.5976 19.2611C56.8175 19.3354 57.039 19.3991 57.2665 19.4567C57.5516 19.5113 57.8368 19.5538 58.125 19.5857C58.4177 19.6023 58.709 19.6069 59.0032 19.6008C59.3506 19.5766 59.6934 19.5402 60.0377 19.4901C60.4715 19.4052 60.8977 19.3035 61.3224 19.1807C61.735 19.0442 62.1415 18.894 62.5419 18.7226C62.8817 18.5618 63.2138 18.3904 63.5384 18.2008C63.775 18.0461 64.0041 17.8853 64.2286 17.7139C64.4697 17.5046 64.6988 17.2862 64.9187 17.0556C65.1978 16.7326 65.4602 16.4019 65.7105 16.0576C66.1443 15.419 66.5295 14.7592 66.8921 14.0782C67.294 13.2318 67.6505 12.3718 67.9735 11.4935C68.0251 11.3434 68.0767 11.1917 68.1252 11.0416C68.4331 10.1148 69.3781 9.53536 70.3443 9.81293C71.2544 10.0738 71.8808 11.1037 71.5729 12.0305C70.7023 14.6652 69.5161 17.2407 67.6762 19.346C65.7833 21.5135 62.9969 22.6602 60.203 23.0879C59.7207 23.1623 59.2322 23.1971 58.7438 23.1971C57.7094 23.1971 56.678 23.0379 55.6981 22.7436Z" fill="black"/>
<path d="M98.226 21.3576C96.7016 21.2924 95.1773 21.1134 93.6665 20.9071C92.0087 20.6811 90.3751 20.3808 88.7506 19.9773C85.0269 19.0491 81.385 17.3563 78.8277 14.4153C77.6719 13.085 76.8968 11.5166 76.2765 9.8785C76.0323 9.23992 75.9458 8.5331 76.3129 7.92031C76.6511 7.35606 77.2624 7.03906 77.9116 7.03906C78.8232 7.03906 79.5755 7.79745 79.6559 8.67871C79.7833 9.01392 79.9153 9.34612 80.0563 9.6783C80.2535 10.1015 80.4643 10.5141 80.6994 10.9175C80.9482 11.3013 81.2121 11.6714 81.4988 12.0278C81.787 12.3539 82.0888 12.6649 82.4043 12.9652C82.8108 13.3231 83.234 13.6538 83.6754 13.9678C84.2002 14.3166 84.7387 14.6352 85.2953 14.931C86.028 15.2935 86.7803 15.609 87.5493 15.8911C88.5838 16.2399 89.6334 16.5024 90.6921 16.7678C91.7614 16.9786 92.8262 17.1743 93.9062 17.3229C94.9649 17.467 96.0236 17.5899 97.0869 17.6945C97.4934 17.7279 97.8999 17.7567 98.3079 17.775C99.2832 17.8174 100.081 18.6168 100.058 19.6088C100.037 20.5461 99.2423 21.3607 98.2988 21.3607C98.2761 21.3591 98.2518 21.3576 98.226 21.3576Z" fill="black"/>
<path d="M67.5594 38.4759C67.1271 36.0051 66.9694 33.4811 66.8481 30.9769C66.7828 29.6694 66.7464 28.3589 66.7115 27.0499C66.6949 26.4295 66.6903 25.8092 66.6979 25.1873C66.704 24.5957 66.7783 23.9723 67.159 23.4945C67.5139 23.0501 68.0478 22.8135 68.6121 22.8135C69.5904 22.8135 70.3852 23.6872 70.3625 24.6473C70.3594 24.8096 70.3336 24.9643 70.2897 25.1114C70.2548 26.0518 70.2912 26.9953 70.3155 27.9357C70.3352 28.7047 70.3655 29.4737 70.3943 30.2428C70.5141 32.6727 70.6552 35.1147 71.0238 37.5203C71.0314 37.5628 71.039 37.6053 71.045 37.6477C71.1284 38.1149 71.089 38.57 70.8387 38.9841C70.593 39.3951 70.182 39.697 69.7148 39.8077C69.5874 39.838 69.4569 39.8517 69.3265 39.8517C68.5271 39.8501 67.705 39.3056 67.5594 38.4759Z" fill="black"/>
<path d="M80.5599 36.5298C80.2505 33.8724 79.9138 31.2196 79.574 28.5682C79.4132 27.3077 79.2464 26.0488 79.0902 24.7883C78.9355 23.5567 78.7974 22.2993 78.8642 21.0585C78.9157 20.0817 79.6984 19.2839 80.698 19.3082C81.652 19.3294 82.4999 20.1651 82.4484 21.142C82.4377 21.3437 82.4332 21.5469 82.4271 21.7502C82.5485 24.08 82.911 26.3916 83.2068 28.7062C83.5268 31.1877 83.8377 33.6707 84.1274 36.1552C84.2412 37.1244 83.4965 38.0254 82.5318 38.1255C82.4696 38.1316 82.4089 38.1346 82.3482 38.1346C81.4442 38.1346 80.6661 37.4384 80.5599 36.5298Z" fill="black"/>
<path d="M82.7471 50.5177C82.4058 49.9974 82.3421 49.4468 82.465 48.8416C82.5803 48.2713 82.8381 47.7389 83.0672 47.2081C83.3523 46.5528 83.6633 45.9066 83.9833 45.2681C84.3762 44.4839 84.7766 43.7118 85.2013 42.9459C85.5198 42.3725 85.8596 41.8204 86.2297 41.2774C86.8925 40.3066 87.6631 39.4239 88.4791 38.582C89.6728 37.3504 91.0121 36.2189 92.4121 35.2299C93.7469 34.2849 95.1409 33.3385 96.6986 32.8061C97.6208 32.4906 98.6568 32.9092 99.0102 33.8466C99.3469 34.7369 98.8934 35.8442 97.9697 36.1597C97.727 36.2431 97.4919 36.3372 97.2598 36.4373C96.8533 36.6421 96.459 36.8635 96.0676 37.0941C95.4594 37.4824 94.8648 37.8889 94.2748 38.306C93.6089 38.7747 92.99 39.3086 92.3651 39.8288C92.4273 39.7773 92.4895 39.7257 92.5532 39.6741C91.8767 40.296 91.2063 40.9118 90.5738 41.5777C90.0975 42.1101 89.647 42.6622 89.2269 43.2416C88.6914 44.041 88.2334 44.8722 87.7677 45.7125C87.1473 46.9487 86.5103 48.1849 86.0067 49.4742C85.9976 49.4999 85.99 49.5272 85.9809 49.553C85.9627 50.0763 85.7231 50.5814 85.2544 50.9212C84.948 51.1441 84.5703 51.2549 84.1926 51.2549C83.6284 51.2518 83.0687 51.0061 82.7471 50.5177ZM85.9142 48.9964C85.9005 48.9387 85.8869 48.8796 85.8717 48.8219C85.855 48.7916 85.8384 48.7597 85.8217 48.7294C85.8596 48.8159 85.8899 48.9054 85.9142 48.9964Z" fill="black"/>
<path d="M57.45 59.2754C57.585 59.8412 57.4273 60.4054 57.083 60.8226C57.089 60.818 57.0936 60.815 57.0997 60.8119C57.1361 60.7604 57.171 60.7088 57.2074 60.6572C56.8206 61.2837 56.4929 61.945 56.1547 62.5987C55.6542 63.5998 55.1703 64.6024 54.7046 65.6232C54.4316 66.2208 54.1723 66.8245 53.9189 67.4312C53.9553 67.0278 53.9933 66.6273 54.0297 66.2239C54.1753 64.6419 54.3224 63.0598 54.4695 61.4778C54.5408 60.7209 54.6106 59.961 54.6804 59.2026C54.6986 59.013 54.7153 58.8234 54.7335 58.6338C54.6197 58.5807 54.5059 58.5246 54.3937 58.4685C54.6349 58.2121 54.9428 58.0347 55.2901 57.9467C56.2366 57.704 57.2286 58.335 57.45 59.2754Z" fill="black"/>
<path d="M55.2552 95.5518C55.1688 96.7591 55.0808 97.9665 54.9898 99.1739C54.8442 99.1815 54.6971 99.1845 54.5514 99.186C54.3103 99.1891 54.0721 99.1906 53.8325 99.1906C53.1408 99.1906 52.4507 99.1799 51.759 99.1617C51.6407 99.1587 51.5194 99.1511 51.3995 99.1435C51.489 97.9483 51.577 96.7546 51.665 95.5578C51.935 95.573 52.2065 95.5866 52.4795 95.5942C53.1651 95.6139 53.8492 95.6094 54.5363 95.6018C54.779 95.5867 55.0171 95.57 55.2552 95.5518Z" fill="black"/>
<path d="M102.035 49.1317C101.593 48.9406 101.24 48.572 101.072 48.1215C100.899 47.6695 100.943 47.219 101.102 46.7731C101.106 46.7625 101.109 46.7518 101.112 46.7427C101.413 45.822 101.636 44.8801 101.848 43.9367C102.112 42.6702 102.368 41.4006 102.503 40.1128C102.546 39.538 102.563 38.9631 102.547 38.3867C102.523 38.0288 102.487 37.6769 102.437 37.3234C102.39 37.0808 102.333 36.8411 102.27 36.6015C102.238 36.5029 102.202 36.4073 102.165 36.3102C102.003 35.9887 101.834 35.6838 101.789 35.3167C101.668 34.3475 102.426 33.445 103.385 33.3464C104.157 33.2645 104.854 33.6953 105.179 34.352C105.17 34.3293 105.161 34.3065 105.153 34.2823C106.081 35.9356 106.203 37.9271 106.118 39.7806C106.066 40.9516 105.866 42.115 105.64 43.2632C105.315 44.9271 104.967 46.5987 104.393 48.1958C104.148 48.8814 103.432 49.2682 102.731 49.2682C102.491 49.2712 102.252 49.2257 102.035 49.1317Z" fill="black"/>
<path d="M102.691 49.0691C102.318 48.7703 102.076 48.3289 102.026 47.8542C101.974 47.3703 102.129 46.9396 102.405 46.5482C102.421 46.5255 102.438 46.5012 102.455 46.4784C103.234 45.2893 103.89 44.0243 104.55 42.7653C105.381 41.1317 106.18 39.4875 106.813 37.7645C107.06 37.0409 107.278 36.3098 107.459 35.5666C107.551 35.1116 107.626 34.6565 107.677 34.1969C107.691 33.9603 107.697 33.7267 107.695 33.4901C107.682 33.2884 107.664 33.0882 107.639 32.888C107.594 32.6559 107.539 32.4284 107.475 32.2008V32.1993C107.333 31.7488 107.316 31.2923 107.506 30.8509C107.697 30.4095 108.065 30.0561 108.516 29.8862C109.39 29.5556 110.535 29.9954 110.828 30.9267C111.186 32.0628 111.336 33.1989 111.255 34.3881C111.149 35.9701 110.7 37.5369 110.166 39.0219C109.673 40.3931 109.074 41.7157 108.434 43.0232C107.965 43.9818 107.469 44.9298 106.963 45.8687C106.424 46.8683 105.868 47.8542 105.212 48.784C104.894 49.2345 104.364 49.4529 103.834 49.4529C103.423 49.4529 103.01 49.324 102.691 49.0691Z" fill="black"/>
<path d="M105.986 47.5619C105.393 47.5497 104.829 47.351 104.431 46.9005C103.941 46.3423 103.817 45.6431 104.082 44.9499C104.182 44.6875 104.349 44.4661 104.551 44.2734C104.982 43.8594 105.582 43.7092 106.139 43.8184C106.314 43.6986 106.482 43.5742 106.649 43.4438C107.089 43.06 107.506 42.655 107.909 42.2318C108.272 41.8223 108.637 41.4158 108.976 40.9865C109.384 40.4708 109.772 39.949 110.154 39.4166C110.753 38.5096 111.316 37.5935 111.829 36.6348C112.309 35.6732 112.76 34.6979 113.194 33.715C113.588 32.8216 114.651 32.3909 115.552 32.7822C116.443 33.1675 116.88 34.2474 116.485 35.1408C116.033 36.1631 115.563 37.1779 115.061 38.1774C114.504 39.2802 113.855 40.3176 113.172 41.346C112.457 42.429 111.628 43.4256 110.773 44.3978C109.936 45.3504 108.991 46.3075 107.889 46.9506C107.334 47.2752 106.697 47.5634 106.041 47.5634C106.022 47.5618 106.004 47.5619 105.986 47.5619Z" fill="black"/>
<path d="M104.736 89.6513C103.872 89.3874 103.046 88.99 102.264 88.5456C101.484 88.1011 100.792 87.4292 100.158 86.7997C99.4653 86.1126 99.5259 84.9249 100.218 84.2667C100.94 83.578 102.059 83.6357 102.752 84.3243C102.869 84.4411 102.986 84.5549 103.104 84.6671C103.359 84.8916 103.617 85.107 103.882 85.3163C104.061 85.4331 104.242 85.5438 104.427 85.6515C104.804 85.8335 105.187 85.9988 105.578 86.1551C105.863 86.2491 106.15 86.331 106.444 86.4008C106.588 86.4281 106.732 86.4493 106.878 86.466C107.075 86.4782 107.269 86.4827 107.465 86.4797C107.556 86.4706 107.645 86.46 107.736 86.4524C107.686 86.4615 107.635 86.4691 107.585 86.4782C107.589 86.4782 107.594 86.4782 107.6 86.4782C107.747 86.4554 107.893 86.4235 108.037 86.3856C108.119 86.3583 108.199 86.3265 108.279 86.2946C108.411 86.2294 108.539 86.1566 108.663 86.0777C108.645 86.0929 108.625 86.1081 108.607 86.1232C108.63 86.1065 108.651 86.0883 108.674 86.0701C108.7 86.0535 108.725 86.0368 108.751 86.0186C108.728 86.0322 108.707 86.0459 108.684 86.0595C108.795 85.9685 108.9 85.8729 109.001 85.7713C109.132 85.6196 109.253 85.4665 109.37 85.3057C109.485 85.1282 109.587 84.9447 109.678 84.7551C109.643 84.8248 109.607 84.8946 109.572 84.9644C109.62 84.8612 109.664 84.7566 109.705 84.6504C109.795 84.3819 109.872 84.112 109.94 83.8374C110.051 83.2853 110.122 82.7332 110.194 82.1735C110.244 81.4909 110.282 80.8129 110.301 80.1288C110.322 79.4175 110.306 78.7076 110.298 77.9962C110.221 76.2459 110.107 74.503 109.943 72.7572C109.789 71.1175 109.532 69.4916 109.274 67.8655C108.844 65.5722 108.387 63.2833 107.836 61.0157C107.539 59.7962 107.243 58.5767 106.919 57.3632C106.611 56.2044 106.277 55.0547 105.939 53.9034C105.581 52.7355 105.225 51.566 104.874 50.3951C104.639 49.6063 104.424 48.804 104.296 47.9909C104.155 47.0945 104.634 46.1207 105.511 45.8113C106.432 45.4867 107.472 45.9221 107.823 46.8518C107.941 47.1643 107.962 47.501 107.902 47.8211C108.132 48.9056 108.483 49.9734 108.801 51.0337C109.379 52.9145 109.946 54.7983 110.451 56.7004C110.961 58.6161 111.407 60.547 111.85 62.4779C112.279 64.3481 112.642 66.2365 112.942 68.1325C113.25 70.0664 113.527 72.0155 113.659 73.9706C113.778 75.7301 113.876 77.4851 113.895 79.2476C113.911 81.0101 113.823 82.8136 113.45 84.5382C113.362 84.9447 113.254 85.3421 113.118 85.7364C112.978 86.1429 112.796 86.5161 112.598 86.8983C112.366 87.3457 112.032 87.7538 111.698 88.1269C111.333 88.5365 110.913 88.8868 110.447 89.178C109.634 89.6862 108.759 89.9516 107.809 90.0502C107.618 90.0699 107.427 90.079 107.234 90.079C106.389 90.0775 105.534 89.897 104.736 89.6513Z" fill="black"/>
<path d="M66.381 95.1287C65.8137 95.1181 65.2464 95.106 64.6791 95.0938C64.2847 95.0863 63.8874 95.0939 63.4945 95.0635C62.1294 94.9589 60.7643 94.8694 59.4067 94.6934C58.1387 94.5296 56.8676 94.2884 55.6405 93.9305C54.4043 93.5695 53.2425 92.987 52.1398 92.3303C50.0041 91.0577 47.961 89.509 46.6732 87.3339C46.0362 86.257 45.6054 85.1073 45.3202 83.8893C45.0214 82.6212 44.9471 81.3031 44.9486 80.0048C44.9501 78.7337 45.0942 77.4611 45.3233 76.2113C45.5159 75.1586 45.7707 74.1029 46.0999 73.0836C46.4108 72.125 46.7036 71.1573 47.06 70.2138C47.7638 68.3558 48.4934 66.5113 49.2882 64.6897C50.0921 62.8528 50.9096 61.0054 51.8576 59.2338C52.4659 58.0977 53.0908 56.4292 54.6106 56.4292C55.589 56.4292 56.3838 57.3029 56.361 58.263C56.3504 58.7544 56.1396 59.1898 55.8104 59.5022C55.8074 59.5068 55.8028 59.5113 55.7998 59.5159C55.4964 59.9906 55.2431 60.4942 54.9792 60.9917C54.5575 61.8442 54.1389 62.6966 53.7339 63.5566C53.2652 64.5547 52.8223 65.5588 52.3809 66.569C51.6089 68.3345 50.9203 70.1335 50.2392 71.9339C49.7781 73.3582 49.3064 74.7703 48.9727 76.2325C48.8149 77.0045 48.6875 77.7781 48.6056 78.5623C48.5465 79.3268 48.5237 80.0882 48.5419 80.8542C48.5723 81.429 48.6284 81.9994 48.7133 82.5712C48.7952 83.002 48.8938 83.4236 49.0136 83.8453C49.1244 84.179 49.2518 84.5021 49.3928 84.8236C49.5157 85.0709 49.6461 85.312 49.7842 85.5502C49.9814 85.8475 50.1876 86.1341 50.4076 86.4163C50.6776 86.7287 50.9597 87.0245 51.2585 87.3097C51.6741 87.6767 52.1034 88.021 52.5523 88.3456C53.3213 88.8644 54.1146 89.3528 54.9337 89.7896C55.3432 89.9883 55.7588 90.1673 56.1851 90.3311C56.719 90.5131 57.259 90.6587 57.8111 90.7831C58.9229 91.0046 60.0392 91.1684 61.1662 91.2913C61.8609 91.3443 62.5556 91.3974 63.2488 91.452C63.8691 91.499 64.491 91.5021 65.1129 91.5157C65.6923 91.5279 66.2718 91.5521 66.8512 91.5339C67.5883 91.5112 68.324 91.4869 69.0627 91.4657C69.8893 91.3959 70.716 91.3277 71.5457 91.2579C71.9673 91.2215 72.392 91.1365 72.8107 91.0759C73.199 91.0198 73.5857 90.9636 73.974 90.9075C75.0464 90.6982 76.1203 90.498 77.1851 90.2492C78.4592 89.9504 79.7273 89.6364 80.9968 89.3088C83.2705 88.7263 85.5336 88.0938 87.789 87.4416C89.7639 86.8319 91.719 86.1842 93.612 85.3545C94.422 84.9677 95.2244 84.5643 95.9934 84.1032C96.2588 83.9211 96.5136 83.733 96.7624 83.5313C97.5572 82.8093 98.2655 81.9842 99.1089 81.3198C99.5912 80.9421 100.095 80.6176 100.689 80.4446C101.398 80.2384 102.106 80.2338 102.834 80.3476C103.696 80.4825 104.521 80.8724 105.273 81.2971C106.124 81.7749 106.382 82.9352 105.89 83.7573C105.378 84.6113 104.283 84.8525 103.432 84.3747C103.37 84.3398 103.309 84.3049 103.247 84.27C103.042 84.1714 102.834 84.0789 102.623 83.9955C102.491 83.953 102.358 83.9151 102.224 83.8802C102.162 83.8696 102.098 83.8605 102.035 83.8498C101.982 83.8468 101.927 83.8453 101.872 83.8453C101.836 83.8498 101.8 83.8559 101.763 83.8605C101.748 83.865 101.731 83.8696 101.716 83.8741C101.692 83.8847 101.669 83.8953 101.645 83.9044C101.621 83.9196 101.596 83.9333 101.571 83.9484C101.477 84.0137 101.386 84.0819 101.296 84.1532C100.653 84.7205 100.083 85.3621 99.4441 85.9339C99.0983 86.2464 98.7403 86.5406 98.3687 86.8212C97.9804 87.111 97.5481 87.3491 97.1279 87.5872C95.5201 88.4973 93.794 89.2208 92.0497 89.8215C88.3229 91.1062 84.5021 92.1103 80.6859 93.0887C79.7015 93.3404 78.711 93.571 77.719 93.8031C76.7801 94.023 75.8306 94.1914 74.8856 94.3779C73.9255 94.5675 72.9457 94.6737 71.9779 94.8132C71.5972 94.8678 71.2059 94.88 70.8237 94.9118C70.2685 94.9589 69.7118 95.0241 69.1552 95.0408C68.6713 95.0559 68.1905 95.0711 67.7066 95.0863C67.3153 95.0969 66.9179 95.1257 66.5251 95.1257C66.4765 95.1303 66.4295 95.1303 66.381 95.1287Z" fill="black"/>
<path d="M93.888 86.9302C93.706 86.3872 93.7333 85.8335 93.8106 85.2738C93.894 84.6747 94.0851 84.0862 94.2702 83.5113C94.4917 82.8273 94.7707 82.169 95.0877 81.5258C95.6793 80.3352 96.3543 79.1961 97.0414 78.0585C97.2674 77.6853 97.504 77.3122 97.7512 76.9512C97.9439 76.6706 98.1577 76.4279 98.3989 76.1867C98.6947 75.8909 99.086 75.718 99.4622 75.5542C99.7519 75.4283 100.125 75.3843 100.439 75.3813C100.861 75.3752 101.24 75.4299 101.649 75.5345C102.337 75.7059 102.96 76.1185 103.523 76.5356C104.22 77.0543 104.844 77.705 105.399 78.3709C105.875 78.9427 106.323 79.5313 106.737 80.1471C107.284 80.9571 107.146 82.0628 106.335 82.6513C105.564 83.2095 104.378 83.0593 103.832 82.2494C103.503 81.761 103.151 81.2907 102.787 80.8281C102.479 80.4686 102.158 80.1274 101.822 79.7906C101.613 79.6056 101.399 79.4281 101.176 79.2582C101.062 79.1854 100.946 79.1157 100.827 79.0489C100.783 79.0307 100.739 79.011 100.697 78.9913C99.943 80.1107 99.2832 81.2968 98.6188 82.4723C98.4641 82.7863 98.3079 83.1003 98.1517 83.4158C98.0091 83.7055 97.8984 84.0164 97.7801 84.3183C97.6314 84.7794 97.4873 85.2375 97.3766 85.7107C97.3614 85.7941 97.3463 85.876 97.3356 85.9595C97.3356 85.9852 97.3356 86.011 97.3356 86.0368C97.3387 86.058 97.3417 86.0793 97.3447 86.1005C97.3417 86.0884 97.3387 86.0747 97.3356 86.0611C97.3356 86.0762 97.3356 86.0929 97.3356 86.1081C97.4069 86.8983 96.9928 87.6734 96.2011 87.9722C96.0024 88.0481 95.7931 88.083 95.5822 88.083C94.8542 88.0814 94.1261 87.6507 93.888 86.9302Z" fill="black"/>
</svg>
