<svg width="260" height="260" viewBox="0 0 260 260" fill="none" xmlns="http://www.w3.org/2000/svg">
<path d="M125.449 103.394C124.929 103.378 124.411 103.359 123.893 103.342C123.411 103.326 122.925 103.242 122.447 103.19C121.938 103.135 121.427 103.08 120.915 103.024C120.446 102.974 119.974 102.859 119.509 102.776C119.043 102.693 118.579 102.613 118.115 102.53C116.751 102.29 115.399 101.896 114.084 101.473C111.606 100.671 109.213 99.5802 106.977 98.2438C105.859 97.5748 104.797 96.8038 103.759 96.0129C102.657 95.1763 101.622 94.2575 100.627 93.2975C98.6616 91.4019 96.9976 89.2091 95.5698 86.8868C94.1542 84.5813 93.1287 82.0593 92.5191 79.4247C91.9218 76.8448 91.905 74.1843 92.2525 71.5709C92.6014 68.9271 93.4776 66.3823 94.6205 63.9823C96.9138 59.164 100.33 54.8501 104.39 51.4017C106.063 49.9784 107.879 48.6679 109.811 47.615C110.713 47.1243 111.6 46.5986 112.539 46.1765C113.456 45.7651 114.363 45.3247 115.308 44.9788C115.902 44.7609 116.495 44.5445 117.089 44.3266C117.464 44.1894 117.851 44.0858 118.235 43.9731C118.814 43.8039 119.395 43.6348 119.975 43.4671C120.376 43.3498 120.79 43.2721 121.196 43.1791C121.68 43.0679 122.162 42.9551 122.645 42.8439C123.18 42.722 123.73 42.6443 124.271 42.5437C125.315 42.3517 126.36 42.2039 127.411 42.0561C127.759 42.0073 128.099 41.9723 128.448 41.9433C129.043 41.8961 129.642 41.8184 130.24 41.8077C130.746 41.8001 131.255 41.7925 131.76 41.7833C132.247 41.7757 132.73 41.8092 133.214 41.829C134.048 41.8656 134.877 41.9464 135.698 42.0896C136.222 42.1811 136.737 42.3197 137.248 42.4736C137.452 42.431 137.664 42.4264 137.877 42.4736C141.566 43.2675 145.265 44.1468 148.809 45.4527C150.563 46.1003 152.257 46.9095 153.897 47.807C154.73 48.2626 155.546 48.7533 156.326 49.2973C157.159 49.8778 157.952 50.4919 158.735 51.1411C160.292 52.4333 161.641 53.9617 162.907 55.5327C164.055 56.9575 165.07 58.5346 165.914 60.1575C166.388 61.0703 166.84 61.9907 167.224 62.9461C167.611 63.9107 167.922 64.889 168.189 65.8931C168.433 66.812 168.588 67.7507 168.679 68.697C168.737 69.2989 168.736 69.9084 168.757 70.5118C168.774 71.0208 168.748 71.5511 168.704 72.0601C168.663 72.5111 168.649 72.9728 168.582 73.4223C168.503 73.9374 168.445 74.4601 168.331 74.9675C168.23 75.417 168.157 75.8833 168.023 76.3222C167.87 76.8189 167.741 77.3294 167.555 77.814C167.387 78.2483 167.241 78.6993 167.047 79.1214C166.819 79.6167 166.607 80.1226 166.356 80.6041C166.123 81.0536 165.888 81.5016 165.655 81.9496C165.187 82.8471 164.62 83.6929 164.07 84.5401C163.575 85.3036 163.025 86.0456 162.432 86.7359C162.094 87.1306 161.769 87.5435 161.409 87.9199C161.004 88.3405 160.6 88.7611 160.195 89.1816C159.587 89.814 158.924 90.4053 158.266 90.9859C157.432 91.7173 156.588 92.4228 155.729 93.1207C155.005 93.7089 154.241 94.2453 153.49 94.7984C153.135 95.059 152.745 95.2845 152.375 95.5238C151.997 95.7691 151.622 96.0266 151.23 96.2537C150.348 96.7657 149.475 97.2853 148.564 97.7486C148.067 98.0015 147.569 98.256 147.07 98.5089C146.621 98.7375 146.145 98.9234 145.687 99.1291C145.248 99.3242 144.809 99.5208 144.37 99.7158C143.907 99.923 143.415 100.08 142.941 100.26C142.519 100.42 142.096 100.581 141.673 100.743C141.182 100.93 140.661 101.061 140.16 101.22C139.712 101.36 139.265 101.502 138.816 101.642C138.316 101.797 137.801 101.907 137.293 102.035C136.763 102.168 136.233 102.3 135.704 102.433C135.291 102.535 134.863 102.591 134.445 102.669C133.885 102.771 133.322 102.876 132.763 102.98C132.32 103.062 131.869 103.094 131.421 103.141C130.854 103.204 130.287 103.263 129.719 103.326C129.283 103.371 128.832 103.361 128.394 103.374C127.838 103.393 127.282 103.411 126.726 103.431C126.668 103.432 126.608 103.434 126.549 103.434C126.182 103.437 125.811 103.408 125.449 103.394ZM126.752 99.8346C127.207 99.8499 127.677 99.8057 128.132 99.7889C128.525 99.7752 128.919 99.763 129.312 99.7493C130.229 99.6503 131.148 99.5512 132.065 99.4522C132.983 99.283 133.9 99.1124 134.819 98.9432C135.311 98.8518 135.802 98.6964 136.288 98.5745C136.772 98.4541 137.257 98.3306 137.74 98.2103C138.442 97.9893 139.145 97.7684 139.847 97.5474C140.408 97.3722 140.951 97.1634 141.501 96.9531C142.097 96.7261 142.706 96.5204 143.29 96.2598C143.985 95.9504 144.681 95.6396 145.376 95.3303C146.107 94.96 146.836 94.5866 147.567 94.2148C147.872 94.0594 148.164 93.8704 148.46 93.6982C148.833 93.4819 149.205 93.2655 149.58 93.0491C150.449 92.4868 151.313 91.9291 152.146 91.3165C152.568 91.0072 152.998 90.707 153.403 90.3763C153.871 89.9954 154.34 89.6159 154.808 89.235C155.483 88.6422 156.161 88.0556 156.81 87.4354C157.51 86.7679 158.18 86.0853 158.849 85.3889C159.201 84.9759 159.553 84.5645 159.907 84.1515C160.076 83.9534 160.221 83.7279 160.375 83.5191C160.544 83.2921 160.713 83.065 160.882 82.8365C161.287 82.2148 161.694 81.5946 162.066 80.9515C162.453 80.2841 162.814 79.6105 163.171 78.9279C163.363 78.5073 163.556 78.0852 163.75 77.6646C163.918 77.2989 164.049 76.9104 164.189 76.5309C164.314 76.1225 164.439 75.7126 164.564 75.3043C164.692 74.8883 164.76 74.4433 164.855 74.0166C164.841 74.0776 164.827 74.1385 164.815 74.1995C164.884 73.75 164.952 73.3035 165.022 72.854C165.088 72.4151 165.102 71.961 165.141 71.5176C165.134 71.5953 165.129 71.6715 165.121 71.7461C165.132 71.3073 165.143 70.8684 165.153 70.4296C165.163 70.0837 165.138 69.7332 165.121 69.3857C165.083 68.9103 165.03 68.4395 164.958 67.9701C164.83 67.2905 164.655 66.6307 164.48 65.9633C164.359 65.6067 164.241 65.2486 164.12 64.8905C163.992 64.508 163.819 64.1332 163.668 63.7583C163.337 63.0497 162.993 62.3548 162.633 61.66C162.284 60.9926 161.882 60.3541 161.482 59.7141C160.824 58.7586 160.138 57.8367 159.413 56.9331C158.695 56.1179 157.955 55.3392 157.178 54.5803C156.69 54.1445 156.198 53.7194 155.695 53.3003C155.207 52.8981 154.685 52.5369 154.167 52.1758C153.321 51.6333 152.463 51.1289 151.584 50.6443C150.074 49.8763 148.539 49.1937 146.951 48.6039C144.317 47.7186 141.63 47.0115 138.924 46.3898C138.397 46.6169 137.775 46.5864 137.263 46.2832C137.167 46.242 137.071 46.2024 136.975 46.1658C136.439 45.9936 135.904 45.826 135.357 45.6934C134.829 45.5898 134.302 45.5167 133.767 45.4649C132.608 45.3765 131.453 45.3872 130.291 45.4054C129.973 45.4313 129.653 45.4573 129.333 45.4816C128.976 45.5091 128.614 45.5197 128.262 45.5685C127.465 45.6797 126.668 45.791 125.871 45.9022C125.229 46.0211 124.586 46.1399 123.945 46.2588C123.36 46.367 122.782 46.5056 122.203 46.6382C121.629 46.7708 121.056 46.8942 120.492 47.0588C119.841 47.2477 119.19 47.4382 118.54 47.6272C117.699 47.9334 116.861 48.2413 116.019 48.5491C115.622 48.6938 115.235 48.9026 114.848 49.0763C114.467 49.247 114.086 49.4192 113.703 49.5914C112.626 50.178 111.538 50.7464 110.491 51.3864C109.211 52.1971 107.989 53.0855 106.819 54.0485C105.667 55.0314 104.58 56.0783 103.55 57.1861C102.454 58.4006 101.441 59.676 100.501 61.0124C99.6978 62.1918 98.9588 63.4078 98.2928 64.6711C97.7458 65.7515 97.2567 66.8547 96.833 67.9884C96.5344 68.8433 96.2799 69.7042 96.0788 70.5865C95.9005 71.4703 95.7694 72.3603 95.6826 73.2593C95.6246 74.0349 95.6064 74.8075 95.6323 75.5862C95.6734 76.3084 95.7481 77.0246 95.8593 77.7393C96.0086 78.553 96.2037 79.353 96.4384 80.1469C96.7233 81.0338 97.057 81.8978 97.4365 82.7481C97.9012 83.7279 98.43 84.6651 99.0014 85.5854C99.6963 86.6628 100.454 87.6929 101.267 88.6834C102.072 89.6297 102.927 90.5226 103.833 91.3714C104.992 92.4182 106.215 93.3783 107.491 94.2773C108.495 94.96 109.531 95.5756 110.607 96.1348C111.87 96.7672 113.164 97.3219 114.493 97.8034C115.789 98.2499 117.106 98.6156 118.444 98.9158C119.433 99.1246 120.435 99.2769 121.43 99.4506C121.83 99.5207 122.246 99.5405 122.648 99.5847C123.11 99.635 123.57 99.6853 124.032 99.7341C124.937 99.7737 125.845 99.8042 126.752 99.8346Z" fill="#242424"/>
<path d="M127.607 173.227C123.69 173.064 119.765 172.841 115.866 172.439C113.871 172.232 111.888 171.979 109.917 171.604C109.048 171.439 108.166 171.255 107.343 170.93C106.901 170.755 106.409 170.56 106.045 170.243C105.629 169.882 105.286 169.496 105.06 168.988C104.809 168.424 104.748 167.808 104.72 167.199C104.696 166.682 104.693 166.173 104.714 165.658C104.795 163.843 104.955 162.028 105.074 160.216C105.196 158.31 105.321 156.404 105.447 154.496C105.696 150.728 105.993 146.961 106.282 143.194C106.579 139.336 106.858 135.476 107.129 131.616C107.405 127.672 107.689 123.727 108.024 119.79C108.376 115.66 108.749 111.532 109.13 107.404C109.277 105.815 109.424 104.225 109.572 102.636C109.644 101.874 109.714 101.112 109.784 100.35C109.821 99.9571 109.857 99.567 109.891 99.1739C109.92 98.8432 109.938 98.5003 110.064 98.1925C110.398 97.3681 111.369 96.9156 112.225 97.1609C113.12 97.4154 113.632 98.3022 113.501 99.1876C113.502 99.183 113.504 99.1769 113.505 99.1723C113.406 99.7651 113.392 100.384 113.336 100.981C113.263 101.772 113.19 102.561 113.117 103.351C112.978 104.833 112.839 106.318 112.704 107.802C112.413 110.974 112.126 114.145 111.843 117.318C111.523 121.082 111.209 124.847 110.945 128.616C110.662 132.686 110.377 136.757 110.072 140.824C109.789 144.596 109.478 148.363 109.216 152.136C108.95 155.91 108.719 159.688 108.467 163.464C108.397 164.532 108.295 165.6 108.297 166.67C108.309 166.93 108.324 167.191 108.35 167.45C108.445 167.494 108.542 167.535 108.64 167.573C109.156 167.74 109.676 167.877 110.205 167.996C111.25 168.194 112.294 168.392 113.351 168.523C114.608 168.68 115.862 168.821 117.123 168.949C120.277 169.213 123.433 169.413 126.595 169.579C129.728 169.743 132.858 169.727 135.991 169.617C138.593 169.493 141.2 169.352 143.793 169.076C146.377 168.803 148.946 168.451 151.508 168.02C151.471 168.026 151.433 168.032 151.396 168.04C152.585 167.834 153.799 167.665 154.964 167.34C155.008 167.324 155.052 167.307 155.096 167.29C155.13 167.273 155.163 167.255 155.197 167.238C155.218 167.218 155.238 167.199 155.259 167.179C155.271 167.165 155.284 167.15 155.297 167.136C155.293 167.144 155.287 167.151 155.282 167.159L155.288 167.153C155.323 167.1 155.357 167.045 155.389 166.988C155.46 166.833 155.526 166.676 155.587 166.516C155.668 166.251 155.739 165.987 155.805 165.717C155.95 164.995 156.03 164.271 156.111 163.54C156.213 161.78 156.268 160.018 156.245 158.254C156.221 156.312 156.164 154.374 156.09 152.434C156.093 152.512 156.096 152.588 156.097 152.664C155.759 144.936 155.281 137.204 154.328 129.524C153.834 125.527 153.275 121.537 152.719 117.548C152.189 113.74 151.715 109.927 151.288 106.106C150.849 102.162 150.444 98.2139 149.943 94.2763C149.819 93.3026 150.586 92.3959 151.546 92.2969C152.538 92.1933 153.402 92.9262 153.525 93.8999C153.981 97.4794 154.357 101.069 154.752 104.655C155.172 108.48 155.633 112.3 156.157 116.111C156.681 119.937 157.246 123.758 157.72 127.59C158.2 131.468 158.61 135.354 158.91 139.25C159.214 143.205 159.454 147.159 159.63 151.121C159.803 155.054 159.986 159.013 159.753 162.947C159.678 164.186 159.575 165.435 159.284 166.645C159.035 167.689 158.68 168.719 157.97 169.545C157.691 169.867 157.339 170.185 156.957 170.382C156.544 170.592 156.129 170.746 155.686 170.876C155.302 170.987 154.901 171.051 154.508 171.129C154.051 171.218 153.591 171.301 153.132 171.383C152.256 171.54 151.377 171.688 150.497 171.826C146.743 172.416 142.971 172.812 139.177 173.047C136.618 173.204 134.058 173.3 131.497 173.3C130.202 173.304 128.905 173.28 127.607 173.227Z" fill="#242424"/>
<path d="M107.434 217.071C106.602 216.745 105.88 216.166 105.275 215.52C104.556 214.751 104.01 213.781 103.722 212.768C103.151 210.758 103.462 208.369 105.129 206.955C106.119 206.115 107.474 206.013 108.72 206.004C109.488 205.998 110.249 206.153 110.995 206.31C111.742 206.467 112.484 206.673 113.2 206.94C114.48 207.412 115.657 208.127 116.929 208.616C116.938 208.619 116.947 208.622 116.958 208.625C117.011 208.302 117.045 207.977 117.077 207.651C117.368 204.044 117.623 200.434 117.904 196.826C118.208 192.952 118.546 189.082 118.916 185.213C119.322 180.992 119.692 176.765 120.193 172.553C120.309 171.578 121.298 170.901 122.244 171.045C123.238 171.195 123.869 172.122 123.753 173.096C123.381 176.213 123.096 179.343 122.793 182.469C122.485 185.653 122.182 188.84 121.9 192.029C121.901 192.003 121.904 191.977 121.906 191.951C121.903 191.995 121.898 192.04 121.895 192.082C121.892 192.116 121.889 192.148 121.886 192.181C121.888 192.157 121.891 192.131 121.892 192.107C121.581 195.851 121.296 199.598 121.011 203.343C120.943 204.242 120.874 205.14 120.807 206.037C120.734 206.987 120.687 207.944 120.559 208.887C120.51 209.25 120.445 209.609 120.318 209.952C120.135 210.446 119.878 210.876 119.561 211.293C119.419 211.481 119.256 211.645 119.076 211.787C119.101 212.14 119.023 212.503 118.828 212.823C118.095 214.025 117.17 215.081 116.019 215.898C114.508 216.969 112.716 217.468 110.886 217.574C110.691 217.586 110.496 217.593 110.304 217.593C109.324 217.593 108.37 217.437 107.434 217.071ZM110.541 213.992C110.887 213.969 111.232 213.938 111.576 213.891C111.885 213.832 112.192 213.76 112.495 213.675C112.694 213.608 112.89 213.532 113.083 213.449C113.301 213.343 113.516 213.227 113.725 213.103C113.942 212.96 114.153 212.808 114.357 212.645C114.538 212.485 114.712 212.319 114.878 212.143C114.977 212.031 115.073 211.915 115.168 211.797C114.871 211.669 114.581 211.534 114.298 211.4C113.456 211.001 112.626 210.575 111.757 210.24C111.273 210.092 110.787 209.955 110.293 209.836C109.909 209.757 109.526 209.684 109.139 209.631C108.896 209.615 108.653 209.606 108.408 209.606C108.176 209.621 107.946 209.64 107.716 209.667C107.619 209.685 107.523 209.704 107.425 209.724C107.418 209.73 107.411 209.737 107.404 209.743C107.376 209.777 107.349 209.81 107.323 209.844C107.29 209.9 107.256 209.958 107.222 210.015C107.201 210.06 107.181 210.106 107.163 210.153C107.142 210.225 107.12 210.295 107.101 210.365C107.084 210.453 107.07 210.543 107.061 210.633C107.055 210.74 107.052 210.847 107.052 210.955C107.064 211.133 107.082 211.308 107.108 211.484C107.13 211.586 107.155 211.686 107.183 211.787C107.221 211.901 107.262 212.014 107.308 212.125C107.381 212.277 107.459 212.425 107.541 212.573C107.631 212.707 107.725 212.837 107.823 212.965C107.923 213.077 108.026 213.186 108.131 213.292C108.233 213.379 108.336 213.463 108.443 213.544C108.502 213.582 108.565 213.618 108.627 213.653C108.739 213.707 108.851 213.756 108.966 213.803C109.088 213.841 109.21 213.876 109.333 213.906C109.475 213.932 109.615 213.954 109.758 213.973C110.023 213.992 110.281 213.996 110.541 213.992Z" fill="#242424"/>
<path d="M149.091 215.687C148.125 215.477 147.215 215.166 146.337 214.712C144.693 213.857 143.412 212.457 142.508 210.855C142.295 210.478 142.247 210.046 142.336 209.642C141.959 209.233 141.74 208.702 141.662 208.154C141.514 207.118 141.525 206.057 141.488 205.012C141.459 204.122 141.432 203.233 141.408 202.343C141.298 198.503 141.213 194.662 141.141 190.82C141.062 186.487 140.987 182.153 140.823 177.822C140.762 176.548 140.663 175.27 140.643 173.994C140.629 173.011 141.531 172.213 142.485 172.236C143.494 172.259 144.23 173.097 144.245 174.078C144.245 174.093 144.245 174.11 144.245 174.125C144.329 175.951 144.432 177.778 144.487 179.603C144.551 181.679 144.603 183.754 144.647 185.83C144.728 189.588 144.783 193.344 144.87 197.1C144.94 200.167 145.016 203.236 145.129 206.305C145.647 206.025 146.16 205.735 146.691 205.478C147.485 205.094 148.304 204.789 149.168 204.602C150.192 204.381 151.277 204.375 152.314 204.509C152.608 204.547 152.9 204.585 153.193 204.621C153.732 204.692 154.241 204.842 154.75 205.024C155.741 205.379 156.641 206.037 157.367 206.787C157.952 207.393 158.421 208.183 158.624 209.002C158.839 209.876 158.82 210.738 158.573 211.602C158.089 213.294 156.597 214.685 155 215.339C154.453 215.563 153.868 215.744 153.28 215.826C152.753 215.902 152.23 215.933 151.696 215.95C151.607 215.953 151.517 215.954 151.427 215.954C150.648 215.954 149.85 215.852 149.091 215.687ZM152.044 212.34C152.288 212.32 152.527 212.295 152.769 212.262C152.97 212.216 153.167 212.166 153.364 212.11C153.463 212.076 153.559 212.038 153.656 211.998C153.773 211.942 153.889 211.883 154.004 211.819C154.156 211.716 154.302 211.61 154.445 211.497C154.543 211.41 154.636 211.32 154.727 211.229C154.799 211.143 154.866 211.058 154.932 210.97C154.967 210.915 154.999 210.86 155.031 210.804C155.055 210.753 155.076 210.703 155.098 210.651C155.124 210.569 155.148 210.485 155.169 210.401C155.175 210.366 155.18 210.331 155.185 210.296C155.186 210.257 155.188 210.217 155.186 210.177C155.183 210.13 155.177 210.084 155.171 210.037C155.16 209.982 155.146 209.927 155.131 209.873C155.119 209.839 155.107 209.806 155.093 209.772C155.049 209.685 155.002 209.598 154.953 209.515C154.919 209.466 154.883 209.417 154.846 209.37C154.752 209.265 154.656 209.164 154.555 209.067C154.441 208.971 154.324 208.878 154.203 208.789C154.058 208.696 153.912 208.611 153.763 208.527C153.591 208.448 153.418 208.373 153.243 208.306C153.179 208.289 153.115 208.271 153.051 208.253C152.557 208.157 152.053 208.097 151.552 208.047C151.271 208.032 150.992 208.024 150.714 208.03C150.509 208.046 150.308 208.065 150.106 208.091C149.871 208.137 149.641 208.19 149.411 208.254C149.094 208.362 148.784 208.483 148.477 208.615C147.684 209.004 146.918 209.44 146.135 209.848C146.212 209.955 146.293 210.062 146.375 210.167C146.583 210.404 146.802 210.631 147.031 210.851C147.152 210.954 147.276 211.057 147.402 211.153C147.664 211.322 147.933 211.482 148.207 211.63C148.419 211.726 148.631 211.814 148.847 211.896C149.089 211.977 149.333 212.049 149.581 212.114C150.051 212.209 150.52 212.282 150.997 212.331C151.346 212.344 151.692 212.347 152.044 212.34Z" fill="#242424"/>
<path d="M91.774 126.373C90.4147 126.204 89.092 125.797 87.8181 125.305C85.3983 124.373 83.2741 122.832 81.4516 121.003C80.6714 120.223 79.9873 119.349 79.3137 118.477C78.7057 117.691 78.1739 116.853 77.6482 116.01C76.6882 114.472 75.8851 112.834 75.1034 111.202C74.3278 109.587 73.6314 107.934 72.9213 106.289C72.775 105.948 72.6287 105.607 72.4809 105.265C72.3407 105.278 72.2005 105.293 72.0603 105.314C71.9262 105.342 71.7937 105.374 71.6626 105.41C71.3411 105.515 71.0272 105.637 70.7179 105.77C70.183 106.027 69.6756 106.32 69.1666 106.626C68.5114 107.076 67.8683 107.536 67.2375 108.019C66.5914 108.596 65.9834 109.203 65.3921 109.837C64.8938 110.389 64.4047 110.946 63.9353 111.524C63.3182 112.286 62.1784 112.427 61.4058 111.81C60.6439 111.202 60.4991 110.041 61.1178 109.279C62.1936 107.953 63.3456 106.651 64.6287 105.521C65.2413 104.98 65.9041 104.497 66.5761 104.036C67.3883 103.481 68.2188 102.969 69.1087 102.552C69.9681 102.148 70.8459 101.867 71.783 101.713C72.1396 101.654 72.519 101.649 72.8802 101.675C73.3434 101.709 73.7655 101.84 74.183 102.041C74.8459 102.363 75.3289 102.849 75.6383 103.515C75.815 103.892 75.975 104.28 76.1411 104.665C76.7385 106.05 77.3388 107.435 77.959 108.811C78.4543 109.875 78.9709 110.926 79.5072 111.97C80.033 112.991 80.6196 113.973 81.2246 114.948C81.4897 115.329 81.7564 115.711 82.0231 116.095C82.2928 116.482 82.5991 116.848 82.8901 117.22C83.4692 117.875 84.0421 118.521 84.6791 119.123C85.1804 119.571 85.6985 119.995 86.244 120.391C86.7728 120.749 87.3153 121.078 87.8776 121.38C88.4764 121.675 89.0829 121.939 89.7077 122.172C90.2639 122.36 90.8231 122.521 91.3945 122.652C91.8883 122.75 92.382 122.824 92.8818 122.878C93.3328 122.908 93.7824 122.919 94.2334 122.91C94.5854 122.887 94.9313 122.852 95.2787 122.798C95.5149 122.748 95.7466 122.695 95.9797 122.631C96.193 122.559 96.4018 122.483 96.6121 122.399C96.8909 122.265 97.1607 122.12 97.4273 121.963C97.7016 121.778 97.9652 121.581 98.2243 121.374C98.5732 121.064 98.9039 120.741 99.2254 120.403C99.8365 119.717 100.411 118.995 100.947 118.248C101.43 117.537 101.871 116.801 102.282 116.045C102.578 115.461 102.886 114.882 103.151 114.283C103.477 113.55 103.806 112.822 104.109 112.078C104.707 110.619 105.276 109.15 105.846 107.681C106.419 106.203 106.995 104.729 107.62 103.274C107.958 102.488 108.307 101.706 108.664 100.927C108.972 100.258 109.299 99.5801 109.708 98.9675C110.095 98.3915 110.72 97.9267 111.446 97.9786C111.844 98.0075 112.21 98.1172 112.527 98.3717C112.889 98.6612 113.164 99.1199 113.196 99.5923C113.202 99.6776 113.206 99.766 113.206 99.8513C113.206 100.372 112.96 100.84 112.583 101.163C112.477 101.343 112.377 101.528 112.281 101.713C110.52 105.281 109.237 109.052 107.734 112.728C106.872 114.837 105.961 116.924 104.81 118.896C104.335 119.71 103.795 120.501 103.207 121.237C102.753 121.805 102.307 122.373 101.808 122.905C100.969 123.803 100.053 124.572 99.006 125.215C97.9393 125.867 96.7264 126.207 95.5043 126.407C94.9862 126.492 94.4574 126.526 93.9286 126.526C93.2063 126.526 92.481 126.462 91.774 126.373Z" fill="#242424"/>
<path d="M65.2276 113.653C64.4413 113.026 64.3529 111.91 64.9411 111.122C65.5186 110.348 66.1129 109.589 66.7225 108.841C67.2954 108.14 67.9095 107.478 68.5251 106.815C68.8208 106.495 69.1575 106.21 69.4699 105.909C69.8234 105.572 70.2135 105.269 70.596 104.967C71.0013 104.649 71.4341 104.362 71.8988 104.138C72.6303 103.781 73.4532 103.66 74.1831 104.073C74.7728 104.406 75.1141 105.026 75.1141 105.698C75.1141 106.666 74.2593 107.458 73.3099 107.458C73.3023 107.463 73.2962 107.466 73.2886 107.471C72.9686 107.685 72.6623 107.919 72.3636 108.159C71.6429 108.78 70.9846 109.453 70.3369 110.146C69.4425 111.192 68.58 112.258 67.7586 113.362C67.4249 113.81 66.8931 114.034 66.3582 114.035C65.956 114.038 65.5506 113.91 65.2276 113.653Z" fill="#242424"/>
<path d="M71.722 117.221C70.7483 117.074 70.0687 116.14 70.2119 115.17C70.4253 113.743 70.6493 112.315 70.8763 110.888C71.114 109.394 71.3883 107.9 71.5819 106.401C71.5849 106.372 71.5864 106.344 71.5895 106.315C71.6718 105.427 72.5556 104.766 73.412 104.786C74.375 104.808 75.2192 105.647 75.1704 106.628C75.1659 106.709 75.1598 106.789 75.1522 106.869C75.1506 106.911 75.1476 106.955 75.1461 106.998C75.14 107.14 75.1171 107.279 75.0805 107.411C75.0485 107.612 75.0135 107.812 74.9815 108.012C74.9236 108.382 74.8641 108.754 74.8062 109.122C74.6904 109.84 74.5761 110.556 74.4619 111.274C74.2272 112.752 73.9925 114.229 73.7731 115.71C73.6421 116.592 72.8527 117.24 71.9841 117.24C71.8973 117.24 71.8089 117.234 71.722 117.221Z" fill="#242424"/>
<path d="M166.013 122.584C164.81 122.578 163.617 122.389 162.465 122.048C161.386 121.729 160.358 121.242 159.39 120.672C158.349 120.056 157.405 119.247 156.653 118.298C155.725 117.131 155.037 115.774 154.439 114.414C154.051 113.527 153.665 112.64 153.325 111.733C152.967 110.775 152.628 109.816 152.298 108.849C151.96 107.857 151.704 106.837 151.454 105.822C151.218 104.868 151.072 103.889 150.915 102.918C150.765 101.991 150.642 101.062 150.54 100.129C150.418 99.0062 150.275 97.874 150.247 96.7433C150.223 95.7605 151.143 94.962 152.09 94.9849C152.565 94.9955 153.022 95.1967 153.35 95.5411C153.668 95.8732 153.816 96.2847 153.844 96.7312C153.844 96.7175 153.842 96.7022 153.842 96.6885C153.976 98.9209 154.272 101.138 154.625 103.345C154.773 104.103 154.924 104.855 155.11 105.606C155.273 106.272 155.471 106.924 155.669 107.579C156.009 108.576 156.361 109.563 156.73 110.549C157.066 111.45 157.455 112.332 157.842 113.211C158.197 113.937 158.549 114.656 158.967 115.346C159.139 115.61 159.322 115.864 159.515 116.114C159.706 116.334 159.902 116.544 160.112 116.745C160.344 116.945 160.58 117.132 160.827 117.312C161.173 117.537 161.524 117.746 161.886 117.94C162.269 118.124 162.656 118.293 163.052 118.447C163.422 118.574 163.794 118.683 164.175 118.776C164.557 118.849 164.94 118.906 165.325 118.947C165.818 118.977 166.307 118.985 166.799 118.97C167.294 118.939 167.783 118.891 168.273 118.816C168.647 118.743 169.015 118.656 169.382 118.555C169.824 118.412 170.257 118.25 170.686 118.066C171.2 117.824 171.695 117.556 172.18 117.26C172.692 116.925 173.181 116.564 173.653 116.177C174.334 115.584 174.951 114.942 175.579 114.295C176.654 113.109 177.714 111.91 178.705 110.654C179.724 109.365 180.666 108.018 181.603 106.669C181.557 106.733 181.511 106.801 181.466 106.865C182.363 105.554 183.239 104.234 184.039 102.861C184.411 102.225 184.768 101.58 185.12 100.932C185.295 100.609 185.536 100.288 185.838 100.07C186.212 99.7971 186.636 99.7224 187.09 99.7316C187.564 99.7422 188.023 99.9449 188.35 100.289C188.672 100.628 188.849 101.027 188.999 101.461C189.176 101.979 189.259 102.534 189.365 103.069C189.443 103.456 189.502 103.846 189.571 104.234C189.717 105.077 189.867 105.92 190.043 106.756C190.392 108.407 190.819 110.037 191.313 111.651C191.599 112.59 190.884 113.606 189.978 113.821C189.524 113.927 189.035 113.853 188.635 113.614C188.203 113.353 187.953 112.955 187.808 112.483C187.329 110.921 186.91 109.342 186.571 107.744C186.459 107.217 186.359 106.688 186.261 106.159C186.068 106.467 185.87 106.773 185.668 107.075C184.599 108.676 183.497 110.253 182.36 111.806C181.213 113.373 179.933 114.845 178.63 116.282C177.77 117.23 176.888 118.162 175.902 118.98C174.001 120.561 171.794 121.731 169.371 122.267C168.301 122.503 167.197 122.578 166.103 122.578C166.074 122.584 166.043 122.584 166.013 122.584Z" fill="#242424"/>
<path d="M190.843 111.327C189.989 109.971 189.17 108.594 188.392 107.19C188.003 106.489 187.66 105.764 187.325 105.034C187.145 104.641 186.991 104.239 186.845 103.833C186.606 103.172 186.47 102.477 186.863 101.839C187.378 101.002 188.486 100.708 189.335 101.218C189.781 101.487 190.075 101.938 190.171 102.427C190.295 102.792 190.435 103.151 190.581 103.509C191.473 105.426 192.541 107.25 193.655 109.045C193.69 109.101 193.727 109.157 193.762 109.214C194.019 109.621 194.158 110.055 194.082 110.541C194.01 111.015 193.745 111.449 193.358 111.73C193.051 111.952 192.667 112.063 192.283 112.063C191.721 112.065 191.156 111.821 190.843 111.327Z" fill="#242424"/>
<path d="M194.976 109.23C193.972 108.421 192.984 107.589 192.004 106.754C191.499 106.323 191 105.881 190.508 105.433C189.857 104.843 189.213 104.244 188.501 103.728C188.451 103.697 188.401 103.665 188.349 103.635C187.881 103.671 187.462 103.518 187.084 103.248C186.545 102.864 186.347 102.167 186.418 101.538C186.491 100.903 186.976 100.351 187.561 100.126C189.137 99.5175 190.731 100.794 191.832 101.785C192.456 102.346 193.073 102.913 193.704 103.466C194.852 104.475 196.029 105.454 197.22 106.413C197.984 107.028 198.123 108.173 197.508 108.942C197.156 109.383 196.622 109.616 196.087 109.616C195.694 109.614 195.3 109.489 194.976 109.23Z" fill="#242424"/>
<path d="M196.724 104.291C194.699 103.678 192.646 103.15 190.589 102.656C189.638 102.467 188.692 102.308 187.729 102.191C187.684 102.188 187.642 102.187 187.598 102.183C187.419 102.237 187.232 102.26 187.038 102.244C186.822 102.226 186.66 102.208 186.447 102.155C185.367 101.886 184.747 100.44 185.399 99.4985C185.641 99.1481 185.917 98.8661 186.324 98.7122C186.75 98.5522 187.189 98.566 187.636 98.5766C188.168 98.5888 188.719 98.6665 189.243 98.7519C190.287 98.921 191.317 99.1298 192.346 99.3751C194.147 99.8063 195.945 100.291 197.717 100.829C198.657 101.115 199.224 102.104 198.953 103.058C198.732 103.831 197.993 104.364 197.213 104.364C197.05 104.363 196.885 104.34 196.724 104.291Z" fill="#242424"/>
<path d="M71.8242 105.459C70.7499 105.131 69.6558 104.888 68.5602 104.642C67.0028 104.307 65.4409 103.998 63.8729 103.725C62.9068 103.556 62.2135 102.658 62.3628 101.674C62.5076 100.718 63.4478 99.9946 64.4139 100.164C65.8082 100.408 67.1979 100.668 68.5815 100.968C70.0017 101.278 71.428 101.573 72.8177 101.997C73.7564 102.283 74.3248 103.272 74.052 104.226C73.8326 104.997 73.0935 105.534 72.3133 105.534C72.1503 105.532 71.9857 105.509 71.8242 105.459Z" fill="#242424"/>
<path d="M121.721 73.5838C121.443 72.2002 121.251 70.8013 121.066 69.404C120.886 68.0599 120.762 66.7038 120.702 65.3491C120.635 63.8298 120.583 62.3091 120.606 60.7883C120.617 60.0432 120.644 59.3071 120.682 58.5635C120.713 57.9738 120.731 57.3384 120.969 56.7898C121.174 56.3159 121.555 55.9852 122.022 55.7826C122.922 55.394 124.01 55.9426 124.346 56.8279C124.513 57.2713 124.492 57.7239 124.33 58.1201C124.304 58.2999 124.286 58.4797 124.275 58.6611C124.282 58.5849 124.288 58.5071 124.295 58.4325C124.246 59.3574 124.214 60.2763 124.202 61.2013C124.19 62.0333 124.213 62.8668 124.228 63.6973C124.291 65.1083 124.347 66.5255 124.515 67.9289C124.673 69.2485 124.85 70.5651 125.062 71.8771C125.114 72.1697 125.167 72.4608 125.226 72.7533C125.42 73.7149 124.87 74.6901 123.891 74.9232C123.76 74.9537 123.628 74.9689 123.495 74.9689C122.683 74.9659 121.888 74.4112 121.721 73.5838Z" fill="#242424"/>
<path d="M131.12 75.3375C130.829 72.3843 130.637 69.4159 130.493 66.4506C130.419 64.9466 130.36 63.441 130.293 61.9355C130.262 61.2528 130.223 60.5671 130.165 59.8844C130.131 59.4913 130.101 59.0981 130.064 58.705C130.042 58.4917 130.017 58.2768 130.003 58.0635C129.982 57.7389 130.031 57.4616 130.142 57.1568C130.477 56.2319 131.652 55.8478 132.512 56.2197C132.954 56.4117 133.309 56.7819 133.479 57.2345C133.537 57.3869 133.571 57.5408 133.584 57.6932C133.584 57.6901 133.586 57.6871 133.586 57.6871C133.63 58.356 133.72 59.0204 133.761 59.6894C133.805 60.3903 133.854 61.0928 133.886 61.7938C133.955 63.3237 134.016 64.8521 134.09 66.382C134.23 69.2422 134.421 72.11 134.703 74.9611C134.8 75.9378 134.081 76.8384 133.1 76.9405C133.039 76.9466 132.978 76.9497 132.918 76.9497C132.018 76.9497 131.212 76.2533 131.12 75.3375Z" fill="#242424"/>
<path d="M109.068 62.76C108.12 62.6167 107.381 61.6735 107.558 60.7089C107.649 60.2045 107.919 59.7474 108.349 59.4563C108.725 59.2003 109.127 59.019 109.542 58.8331C110.278 58.507 111.02 58.19 111.754 57.8609C113.207 57.2102 114.68 56.6083 116.155 56.014C118.889 54.9184 121.734 54.1352 124.498 53.1218C125.418 52.7835 126.471 53.2422 126.822 54.1672C127.166 55.0754 126.698 56.1527 125.777 56.4895C123.319 57.39 120.795 58.1032 118.346 59.0327C115.76 60.0125 113.225 61.1295 110.698 62.2556C110.615 62.2967 110.532 62.3379 110.451 62.3805C110.144 62.6305 109.755 62.7798 109.338 62.7798C109.249 62.7798 109.159 62.7737 109.068 62.76Z" fill="#242424"/>
<path d="M145.757 63.0801C143.366 62.7205 140.973 62.3502 138.593 61.9281C137.12 61.666 135.64 61.311 134.23 60.8066C132.835 60.3083 131.474 59.65 130.313 58.7174C129.753 58.2679 129.327 57.7254 128.95 57.119C128.659 56.6481 128.612 56.0797 128.729 55.551C128.885 54.8439 129.581 54.3395 130.272 54.2557C130.349 54.2466 130.427 54.2466 130.505 54.2466C131.277 54.2466 131.936 54.7891 132.172 55.4885C132.207 55.5342 132.242 55.5799 132.277 55.6256C132.327 55.6805 132.381 55.7353 132.434 55.7887C132.586 55.9197 132.74 56.0432 132.9 56.1651C133.206 56.3677 133.519 56.5536 133.843 56.7289C134.343 56.9757 134.854 57.1952 135.373 57.3963C136.214 57.6874 137.068 57.9037 137.93 58.1201C140.702 58.6839 143.501 59.0984 146.298 59.519C147.268 59.6653 147.954 60.6024 147.808 61.57C147.674 62.4539 146.889 63.1 146.019 63.1C145.933 63.1 145.845 63.0939 145.757 63.0801Z" fill="#242424"/>
<path d="M131.724 96.9046C131.309 96.3302 130.87 95.777 130.421 95.23C130.131 94.9008 129.836 94.5823 129.522 94.2776C129.327 94.1069 129.129 93.9469 128.923 93.7899C128.725 93.6604 128.525 93.54 128.32 93.4258C128.088 93.3176 127.858 93.22 127.622 93.1286C127.364 93.0448 127.105 92.9732 126.843 92.9061C126.511 92.8406 126.179 92.7903 125.842 92.7538C125.539 92.737 125.237 92.7324 124.932 92.74C124.658 92.7599 124.387 92.7888 124.115 92.8299C123.861 92.8802 123.609 92.9381 123.36 93.0052C123.196 93.06 123.036 93.1164 122.878 93.1819C122.838 93.2018 122.799 93.2231 122.761 93.2444C122.755 93.249 122.748 93.252 122.744 93.2566C122.747 93.2536 122.75 93.252 122.753 93.249C122.738 93.2581 122.723 93.2658 122.707 93.2749C122.459 93.4562 122.177 93.5751 121.852 93.6101C121.385 93.6589 120.908 93.5218 120.54 93.2292C119.806 92.644 119.599 91.4311 120.254 90.6981C120.658 90.2471 121.182 89.9896 121.735 89.7579C122.643 89.38 123.666 89.22 124.641 89.1545C126.627 89.0219 128.597 89.4882 130.342 90.4269C131.485 91.041 132.429 92.0162 133.252 93.0082C133.735 93.5903 134.206 94.1816 134.648 94.7972C135.222 95.5941 135.041 96.734 134.244 97.3115C133.932 97.5385 133.565 97.6467 133.197 97.6467C132.629 97.6452 132.071 97.3877 131.724 96.9046Z" fill="#242424"/>
</svg>
