<svg width="22" height="22" viewBox="0 0 22 22" fill="none" xmlns="http://www.w3.org/2000/svg">
<path d="M17.616 4.38739C15.7898 2.56115 14.0012 2.51408 12.1279 4.38739L10.9888 5.52644C10.8947 5.62058 10.8571 5.7712 10.8947 5.90299C11.6101 8.3976 13.6058 10.3933 16.1005 11.1087C16.1381 11.1181 16.1758 11.1275 16.2134 11.1275C16.317 11.1275 16.4111 11.0899 16.4864 11.0146L17.616 9.87554C18.548 8.95301 18.9999 8.05871 18.9999 7.155C19.0093 6.22305 18.5574 5.31934 17.616 4.38739Z" fill="white"/>
<path d="M14.4057 11.9646C14.1327 11.8328 13.8691 11.701 13.615 11.5504C13.4079 11.428 13.2102 11.2962 13.0125 11.155C12.8525 11.0515 12.6642 10.9009 12.4853 10.7502C12.4665 10.7408 12.4006 10.6843 12.3253 10.609C12.0147 10.3454 11.6663 10.0065 11.3557 9.63C11.3275 9.61117 11.2804 9.54528 11.2145 9.46055C11.1204 9.34759 10.9603 9.15932 10.8191 8.9428C10.7062 8.8016 10.5744 8.5945 10.452 8.3874C10.3014 8.13323 10.1696 7.87906 10.0378 7.61548C10.0178 7.57275 9.99853 7.53023 9.97989 7.48796C9.84095 7.17419 9.43174 7.08245 9.18915 7.3251L3.79656 12.7177C3.67418 12.8401 3.56122 13.0754 3.53298 13.2354L3.02464 16.8409C2.93051 17.481 3.10937 18.0835 3.50474 18.4883C3.84363 18.8177 4.31431 18.9966 4.82265 18.9966C4.93561 18.9966 5.04858 18.9872 5.16154 18.9683L8.77638 18.46C8.94582 18.4318 9.18114 18.3188 9.29411 18.1964L14.6799 12.8106C14.9243 12.5662 14.8322 12.1469 14.5143 12.0113C14.4786 11.996 14.4423 11.9804 14.4057 11.9646Z" fill="white"/>
</svg>
