<svg width="14" height="14" viewBox="0 0 14 14" fill="none" xmlns="http://www.w3.org/2000/svg">
<path d="M8.84377 5.66377L9.32514 6.14513L3.91749 11.5221C3.5761 11.8634 3.28933 12.128 3.05718 12.3158C2.82503 12.5036 2.62703 12.6418 2.46316 12.7306C2.3027 12.8193 2.15761 12.8825 2.02788 12.9201C1.90157 12.961 1.77184 12.9986 1.6387 13.0327C1.50555 13.0703 1.35363 13.13 1.18294 13.2119C1.01224 13.2939 0.802285 13.4253 0.553069 13.6063L1.39764e-05 13.0173C0.184366 12.7613 0.319215 12.5462 0.404563 12.3721C0.493325 12.2014 0.559897 12.0529 0.604278 11.9266C0.648659 11.8003 0.69304 11.6757 0.737421 11.5528C0.785216 11.4333 0.856908 11.2967 0.952498 11.1431C1.04809 10.9895 1.18977 10.8 1.37753 10.5747C1.56871 10.3528 1.83158 10.0746 2.16615 9.73999L7.54819 4.35794L8.05004 4.85467L5.10041 7.81966C4.96044 7.96646 4.87851 8.11155 4.85461 8.25493C4.83412 8.3949 4.89216 8.53829 5.02872 8.68509C5.16186 8.82506 5.30354 8.88139 5.45375 8.85407C5.60738 8.82676 5.74735 8.74995 5.87366 8.62363L8.84377 5.66377ZM10.293 6.85181C10.1052 7.04982 9.92428 7.13858 9.75017 7.1181C9.57947 7.09761 9.40878 7.00373 9.23808 6.83645L6.85687 4.45524C6.68959 4.28454 6.59571 4.11385 6.57522 3.94315C6.55474 3.76904 6.6435 3.5881 6.84151 3.40034L7.02586 3.23135C7.18973 3.07772 7.36384 2.9992 7.54819 2.99579C7.73254 2.99237 7.90665 3.07431 8.07052 3.24159L8.27024 3.4413C8.49555 3.19209 8.67991 2.93775 8.82329 2.67829C8.96667 2.41884 9.09299 2.16621 9.20224 1.9204C9.31489 1.67119 9.43097 1.43733 9.55046 1.21884C9.67336 1.00035 9.82186 0.805758 9.99597 0.635062C10.2452 0.396088 10.5098 0.230512 10.7897 0.138337C11.0731 0.0461608 11.353 0.0120216 11.6295 0.035919C11.9095 0.0564026 12.1706 0.122974 12.413 0.235633C12.6554 0.348293 12.862 0.48997 13.0327 0.660666C13.2033 0.831362 13.345 1.03961 13.4577 1.28541C13.5703 1.5278 13.6386 1.78897 13.6625 2.06891C13.6864 2.34885 13.6523 2.62879 13.5601 2.90873C13.4679 3.18867 13.3006 3.45155 13.0583 3.69735C12.8876 3.87146 12.6913 4.01826 12.4694 4.13774C12.2509 4.25723 12.017 4.3733 11.7678 4.48596C11.522 4.59862 11.2694 4.72665 11.0099 4.87003C10.7539 5.01341 10.5012 5.19777 10.252 5.42308L10.4517 5.6228C10.619 5.78667 10.7009 5.96078 10.6975 6.14513C10.6941 6.32948 10.6156 6.50359 10.462 6.66746L10.293 6.85181Z" fill="#007AFF"/>
</svg>
