<svg width="16" height="17" viewBox="0 0 16 17" fill="none" xmlns="http://www.w3.org/2000/svg">
<path d="M14.4136 5.47457L13.5854 5.47712L13.5828 4.11367C13.5828 3.96076 13.5854 3.80361 13.5905 3.6422C13.5973 3.4791 13.6049 3.31684 13.6134 3.15544C13.5403 3.23529 13.4656 3.31684 13.3891 3.40009C13.3127 3.47995 13.2371 3.55725 13.1623 3.63201L10.9018 5.89252L10.3004 5.29108L12.5609 3.03056C12.6356 2.95581 12.7138 2.88105 12.7953 2.80629C12.8752 2.72984 12.955 2.65508 13.0349 2.58203C12.8735 2.59052 12.7129 2.59817 12.5532 2.60496C12.3918 2.61006 12.2347 2.61261 12.0818 2.61261L10.7158 2.61261L10.7183 1.77925H14.4136V5.47457Z" fill="white"/>
<path d="M14.2629 10.5064L13.4347 10.5038L13.4321 11.8673C13.4321 12.0202 13.4347 12.1774 13.4398 12.3388C13.4466 12.5019 13.4542 12.6641 13.4627 12.8255C13.3896 12.7457 13.3149 12.6641 13.2384 12.5809C13.162 12.501 13.0864 12.4237 13.0116 12.349L10.7511 10.0884L10.1497 10.6899L12.4102 12.9504C12.4849 13.0252 12.5631 13.0999 12.6446 13.1747C12.7245 13.2511 12.8043 13.3259 12.8842 13.3989C12.7228 13.3904 12.5622 13.3828 12.4025 13.376C12.2411 13.3709 12.084 13.3683 11.9311 13.3683L10.5651 13.3683L10.5676 14.2017H14.2629V10.5064Z" fill="white"/>
<path d="M5.29641 1.77924L5.29896 2.6075L3.93551 2.61005C3.7826 2.61005 3.62544 2.6075 3.46404 2.60241C3.30094 2.59561 3.13868 2.58797 2.97728 2.57947C3.05713 2.65253 3.13868 2.72728 3.22193 2.80374C3.30178 2.88019 3.37909 2.9558 3.45384 3.03055L5.71436 5.29107L5.11292 5.89252L2.8524 3.632C2.77764 3.55724 2.70289 3.47909 2.62813 3.39754C2.55168 3.31768 2.47692 3.23783 2.40386 3.15798C2.41236 3.31938 2.42001 3.47994 2.4268 3.63965C2.4319 3.80105 2.43445 3.95821 2.43445 4.11112L2.43445 5.47711L1.60109 5.47456V1.77924H5.29641Z" fill="white"/>
<path d="M5.34566 14.2017L5.34821 13.3735L3.98477 13.3709C3.83186 13.3709 3.6747 13.3735 3.51329 13.3785C3.35019 13.3853 3.18794 13.393 3.02653 13.4015C3.10638 13.3284 3.18794 13.2537 3.27119 13.1772C3.35104 13.1008 3.42834 13.0252 3.5031 12.9504L5.76362 10.6899L5.16217 10.0884L2.90166 12.349C2.8269 12.4237 2.75214 12.5019 2.67739 12.5834C2.60093 12.6633 2.52618 12.7431 2.45312 12.823C2.46161 12.6616 2.46926 12.501 2.47606 12.3413C2.48115 12.1799 2.4837 12.0227 2.4837 11.8698L2.4837 10.5038L1.65034 10.5064V14.2017H5.34566Z" fill="white"/>
</svg>
