<svg width="22" height="22" viewBox="0 0 22 22" fill="none" xmlns="http://www.w3.org/2000/svg">
<path d="M8.30094 9.5428C9.4839 9.5428 10.4429 8.58379 10.4429 7.40079C10.4429 6.2178 9.4839 5.25879 8.30094 5.25879C7.11795 5.25879 6.15894 6.2178 6.15894 7.40079C6.15894 8.58379 7.11795 9.5428 8.30094 9.5428Z" fill="white"/>
<path d="M14.771 2H7.229C3.953 2 2 3.953 2 7.229V14.771C2 15.752 2.171 16.607 2.504 17.327C3.278 19.037 4.934 20 7.229 20H14.771C18.047 20 20 18.047 20 14.771V12.71V7.229C20 3.953 18.047 2 14.771 2ZM18.533 11.45C17.831 10.847 16.697 10.847 15.995 11.45L12.251 14.663C11.549 15.266 10.415 15.266 9.713 14.663L9.407 14.411C8.768 13.853 7.751 13.799 7.031 14.285L3.665 16.544C3.467 16.04 3.35 15.455 3.35 14.771V7.229C3.35 4.691 4.691 3.35 7.229 3.35H14.771C17.309 3.35 18.65 4.691 18.65 7.229V11.549L18.533 11.45Z" fill="white"/>
</svg>
