<svg width="18" height="18" viewBox="0 0 18 18" fill="none" xmlns="http://www.w3.org/2000/svg">
<path d="M15.3407 2.60536L10.068 0.256926C9.2942 -0.084991 8.12448 -0.084991 7.35067 0.256926L2.07794 2.60536C0.746262 3.19921 0.548309 4.00902 0.548309 4.44091C0.548309 4.87281 0.746262 5.68261 2.07794 6.27647L7.35067 8.62491C7.73758 8.79587 8.22346 8.88585 8.70934 8.88585C9.19522 8.88585 9.68111 8.79587 10.068 8.62491L15.3407 6.27647C16.6724 5.68261 16.8704 4.87281 16.8704 4.44091C16.8704 4.00902 16.6814 3.19921 15.3407 2.60536Z" fill="white"/>
<path d="M8.70988 13.5368C8.36796 13.5368 8.02605 13.4648 7.71112 13.3298L1.6466 10.6305C0.719826 10.2166 0 9.10984 0 8.09308C0 7.72417 0.296928 7.42725 0.665838 7.42725C1.03475 7.42725 1.33168 7.72417 1.33168 8.09308C1.33168 8.57897 1.73658 9.20881 2.18647 9.40677L8.25099 12.1061C8.53892 12.2321 8.87184 12.2321 9.15977 12.1061L15.2243 9.40677C15.6742 9.20881 16.0791 8.58796 16.0791 8.09308C16.0791 7.72417 16.376 7.42725 16.7449 7.42725C17.1138 7.42725 17.4108 7.72417 17.4108 8.09308C17.4108 9.10084 16.6909 10.2166 15.7642 10.6305L9.69964 13.3298C9.39371 13.4648 9.0518 13.5368 8.70988 13.5368Z" fill="white"/>
<path d="M8.70988 18.0006C8.36796 18.0006 8.02605 17.9287 7.71112 17.7937L1.6466 15.0943C0.647843 14.6534 0 13.6547 0 12.557C0 12.188 0.296928 11.8911 0.665838 11.8911C1.03475 11.8911 1.33168 12.188 1.33168 12.557C1.33168 13.1238 1.6646 13.6367 2.18647 13.8706L8.25099 16.57C8.53892 16.6959 8.87184 16.6959 9.15977 16.57L15.2243 13.8706C15.7372 13.6457 16.0791 13.1238 16.0791 12.557C16.0791 12.188 16.376 11.8911 16.7449 11.8911C17.1138 11.8911 17.4108 12.188 17.4108 12.557C17.4108 13.6547 16.7629 14.6444 15.7642 15.0943L9.69964 17.7937C9.39371 17.9287 9.0518 18.0006 8.70988 18.0006Z" fill="white"/>
</svg>
