<svg width="12" height="12" viewBox="0 0 12 12" fill="none" xmlns="http://www.w3.org/2000/svg">
<path d="M5.66406 11.3281L6.9375 10.0625L4.85156 7.96875C4.61719 7.73438 4.3724 7.4974 4.11719 7.25781C3.85677 7.01823 3.59635 6.78125 3.33594 6.54688C3.57031 6.55729 3.8099 6.56771 4.05469 6.57812C4.29427 6.58333 4.52865 6.58594 4.75781 6.58594H11.6875V4.74219H4.75781C4.52865 4.74219 4.29427 4.7474 4.05469 4.75781C3.8151 4.76302 3.57812 4.77083 3.34375 4.78125C3.60417 4.54688 3.86198 4.3125 4.11719 4.07812C4.3724 3.83854 4.61719 3.60156 4.85156 3.36719L6.94531 1.27344L5.66406 0L0 5.66406L5.66406 11.3281Z" fill="white"/>
</svg>
