<svg width="22" height="22" viewBox="0 0 22 22" fill="none" xmlns="http://www.w3.org/2000/svg">
<path d="M17.3899 6.82884V9.39551C17.3899 10.5258 16.556 11.4637 15.4639 11.6188C15.2885 11.6438 15.144 11.4977 15.144 11.3205V11.1601C15.144 8.77309 13.2062 6.82884 10.8128 6.82884H10.6524C10.4752 6.82884 10.3291 6.68438 10.3542 6.50897C10.51 5.42153 11.4475 4.58301 12.5774 4.58301H15.144C16.3889 4.58301 17.3899 5.59042 17.3899 6.82884Z" fill="#242424"/>
<path d="M10.8128 7.79134H7.76485C5.99385 7.79134 4.55652 9.22867 4.55652 10.9997V14.208C4.55652 15.979 5.99385 17.4163 7.76485 17.4163H10.9732C12.7442 17.4163 14.1815 15.979 14.1815 14.208V11.1601C14.1815 9.29926 12.6736 7.79134 10.8128 7.79134Z" fill="#242424"/>
</svg>
