<svg width="153" height="176" viewBox="0 0 153 176" fill="none" xmlns="http://www.w3.org/2000/svg">
<path d="M89.1965 25.3152C87.9709 25.2414 86.7486 25.1597 85.523 25.1C84.5284 25.0513 83.7145 24.2452 83.738 23.2318C83.7616 22.2545 84.6117 21.3982 85.6078 21.4469C86.8334 21.505 88.0558 21.5883 89.2814 21.6621C90.276 21.7218 91.0898 22.5074 91.0663 23.5303C91.0443 24.4668 90.2461 25.3184 89.2939 25.3184C89.2609 25.3184 89.2295 25.3168 89.1965 25.3152Z" fill="#242424"/>
<path d="M82.104 38.3251C81.9374 37.8836 81.9484 37.3823 82.137 36.9503C82.3381 36.4836 82.7089 36.1694 83.1646 35.9682C84.244 35.4906 85.325 34.9846 86.4343 34.5808C87.3692 34.2414 88.436 34.7003 88.7911 35.6414C89.1415 36.5622 88.667 37.6589 87.7306 37.9998C86.6213 38.4021 85.5402 38.9096 84.4624 39.3857C84.2581 39.4752 84.046 39.5161 83.8323 39.5161C83.0954 39.5176 82.368 39.018 82.104 38.3251Z" fill="#242424"/>
<path d="M119.804 55.2235C118.953 55.1952 118.104 55.1544 117.254 55.1088C116.809 55.0853 116.368 55.0507 115.925 55.0083C115.04 54.9234 114.253 54.5903 113.543 54.0671C113.035 53.6931 112.613 53.1825 112.237 52.6797C111.961 52.3089 111.7 51.9224 111.461 51.528C111.013 50.7864 110.66 50.0133 110.419 49.1806C110.286 48.9197 110.21 48.6243 110.21 48.3148C110.21 48.3085 110.21 48.3038 110.21 48.2975C110.209 48.2881 110.207 48.2787 110.204 48.2693C110.202 48.2661 110.201 48.2614 110.199 48.2582C110.172 48.2111 110.146 48.164 110.121 48.1168C109.973 47.9032 109.819 47.6989 109.657 47.4962C108.405 46.1072 107.044 44.8251 105.782 43.4456C105.319 42.9381 104.86 42.4321 104.415 41.9058C103.567 40.9033 102.825 39.8286 102.139 38.7083C100.696 36.3499 99.6593 33.7259 98.9916 31.0485C98.3474 28.4733 98.1353 25.7723 98.2688 23.1264C98.4008 20.537 98.8895 17.9366 99.7929 15.5043C100.244 14.2882 100.792 13.1208 101.424 11.9895C102.114 10.7466 102.957 9.60122 103.844 8.49193C104.659 7.4722 105.561 6.50904 106.483 5.58358C107.413 4.6487 108.477 3.85679 109.604 3.17802C110.722 2.50396 111.907 1.93361 113.128 1.47481C114.421 0.986152 115.786 0.686046 117.147 0.46136C118.255 0.279097 119.363 0.140833 120.483 0.0606998C122.698 -0.102708 124.904 0.0544106 127.051 0.646765C128.27 0.98458 129.423 1.51723 130.555 2.07502C131.139 2.36412 131.7 2.6878 132.247 3.04133C132.858 3.43413 133.406 3.90707 133.95 4.3863C135.191 5.47831 136.288 6.6913 137.276 8.01742C137.627 8.48565 137.963 8.96801 138.283 9.45824C138.899 10.401 139.39 11.4239 139.787 12.4781C140.053 13.1868 140.31 13.8923 140.524 14.6182C140.813 15.597 140.959 16.6388 141.041 17.6538C141.121 18.6374 141.19 19.632 141.146 20.6187C141.123 21.1545 141.099 21.6903 141.075 22.2245C141.047 22.8341 140.967 23.4469 140.914 24.0534C140.832 24.9757 140.672 25.8949 140.513 26.8062C140.35 27.738 140.172 28.676 139.935 29.592C139.672 30.6086 139.39 31.6126 139.093 32.6198C138.517 34.565 137.771 36.4646 137.004 38.3391C136.649 39.2064 136.242 40.0596 135.795 40.8845C135.323 41.7518 134.781 42.5798 134.225 43.3984C133.403 44.6146 132.5 45.7741 131.639 46.9636C131.145 47.6832 130.683 48.4107 130.272 49.1806C129.912 49.9222 129.572 50.6748 129.244 51.4306C129.063 51.8454 128.872 52.2508 128.656 52.6514C128.202 53.4999 127.407 54.1739 126.532 54.551C125.28 55.0915 123.919 55.2267 122.569 55.2549C122.324 55.2597 122.079 55.2612 121.834 55.2612C121.159 55.2644 120.481 55.2471 119.804 55.2235ZM122.719 51.6018C123.179 51.5767 123.635 51.5453 124.094 51.4824C124.293 51.4431 124.491 51.3976 124.688 51.3457C124.829 51.2986 124.967 51.2467 125.105 51.1902C125.143 51.1713 125.179 51.1509 125.217 51.132C125.241 51.1147 125.264 51.099 125.288 51.0818C125.303 51.0676 125.319 51.0519 125.335 51.0378C125.366 50.9969 125.399 50.9576 125.431 50.9168C125.487 50.8241 125.542 50.7314 125.596 50.6371C125.93 49.9222 126.226 49.1916 126.56 48.4766C126.958 47.6266 127.388 46.8064 127.882 46.0098C128.82 44.4967 129.957 43.1062 130.996 41.6606C131.647 40.6975 132.266 39.7202 132.825 38.7004C133.681 36.8841 134.404 35.0238 135.083 33.1351C135.336 32.359 135.589 31.5828 135.82 30.7987C136.054 30.01 136.26 29.2165 136.464 28.4199C136.682 27.3876 136.882 26.3584 137.066 25.3198C137.264 24.1948 137.341 23.0447 137.443 21.9087C137.435 21.9857 137.429 22.0642 137.421 22.1412C137.446 21.574 137.473 21.0068 137.498 20.4412C137.518 19.9635 137.493 19.4796 137.484 18.9988C137.424 18.2556 137.366 17.5155 137.256 16.777C137.165 16.2727 137.052 15.7762 136.913 15.2828C136.64 14.45 136.329 13.6267 135.974 12.8254C135.765 12.3902 135.54 11.9659 135.29 11.5543C134.745 10.7247 134.159 9.91704 133.53 9.14713C132.925 8.4495 132.275 7.82259 131.606 7.19095C131.191 6.82642 130.771 6.47447 130.322 6.15237C129.899 5.88054 129.47 5.63229 129.029 5.39818C128.315 5.04779 127.599 4.71155 126.856 4.42872C126.32 4.24489 125.78 4.08777 125.228 3.95893C124.653 3.8458 124.078 3.76095 123.495 3.70282C122.813 3.65568 122.134 3.64154 121.451 3.65568C120.915 3.69182 120.373 3.70439 119.84 3.77352C119.121 3.86937 118.399 3.95893 117.683 4.07363C116.789 4.23075 115.909 4.42873 115.039 4.68484C114.454 4.8781 113.885 5.09807 113.323 5.34475C112.572 5.70457 111.838 6.09894 111.123 6.52789C110.68 6.817 110.257 7.1281 109.846 7.46277C109.112 8.10227 108.443 8.79832 107.784 9.51323C106.973 10.4151 106.211 11.3547 105.507 12.343C105.014 13.0736 104.568 13.8294 104.156 14.6103C103.782 15.3661 103.451 16.136 103.157 16.9279C102.868 17.7669 102.627 18.617 102.426 19.4811C102.208 20.526 102.057 21.5803 101.958 22.6425C101.886 23.6213 101.865 24.5955 101.897 25.5759C101.95 26.591 102.054 27.5965 102.211 28.6006C102.385 29.5732 102.61 30.5316 102.888 31.4806C103.204 32.4705 103.573 33.4384 103.991 34.3906C104.437 35.3537 104.932 36.2855 105.484 37.1936C106.001 38.0044 106.56 38.7822 107.171 39.5269C108.303 40.8515 109.522 42.0959 110.748 43.334C111.283 43.8761 111.803 44.4276 112.311 44.9932C112.842 45.584 113.298 46.2361 113.613 46.9667C113.753 47.2888 113.819 47.6392 113.844 47.9896C113.887 48.0838 113.925 48.1813 113.953 48.285C113.959 48.3038 113.964 48.3242 113.969 48.3431C114.033 48.5348 114.105 48.7218 114.182 48.9072C114.321 49.19 114.473 49.465 114.635 49.7352C114.883 50.117 115.145 50.4863 115.43 50.8414C115.524 50.9435 115.621 51.0409 115.72 51.1383C115.76 51.1713 115.799 51.2027 115.84 51.2342C115.859 51.2452 115.878 51.2577 115.895 51.2703C115.922 51.2829 115.948 51.297 115.977 51.3096C116.002 51.3174 116.028 51.3269 116.055 51.3347C116.261 51.3709 116.467 51.3991 116.674 51.4211C118.687 51.5563 120.708 51.638 122.719 51.6018Z" fill="#242424"/>
<path d="M120.527 69.407C119.493 69.2892 118.484 69.0566 117.498 68.7298C117.039 68.579 116.593 68.392 116.16 68.1814C115.328 67.7776 114.534 67.3393 113.811 66.7563C112.961 66.0728 112.289 65.1521 111.968 64.1057C111.676 63.1551 111.764 61.9892 112.272 61.1187C112.757 60.2829 113.529 59.7062 114.391 59.2961C114.124 58.886 113.903 58.4461 113.717 57.992C113.463 57.3651 113.395 56.6942 113.375 56.0264C113.356 55.4042 113.543 54.7804 113.7 54.1833C113.978 53.1165 114.512 51.9459 115.584 51.495C116.501 51.11 117.598 51.6505 117.942 52.5555C118.219 53.2846 117.988 54.0498 117.455 54.5431C117.395 54.672 117.342 54.8008 117.292 54.9344C117.213 55.1889 117.147 55.4466 117.08 55.7059C117.097 55.6289 117.113 55.5534 117.13 55.4764C117.088 55.6461 117.056 55.8174 117.032 55.9902C117.029 56.0578 117.028 56.1254 117.028 56.1914C117.036 56.2589 117.044 56.3265 117.051 56.3925C117.066 56.46 117.081 56.526 117.099 56.592C117.132 56.691 117.169 56.7869 117.208 56.8827C117.259 56.9833 117.311 57.0822 117.369 57.1797C117.438 57.2849 117.512 57.3871 117.587 57.4876C117.818 57.75 118.063 57.9967 118.316 58.2403C118.453 58.3612 118.591 58.4806 118.733 58.5969C120.494 58.5514 122.257 58.6048 124.001 58.8955C125.211 59.0981 126.76 59.5522 127.242 60.8234C127.467 61.4141 127.439 62.0725 127.132 62.624C126.785 63.2525 126.198 63.705 125.506 63.8998C124.537 64.1764 123.528 64.1198 122.538 64.0114C121.63 63.9124 120.745 63.7128 119.886 63.4002C119.485 63.254 119.096 63.0624 118.709 62.8801C118.337 62.7025 117.977 62.5077 117.628 62.294C117.281 62.316 116.935 62.3443 116.589 62.393C116.472 62.4166 116.355 62.4449 116.241 62.4779C116.088 62.5297 115.939 62.591 115.794 62.6648C115.867 62.6318 115.939 62.5988 116.011 62.5659C115.903 62.6208 115.794 62.6805 115.689 62.7418C115.618 62.789 115.548 62.8392 115.48 62.8895C115.477 62.9005 115.474 62.9131 115.471 62.9241C115.466 62.9508 115.461 62.9775 115.457 63.0027C115.457 63.0058 115.457 63.0089 115.455 63.0121C115.457 63.0231 115.457 63.0356 115.458 63.0466C115.471 63.0812 115.483 63.1174 115.497 63.1504C115.537 63.2242 115.576 63.2965 115.615 63.3703C115.661 63.4379 115.708 63.5023 115.758 63.5667C115.824 63.6421 115.893 63.7144 115.966 63.7851C116.118 63.9155 116.272 64.0397 116.432 64.1607C116.704 64.3398 116.984 64.5016 117.271 64.6572C117.67 64.8504 118.068 65.0311 118.478 65.2024C118.998 65.3705 119.517 65.5135 120.048 65.6376C120.36 65.6942 120.668 65.7397 120.983 65.779C121.457 65.7963 121.928 65.7979 122.401 65.7837C122.823 65.7539 123.24 65.7146 123.66 65.6612C124.271 65.5449 124.875 65.4019 125.473 65.2385C126.433 64.9746 127.451 65.6518 127.674 66.5929C127.91 67.5859 127.279 68.5303 126.318 68.7942C125.391 69.0488 124.45 69.2703 123.492 69.3614C122.892 69.4196 122.277 69.4636 121.668 69.4636C121.283 69.4667 120.902 69.4494 120.527 69.407Z" fill="#242424"/>
<path d="M126.328 52.6969C125.448 52.3167 124.936 51.1869 125.377 50.2929C126.128 48.7735 126.744 47.1913 127.324 45.5981C127.814 44.1431 128.223 42.6803 128.562 41.1845C129.008 38.8873 129.304 36.5729 129.549 34.2475C129.598 33.586 129.646 32.9261 129.673 32.2646C129.7 31.5402 129.698 30.8206 129.692 30.0963C129.659 29.5291 129.626 28.9634 129.568 28.3978C129.503 27.785 129.419 27.1785 129.331 26.5673C129.265 26.2358 129.197 25.9042 129.131 25.5711C129.068 25.26 128.968 24.9521 128.876 24.6457C128.686 24.0816 128.498 23.5207 128.27 22.9707C128.171 22.7665 128.064 22.5685 127.951 22.3705C127.832 22.1914 127.708 22.0201 127.576 21.8505C127.495 21.7609 127.411 21.6745 127.324 21.5912C127.274 21.5472 127.222 21.5063 127.17 21.4655C127.112 21.4294 127.054 21.3932 126.997 21.3587C127.027 21.3744 127.057 21.3885 127.087 21.4042C127.081 21.3995 127.076 21.3964 127.07 21.3917C127.022 21.3681 126.977 21.3477 126.928 21.3272C126.909 21.3225 126.889 21.3178 126.87 21.3131C126.854 21.3099 126.837 21.3084 126.821 21.3052C126.818 21.3052 126.815 21.3052 126.812 21.3052C126.809 21.3052 126.804 21.3068 126.804 21.3068C126.795 21.3084 126.785 21.3099 126.776 21.3131C126.763 21.3178 126.752 21.3209 126.74 21.3257C126.732 21.3304 126.722 21.3351 126.715 21.3398C126.669 21.3728 126.625 21.4042 126.582 21.4372C126.551 21.4671 126.52 21.4969 126.49 21.5268C126.378 21.6588 126.273 21.7939 126.171 21.9337C126.003 22.1977 125.846 22.4664 125.696 22.7398C125.56 23.021 125.429 23.3054 125.302 23.5898C125.574 24.1036 125.803 24.6394 125.995 25.1925C126.238 25.8979 126.394 26.6239 126.557 27.3498C126.79 28.3946 126.911 29.4536 126.955 30.5237C127.004 31.6769 126.955 32.8255 126.889 33.9757C126.834 34.9388 126.652 35.8926 126.476 36.84C126.27 37.9462 125.912 39.0287 125.335 39.9966C124.776 40.9378 123.794 41.7627 122.684 41.9119C121.694 42.0439 120.626 41.7077 119.928 40.9739C119.561 40.589 119.267 40.1726 119.028 39.6965C118.75 39.1434 118.593 38.5165 118.495 37.9069C118.299 36.6782 118.36 35.4212 118.467 34.1862C118.558 33.1382 118.736 32.0886 118.99 31.0673C119.129 30.5127 119.267 29.9596 119.405 29.4049C119.537 28.877 119.713 28.3569 119.865 27.8353C120.118 26.9821 120.404 26.1368 120.7 25.2962C120.854 24.8609 121.009 24.4273 121.173 23.9952C120.964 23.7579 120.747 23.5317 120.519 23.3133C120.31 23.1342 120.101 22.9613 119.883 22.7932C119.834 22.7618 119.784 22.7319 119.732 22.7021C119.715 22.6942 119.697 22.6863 119.68 22.6785C119.65 22.6832 119.62 22.6863 119.591 22.6911C119.57 22.6973 119.55 22.7021 119.529 22.7068C119.507 22.7162 119.484 22.7256 119.462 22.7351C119.433 22.7508 119.407 22.7681 119.378 22.7838C119.352 22.8042 119.325 22.823 119.297 22.8435C119.264 22.8749 119.231 22.9047 119.198 22.9377C119.119 23.0304 119.044 23.1263 118.973 23.2237C118.888 23.3604 118.811 23.4987 118.736 23.6401C118.532 24.0706 118.365 24.5121 118.198 24.9584C117.824 26.0818 117.488 27.2099 117.172 28.3506C116.858 29.4929 116.61 30.6541 116.351 31.8074C116.219 32.5254 116.087 33.245 115.955 33.9631C115.893 34.304 115.871 34.6591 115.829 35.0032C115.783 35.3788 115.739 35.7559 115.694 36.133C115.644 36.8966 115.595 37.657 115.543 38.4207C115.518 38.8135 115.54 39.2157 115.538 39.6085C115.537 39.973 115.535 40.336 115.534 40.699C115.574 41.3039 115.615 41.9088 115.656 42.5122C115.694 43.0527 115.794 43.5963 115.868 44.1337C115.983 44.7496 116.098 45.3655 116.241 45.9767C116.398 46.6366 116.585 47.2871 116.775 47.9376C116.938 48.4734 117.1 49.0123 117.304 49.534C117.829 50.3353 117.625 51.4478 116.844 52.0118C116.036 52.5979 114.878 52.4078 114.292 51.6017C113.926 51.1021 113.757 50.4909 113.566 49.9095C113.417 49.4491 113.276 48.9872 113.142 48.5221C112.869 47.5904 112.621 46.6539 112.445 45.697C112.357 45.2272 112.264 44.759 112.201 44.2845C112.135 43.7927 112.047 43.2993 112.012 42.806C111.973 42.212 111.931 41.6181 111.891 41.0242C111.858 40.5261 111.88 40.0233 111.882 39.5237C111.885 39.1073 111.865 38.6846 111.891 38.2667C111.934 37.6052 111.979 36.9453 112.022 36.2838C112.085 35.3238 112.223 34.3669 112.339 33.4131C112.401 32.9041 112.526 32.3919 112.619 31.8875C112.701 31.4428 112.787 31.0029 112.889 30.5629C113.133 29.4929 113.386 28.4292 113.651 27.3655C113.873 26.4777 114.135 25.59 114.426 24.7227C114.589 24.2293 114.756 23.7375 114.937 23.2504C115.243 22.4192 115.623 21.643 116.131 20.914C116.684 20.1221 117.575 19.4512 118.51 19.1966C119.015 19.0599 119.548 18.9782 120.071 19.0395C120.662 19.1102 121.159 19.3161 121.676 19.6036C122.075 19.8236 122.438 20.1284 122.78 20.4363C123.17 19.778 123.627 19.1668 124.197 18.664C124.892 18.0528 125.852 17.6113 126.793 17.6427C127.272 17.66 127.741 17.726 128.19 17.8988C128.762 18.1188 129.266 18.4393 129.728 18.8431C130.577 19.5863 131.227 20.5746 131.662 21.6085C131.915 22.2103 132.118 22.8246 132.327 23.4437C132.652 24.41 132.855 25.4234 133.003 26.4322C133.15 27.4425 133.254 28.4512 133.314 29.4725C133.431 31.4585 133.304 33.4509 133.098 35.4243C132.691 39.3414 132.063 43.2412 130.716 46.9556C130.129 48.5803 129.5 50.1939 128.737 51.7431C128.515 52.1894 128.182 52.5476 127.708 52.7267C127.5 52.8053 127.28 52.8446 127.06 52.8446C126.807 52.8477 126.557 52.7974 126.328 52.6969ZM122.268 37.998C122.348 37.8645 122.422 37.7278 122.489 37.5863C122.453 37.6571 122.417 37.7278 122.381 37.7985C122.471 37.6052 122.549 37.4072 122.617 37.2045C122.59 37.2784 122.563 37.3522 122.537 37.4276C122.665 37.027 122.775 36.6248 122.873 36.2147C122.94 35.847 123.01 35.4825 123.077 35.1148C123.153 34.7063 123.184 34.2852 123.231 33.8719C123.289 32.8428 123.336 31.8168 123.31 30.7845C123.288 30.3273 123.253 29.8732 123.2 29.4191C123.098 29.749 122.999 30.0806 122.915 30.4152C122.76 31.0359 122.606 31.6565 122.45 32.2771C122.279 33.1398 122.148 34.0039 122.065 34.8807C122.026 35.4778 122.015 36.0732 122.029 36.6703C122.046 36.9107 122.07 37.1464 122.104 37.3837C122.137 37.5439 122.174 37.7026 122.219 37.8613C122.196 37.7859 122.172 37.7105 122.15 37.6351C122.183 37.7576 122.222 37.8786 122.268 37.998Z" fill="#242424"/>
<path d="M93.1419 10.8487C92.0923 10.7858 91.1087 10.5046 90.1393 10.1055C89.2232 9.7284 88.3182 9.32931 87.4242 8.90194C86.5254 8.47299 86.0682 7.43598 86.4736 6.49796C86.8585 5.61021 87.9804 5.11841 88.8776 5.54893C89.9397 6.05644 91.016 6.5388 92.119 6.95361C92.3532 7.02431 92.5841 7.08874 92.8183 7.14687C92.933 7.16416 93.0461 7.17987 93.1592 7.19244C93.1812 7.19401 93.2032 7.19558 93.2252 7.19715C94.2198 7.25529 95.0337 8.04405 95.0117 9.06535C94.9897 10.0018 94.1915 10.8534 93.2378 10.8534C93.2063 10.8518 93.1733 10.8503 93.1419 10.8487Z" fill="#242424"/>
<path d="M143.271 8.4323C142.681 7.61997 142.879 6.4714 143.681 5.88062C143.894 5.72192 144.127 5.5868 144.353 5.44696C144.303 5.47838 144.253 5.50981 144.202 5.54123C144.584 5.30241 144.971 5.07458 145.363 4.85617C146.232 4.37223 147.373 4.73362 147.84 5.60094C148.316 6.48554 147.965 7.59483 147.095 8.0772C146.782 8.25161 146.471 8.43387 146.165 8.61928C146.154 8.62556 146.143 8.63342 146.132 8.6397C146.028 8.7057 145.923 8.77169 145.824 8.84397C145.51 9.07651 145.139 9.18649 144.77 9.18649C144.193 9.18492 143.622 8.92095 143.271 8.4323Z" fill="#242424"/>
<path d="M147.811 23.813C147.513 23.8005 147.213 23.7596 146.914 23.7596C145.918 23.7596 145.107 22.8687 145.129 21.8914C145.153 20.8795 146.003 20.1065 146.997 20.1065C147.246 20.1065 147.495 20.1411 147.744 20.1521C148.143 20.1694 148.543 20.1756 148.944 20.1741C149.701 20.1725 150.457 20.1584 151.215 20.1285C152.209 20.0892 153.022 21.0492 153 21.9983C152.989 22.4806 152.783 22.9441 152.434 23.2772C152.068 23.6261 151.623 23.7628 151.13 23.7832C150.372 23.813 149.617 23.8272 148.859 23.8303C148.511 23.8303 148.162 23.8288 147.811 23.813Z" fill="#242424"/>
<path d="M148.996 42.0928C148.058 41.9216 147.118 41.7487 146.19 41.5335C145.783 41.4376 145.378 41.3339 144.974 41.2271C144.575 41.1202 144.213 40.9678 143.919 40.663C143.646 40.3755 143.446 39.9842 143.42 39.5867C143.351 38.5937 144.029 37.6839 145.046 37.5787C145.305 37.552 145.564 37.585 145.808 37.6667C146.393 37.8301 146.982 37.973 147.573 38.105C148.229 38.237 148.888 38.3611 149.544 38.4821C150.523 38.6612 151.229 39.5584 151.076 40.5656C150.946 41.4313 150.159 42.1227 149.29 42.1227C149.192 42.1195 149.095 42.1101 148.996 42.0928Z" fill="#242424"/>
<path d="M144.747 59.5383C143.967 58.9365 143.19 58.3206 142.453 57.6685C142.031 57.2946 141.629 56.9096 141.24 56.5011C140.642 55.8711 140.038 55.1389 140.038 54.2275C140.038 53.2314 140.929 52.4206 141.908 52.4411C142.666 52.4583 143.286 52.9376 143.553 53.5943C143.577 53.6273 143.602 53.6603 143.627 53.6933C143.916 54.0186 144.221 54.3265 144.532 54.6329C145.341 55.3416 146.174 56.0235 147.027 56.6802C147.816 57.2883 147.932 58.4809 147.318 59.2492C146.958 59.7001 146.429 59.9295 145.893 59.9295C145.489 59.9264 145.085 59.7991 144.747 59.5383Z" fill="#242424"/>
<path d="M34.1845 83.5105C33.1867 83.4822 32.1843 83.3864 31.1913 83.278C30.2281 83.1743 29.2555 83.069 28.3018 82.8867C26.3016 82.5033 24.2826 82.1105 22.3814 81.3595C21.4166 80.9777 20.4629 80.5739 19.5563 80.0679C19.1525 79.8417 18.7361 79.6311 18.3496 79.3766C17.7745 78.9995 17.1948 78.6287 16.6338 78.228C14.5457 76.7385 12.613 74.9269 11.2634 72.7287C9.88538 70.4866 8.84834 68.0009 8.34712 65.4162C8.13814 64.3352 7.99203 63.229 7.95589 62.1276C7.93547 61.529 7.91504 60.9319 7.89461 60.3333C7.86633 59.5178 7.88517 58.707 7.92602 57.89C7.98573 56.7178 8.08472 55.5143 8.31255 54.3626C8.51366 53.3413 8.69281 52.3184 8.9662 51.3144C9.1139 50.7739 9.26003 50.2318 9.40773 49.6913C9.55228 49.1618 9.74552 48.6401 9.9325 48.1248C10.2059 47.3706 10.5076 46.6305 10.8407 45.9015C11.3529 44.7733 11.9751 43.697 12.679 42.6773C13.4395 41.5743 14.3178 40.5624 15.2275 39.582C15.6109 39.1672 16.0226 38.7791 16.4248 38.3847C16.7265 38.0877 17.0188 37.7829 17.3362 37.5048C18.1375 36.8056 18.9262 36.0939 19.7621 35.4371C20.2587 35.0474 20.7552 34.6577 21.2517 34.2665C21.5769 34.0104 21.9304 33.7873 22.2714 33.5516C22.7223 33.2389 23.1733 32.9262 23.6242 32.6136C24.1474 32.2506 24.7272 31.9568 25.2756 31.6363C25.6228 31.4336 25.9622 31.2215 26.322 31.0408C26.9238 30.7391 27.524 30.4374 28.1274 30.1357C29.0843 29.6549 30.0898 29.2558 31.0891 28.874C32.0413 28.5079 33.006 28.233 34.0132 28.0633C34.494 27.9832 34.9842 27.9564 35.4729 27.9297C35.5954 27.9062 35.7227 27.8952 35.8515 27.8999C37.7842 27.9596 39.7199 28.0837 41.6462 28.2597C43.6401 28.4404 45.5979 28.7531 47.5525 29.1773C48.4842 29.3815 49.4034 29.6754 50.3147 29.9535C51.2402 30.2347 52.1531 30.5725 53.0503 30.9355C54.015 31.3252 54.942 31.7745 55.8675 32.2506C56.2383 32.4423 56.5871 32.6827 56.9406 32.9011C57.3696 33.1635 57.7922 33.4558 58.1992 33.7511C58.9534 34.3011 59.7249 34.84 60.4162 35.4685C60.7964 35.8142 61.2034 36.1441 61.5632 36.5118C61.9042 36.8622 62.2718 37.1969 62.5861 37.5692C63.2382 38.3391 63.9106 39.1059 64.4527 39.9607C65.0026 40.8311 65.5588 41.6969 66.0271 42.6129C66.5204 43.5761 66.9604 44.5534 67.3626 45.5605C67.7366 46.5001 68.0162 47.4664 68.2959 48.4375C68.4185 48.8633 68.4908 49.3079 68.5866 49.7416C68.6432 50.0024 68.673 50.2758 68.7139 50.5413C68.7516 50.7974 68.8097 51.0551 68.8302 51.3144C68.871 51.8298 68.9275 52.3435 68.9464 52.8605C68.9983 54.2761 68.8899 55.6636 68.6526 57.0588C68.2221 59.5979 67.5041 62.0883 66.3586 64.4012C65.9218 65.2826 65.4269 66.1358 64.8581 66.9387C64.569 67.3441 64.2971 67.7715 63.9845 68.158C63.3198 68.9797 62.6568 69.8188 61.9089 70.5683C60.5168 71.9635 59.087 73.3132 57.5471 74.5498C56.0073 75.7847 54.4125 76.9506 52.7502 78.0175C52.3024 78.305 51.853 78.5925 51.4036 78.8817C50.8851 79.2148 50.3399 79.5101 49.8072 79.8213C47.895 80.9353 45.8634 81.7554 43.7266 82.3258C43.1798 82.4719 42.6236 82.5835 42.0705 82.7076C41.7531 82.7799 41.4169 82.8773 41.0822 82.9166C40.9125 82.9496 40.7381 82.9716 40.5684 83.0014C40.1033 83.08 39.6382 83.1585 39.1732 83.2387C39.1244 83.2497 39.0757 83.2575 39.0254 83.2638C38.9673 83.2733 38.9076 83.2842 38.8494 83.2937C38.8023 83.3015 38.7568 83.3078 38.7096 83.311C38.6421 83.3204 38.5729 83.3298 38.5038 83.3377C37.4118 83.4744 36.3166 83.5309 35.2199 83.5309C34.8742 83.5262 34.5301 83.5215 34.1845 83.5105ZM36.2334 79.8637C36.9561 79.8228 37.6726 79.7537 38.3891 79.6657C38.4079 79.6626 38.4252 79.661 38.4441 79.6578C38.8699 79.5856 39.2957 79.5133 39.723 79.441C40.0357 79.3876 40.3641 79.3027 40.6878 79.2698C40.7239 79.2603 40.7601 79.2525 40.7978 79.2446C41.7908 79.0231 42.7791 78.8062 43.758 78.5234C44.5562 78.2704 45.3355 77.9735 46.1022 77.6341C47.2414 77.092 48.3177 76.4572 49.4081 75.8225C50.5378 75.095 51.655 74.3565 52.7627 73.596C53.8154 72.8733 54.8069 72.0641 55.8015 71.2675C56.3577 70.7804 56.9218 70.2996 57.4607 69.7936C58.1096 69.1887 58.7381 68.5712 59.365 67.9443C59.8411 67.4164 60.3093 66.8869 60.7587 66.3338C61.1939 65.7964 61.593 65.2339 61.9921 64.6699C62.3661 64.0885 62.7133 63.4961 63.0339 62.8849C63.3827 62.1779 63.6922 61.4582 63.9687 60.7198C64.1243 60.2311 64.2798 59.7425 64.4354 59.2522C64.5799 58.7934 64.6711 58.3095 64.7795 57.8397C64.9681 56.8875 65.1566 55.9385 65.2572 54.9706C65.3059 54.2981 65.3169 53.6304 65.298 52.9563C65.2634 52.5368 65.2289 52.1173 65.1943 51.6962C65.1629 51.3128 65.0859 50.9294 65.0215 50.5476C64.9304 50.136 64.8392 49.7243 64.7481 49.3126C64.6695 48.9497 64.547 48.5914 64.4386 48.2332C64.261 47.7241 64.0866 47.2135 63.8855 46.7107C63.6797 46.1922 63.4581 45.6815 63.2303 45.1724C62.8469 44.4261 62.4494 43.697 62.0346 42.968C61.835 42.6522 61.6355 42.3364 61.4375 42.0205C61.1955 41.6387 60.9048 41.2821 60.6377 40.9144C60.3832 40.6143 60.1287 40.3158 59.8757 40.0157C59.5835 39.6684 59.2362 39.3589 58.9172 39.0352C58.4631 38.6235 58.0091 38.2166 57.533 37.8285C57.0302 37.42 56.5132 37.0429 55.9916 36.6611C55.5736 36.3798 55.1557 36.0939 54.7268 35.8283C54.2397 35.5282 53.7447 35.2627 53.2404 35.0003C52.2536 34.5603 51.2638 34.1534 50.2487 33.7794C48.8001 33.2986 47.3451 32.8744 45.8572 32.5413C44.1618 32.2239 42.4617 32.0008 40.7444 31.8405C39.1559 31.7148 37.5626 31.6127 35.9709 31.5593C35.4069 31.5954 34.846 31.6331 34.2866 31.718C33.9724 31.7808 33.666 31.8594 33.358 31.9474C32.1654 32.3355 31.0232 32.8383 29.8793 33.3458C29.5446 33.5139 29.2115 33.6804 28.8769 33.8486C28.528 34.023 28.1604 34.1801 27.8241 34.3781C27.1108 34.7976 26.3959 35.2155 25.6826 35.6351C24.9582 36.1363 24.2354 36.6375 23.5111 37.1387C23.1937 37.3603 22.8968 37.6211 22.5935 37.8599C22.2243 38.1506 21.855 38.4397 21.4873 38.7304C20.8856 39.2567 20.2806 39.7831 19.6804 40.3095C19.3348 40.6111 19.0205 40.96 18.6953 41.2821C18.326 41.6482 17.9599 42.0095 17.6064 42.3882C16.9371 43.1298 16.3023 43.8997 15.7131 44.7105C15.2653 45.372 14.8583 46.0523 14.4859 46.7578C14.0539 47.6346 13.6736 48.5302 13.3358 49.4462C12.943 50.5853 12.6366 51.7449 12.3208 52.9076C12.2218 53.4073 12.1244 53.9053 12.0254 54.405C11.8494 55.2975 11.73 56.1946 11.6404 57.1012C11.5556 58.1571 11.5038 59.2161 11.5415 60.2735C11.5619 60.8549 11.5823 61.4363 11.6012 62.0176C11.6593 62.8127 11.741 63.5998 11.8682 64.387C11.9861 65.025 12.1291 65.6534 12.3067 66.2757C12.5706 67.0896 12.8801 67.883 13.2242 68.6655C13.5809 69.4244 13.9721 70.1629 14.4074 70.8809C14.6996 71.3287 15.0123 71.7577 15.347 72.1741C15.7775 72.6721 16.2284 73.1451 16.7077 73.5976C17.4587 74.2654 18.2381 74.8876 19.052 75.4737C19.4919 75.7612 19.9318 76.0503 20.3702 76.3378C20.763 76.5939 21.192 76.8061 21.6052 77.0307C22.0169 77.2256 22.4285 77.4204 22.8402 77.6137C23.2267 77.7959 23.6383 77.9342 24.039 78.0882C24.5355 78.2422 25.0305 78.3961 25.527 78.5501C26.0597 78.7151 26.6174 78.8219 27.1626 78.9508C27.9954 79.1111 28.825 79.2713 29.6625 79.3986C30.5596 79.5337 31.4568 79.6358 32.3587 79.7348C33.655 79.8165 34.9355 79.9014 36.2334 79.8637Z" fill="#242424"/>
<path d="M34.7501 52.5809C34.3149 52.3185 34.0525 51.9131 33.9111 51.4339C33.479 49.9664 33.2857 48.4407 33.171 46.9197C33.0516 45.3061 32.9589 43.6924 32.9589 42.0741C32.9589 41.0779 33.8498 40.2671 34.8286 40.2891C35.8405 40.3111 36.6136 41.1627 36.6136 42.1589C36.6136 42.6491 36.6214 43.1378 36.6308 43.6264C36.7078 45.3642 36.8115 47.102 37.0598 48.8225C37.1698 49.4196 37.297 50.0056 37.4683 50.5901C37.7511 51.5454 37.0425 52.5699 36.1139 52.7914C35.9756 52.8244 35.8358 52.8401 35.6944 52.8401C35.3644 52.8401 35.0361 52.7506 34.7501 52.5809Z" fill="#242424"/>
<path d="M42.4303 51.0976C42.124 49.4494 41.838 47.798 41.5536 46.1482C41.3933 45.2212 41.233 44.2942 41.0838 43.3687C41.0178 42.957 40.966 42.5485 40.9125 42.1353C40.8591 41.7173 40.8135 41.257 40.8748 40.8374C41.0209 39.8507 41.9762 39.1578 42.9567 39.3055C43.8712 39.4438 44.5295 40.2671 44.5075 41.169C44.5075 41.1643 44.5075 41.1596 44.5091 41.1548C44.5075 41.191 44.5075 41.2271 44.5075 41.2633C44.5766 42.0834 44.7055 42.8911 44.8359 43.7049C44.8343 43.6987 44.8343 43.6924 44.8327 43.6861C45.2098 45.8764 45.5807 48.0683 45.986 50.2538C46.074 50.7284 46.0269 51.195 45.777 51.6161C45.5256 52.034 45.1077 52.3436 44.6301 52.4551C44.4996 52.4866 44.3661 52.5007 44.2326 52.5007C43.4124 52.4991 42.5859 51.9414 42.4303 51.0976Z" fill="#242424"/>
<path d="M38.6389 71.8362C37.8407 71.7733 37.0645 71.6194 36.2805 71.4717C35.0219 71.236 33.7696 70.8746 32.5661 70.4425C31.3767 70.0151 30.2265 69.5218 29.1282 68.8917C27.9278 68.2019 26.8531 67.3126 25.8679 66.3432C23.5991 64.1089 22.1567 61.1251 21.3381 58.0801C21.1526 57.3887 20.9782 56.6974 20.8148 56.0013C20.6734 55.4058 20.554 54.7585 20.5666 54.1441C20.5854 53.1495 21.4418 52.3372 22.4364 52.3592C23.4294 52.3812 24.2323 53.2234 24.2213 54.2117C24.2323 54.317 24.2432 54.4222 24.2542 54.5275C24.4726 55.7106 24.7838 56.8733 25.1216 58.0282C25.3258 58.663 25.5663 59.2789 25.8381 59.887C26.1209 60.4778 26.4257 61.0528 26.7635 61.6138C27.0636 62.0773 27.3794 62.5219 27.7235 62.9556C28.0943 63.3877 28.4856 63.7978 28.8973 64.1922C29.3262 64.574 29.7709 64.9306 30.2359 65.2653C30.6665 65.5513 31.108 65.8168 31.562 66.0651C32.3021 66.4296 33.0657 66.7391 33.8404 67.0235C34.7611 67.3362 35.6881 67.5782 36.6262 67.8217C37.3772 67.9631 38.1236 68.1061 38.8825 68.1941C39.2548 68.2192 39.6256 68.2286 40.0011 68.2255C40.5039 68.1988 41.0004 68.1469 41.4985 68.0684C41.9479 67.9788 42.3894 67.8735 42.8278 67.7463C43.2803 67.5954 43.7218 67.4273 44.1602 67.2372C44.7243 66.9685 45.2711 66.67 45.8037 66.3447C46.2767 66.0352 46.7339 65.7084 47.1786 65.3596C47.5274 65.061 47.8605 64.7499 48.1794 64.4184C48.4214 64.1403 48.6508 63.8559 48.8708 63.5589C49.1505 63.1316 49.4034 62.6885 49.6407 62.236C50.1419 61.2037 50.5598 60.1431 50.9526 59.0652C51.446 57.5773 51.9252 56.0862 52.274 54.5574C52.3338 54.2462 52.3904 53.9351 52.4343 53.6225C52.5726 52.6357 53.5389 51.9412 54.5162 52.0905C55.5092 52.2398 56.1864 53.1872 56.0482 54.1724C55.7748 56.1113 55.1557 57.9921 54.5413 59.843C54.2286 60.7904 53.8626 61.7112 53.4839 62.6335C53.066 63.6469 52.5428 64.6384 51.9331 65.5481C51.1711 66.6873 50.1843 67.6347 49.1159 68.4832C48.1668 69.2374 47.1015 69.8659 46.0158 70.4001C44.828 70.9846 43.56 71.39 42.2606 71.6398C41.4247 71.8001 40.5762 71.8786 39.7262 71.8786C39.3648 71.8786 39.0018 71.8645 38.6389 71.8362Z" fill="#242424"/>
<path d="M34.3982 133.438C32.3949 133.372 30.3837 133.312 28.3914 133.084C27.6136 132.996 26.8453 132.905 26.0769 132.747C25.4909 132.626 24.93 132.459 24.3737 132.239C23.8348 132.027 23.3697 131.645 22.9832 131.222C22.3735 130.561 21.9949 129.67 21.8535 128.79C21.7686 128.264 21.7341 127.726 21.7058 127.195C21.4952 123.283 21.4685 119.353 21.4638 115.436C21.4591 111.543 21.5141 107.648 21.5958 103.754C21.6806 99.68 21.7765 95.6105 21.9462 91.541C22.0294 89.5471 22.141 87.5469 22.3107 85.5577C22.4081 84.4045 22.5102 83.2527 22.6218 82.101C22.6721 81.5747 22.6862 80.9823 22.8512 80.4795C23.0319 79.9296 23.4215 79.4519 23.9778 79.2508C24.9142 78.913 25.9779 79.3687 26.3346 80.3114C26.4823 80.6995 26.4823 81.1206 26.3629 81.504C26.2419 82.3383 26.1807 83.182 26.1005 84.0195C25.7753 87.935 25.5694 91.8505 25.4469 95.7786C25.3243 99.7208 25.2442 103.666 25.1829 107.61C25.0886 113.59 25.0808 119.575 25.2803 125.553C25.318 126.441 25.3353 127.342 25.461 128.221C25.4704 128.259 25.4799 128.297 25.4893 128.335C25.5223 128.43 25.5569 128.525 25.5946 128.619C25.6103 128.647 25.6244 128.676 25.6401 128.702C25.6574 128.726 25.6747 128.751 25.692 128.774C25.714 128.798 25.736 128.822 25.758 128.847C25.7611 128.85 25.7658 128.853 25.769 128.856C25.7926 128.869 25.8161 128.881 25.8397 128.894C25.8994 128.917 25.9607 128.941 26.0204 128.966C26.2577 129.04 26.4933 129.103 26.7337 129.161C27.6073 129.334 28.4872 129.428 29.3718 129.527C31.2306 129.656 33.0847 129.744 34.9466 129.805C36.7016 129.862 38.4551 129.829 40.207 129.775C41.8804 129.681 43.5443 129.56 45.2098 129.389C46.8722 129.216 48.522 128.952 50.1702 128.688C50.1247 128.696 50.0791 128.704 50.0335 128.712C51.7179 128.423 53.396 128.108 55.0756 127.796C56.7474 127.485 58.4255 127.219 60.1051 126.952C60.1884 126.936 60.2685 126.919 60.3503 126.902C60.3832 126.848 60.4147 126.795 60.4461 126.74C60.5278 126.554 60.6016 126.37 60.6723 126.184C60.7917 125.833 60.8923 125.481 60.9787 125.12C61.0714 124.614 61.139 124.105 61.194 123.594C61.2584 122.732 61.3181 121.872 61.3495 121.006C61.3904 119.935 61.403 118.865 61.414 117.792C61.4344 115.93 61.3464 114.066 61.2804 112.204C61.0714 108.248 60.82 104.298 60.4539 100.356C60.091 96.4527 59.6777 92.5529 59.2818 88.6531C58.9942 85.8123 58.7099 82.9715 58.4208 80.1323C58.1615 77.5649 57.8771 74.9991 57.6399 72.4301C57.5487 71.4386 58.2668 70.5258 59.2661 70.4205C60.2465 70.3184 61.183 71.0537 61.2757 72.0467C61.6025 75.5914 62 79.1267 62.3489 82.6698C62.715 86.3936 63.1172 90.1143 63.4927 93.8381C63.895 97.8306 64.2972 101.822 64.5658 105.825C64.6994 107.828 64.811 109.833 64.9178 111.838C64.9712 112.844 65.0152 113.854 65.0294 114.86C65.0435 115.829 65.0812 116.802 65.0702 117.773C65.0577 118.994 65.0388 120.211 64.9916 121.431C64.9728 121.922 64.9445 122.409 64.9068 122.898C64.8298 123.927 64.7544 124.955 64.5297 125.964C64.2673 127.144 63.8698 128.36 63.103 129.31C62.7856 129.705 62.3426 130.052 61.8712 130.24C61.4658 130.402 61.0636 130.497 60.6346 130.564C59.6338 130.723 58.6313 130.877 57.632 131.045C55.7874 131.369 53.9475 131.73 52.1044 132.062C50.0775 132.426 48.0396 132.721 45.9954 132.982C45.0731 133.1 44.1445 133.177 43.2175 133.248C42.2276 133.325 41.2362 133.399 40.2416 133.428C39.1198 133.463 37.9979 133.485 36.8776 133.485C36.0527 133.477 35.2262 133.465 34.3982 133.438Z" fill="#242424"/>
<path d="M69.4084 77.6262C67.9581 77.5775 66.5535 77.2711 65.1975 76.7604C63.9547 76.2938 62.7275 75.6826 61.6292 74.9362C60.8012 74.3722 60.0627 73.7091 59.3415 73.0209C59.2913 72.9785 59.2409 72.9392 59.1875 72.8999C59.1954 72.9046 59.2017 72.9093 59.2095 72.9125C58.7444 72.5762 58.4428 72.0389 58.4569 71.4088C58.4789 70.4441 59.3321 69.5611 60.3267 69.6239C60.842 69.6569 61.2239 69.8502 61.623 70.1644C61.9388 70.4111 62.2247 70.7159 62.517 70.9956C62.8752 71.3051 63.2413 71.5974 63.6247 71.8771C64.0379 72.1504 64.4622 72.3956 64.9005 72.6265C65.5479 72.9455 66.2015 73.2346 66.8771 73.4907C67.1977 73.596 67.5198 73.6855 67.8482 73.7641C68.2237 73.8364 68.5992 73.8929 68.9779 73.9369C69.5451 73.9794 70.1108 73.9919 70.6795 73.9794C71.253 73.9479 71.8203 73.8914 72.3859 73.8081C73.1291 73.6745 73.8581 73.5001 74.5825 73.288C75.4199 73.0193 76.2385 72.7145 77.0477 72.3751C77.6087 72.1127 78.168 71.8503 78.7305 71.5879C78.9961 71.4622 79.2506 71.2957 79.5051 71.1527C79.8147 70.9799 80.1226 70.807 80.4321 70.6326C80.4054 70.6499 80.3772 70.6672 80.3505 70.6845C80.8611 70.364 81.3733 70.0418 81.884 69.7229C81.8148 69.7653 81.7473 69.8077 81.6782 69.8517C82.1763 69.5391 82.6539 69.1918 83.1158 68.8257C83.6626 68.3591 84.1748 67.8626 84.665 67.3378C85.4161 66.4972 86.098 65.6031 86.7784 64.7059C86.7721 64.7154 86.7642 64.7264 86.7579 64.7358C87.212 64.0822 87.6724 63.4301 88.0731 62.7403C88.5004 62.0034 88.9153 61.2618 89.3081 60.5076C89.7103 59.6764 90.0874 58.8374 90.4095 57.9701C90.4299 57.9119 90.4503 57.8522 90.4708 57.7941C90.6342 57.3227 90.9154 56.9283 91.3617 56.6895C91.778 56.4633 92.2761 56.413 92.7318 56.5418C93.6509 56.8042 94.3077 57.8617 93.984 58.8028C93.5268 60.1289 92.958 61.3922 92.3154 62.6414C91.7278 63.7836 91.0789 64.9086 90.3467 65.9661C89.9193 66.5804 89.4887 67.1853 89.0362 67.7824C88.6324 68.3166 88.1988 68.8257 87.7682 69.3411C86.7784 70.5305 85.6157 71.5832 84.3461 72.4647C83.6454 72.9518 82.9069 73.3886 82.1841 73.8427C82.2532 73.7987 82.3208 73.7562 82.3899 73.7122C81.554 74.237 80.6773 74.7053 79.7848 75.1248C79.1186 75.4375 78.454 75.7533 77.7736 76.0314C76.358 76.6096 74.8841 77.0558 73.3836 77.3418C72.301 77.5461 71.2043 77.6372 70.106 77.6372C69.8703 77.6388 69.6394 77.634 69.4084 77.6262Z" fill="#242424"/>
<path d="M92.7302 56.5417C93.6493 56.8041 94.3061 57.8615 93.9824 58.8027L93.9809 58.8058C93.7499 58.9095 93.5048 58.9582 93.2612 58.9582C92.9313 58.9582 92.6029 58.8702 92.3028 58.7021C92.0027 58.5356 91.7309 58.303 91.4496 58.105C91.1966 57.9244 90.9452 57.7421 90.6938 57.5598C90.6608 57.5347 90.6279 57.5111 90.5964 57.4875C90.6499 57.3807 90.7127 57.277 90.7834 57.1827C90.7865 57.1796 90.7913 57.1733 90.7913 57.1733C90.8164 57.1372 90.8463 57.1042 90.8745 57.0712C90.8903 57.0523 90.9059 57.035 90.9232 57.0178C90.9609 56.9785 91.0002 56.9408 91.0395 56.9046C91.0599 56.8889 91.0788 56.8716 91.0992 56.8559C91.1322 56.8292 91.1683 56.8025 91.2029 56.7805C91.2265 56.7632 91.25 56.7475 91.2752 56.7334C91.3003 56.7161 91.3286 56.7004 91.3569 56.6862C91.415 56.6548 91.4763 56.6265 91.5376 56.6014C91.9163 56.4521 92.3389 56.4301 92.7302 56.5417Z" fill="#242424"/>
<path d="M22.2006 175.764C21.1353 175.662 20.1187 175.25 19.2059 174.71C17.3157 173.589 16.2346 171.204 16.508 169.045C16.6322 168.057 16.9574 167.114 17.5341 166.299C17.8373 165.87 18.1783 165.472 18.5884 165.141C18.9922 164.814 19.418 164.57 19.8956 164.368C20.345 164.174 20.8808 164.068 21.3647 164.008C21.8942 163.94 22.43 163.915 22.9627 163.972C24.1756 164.102 25.3226 164.501 26.4225 165.021C27.0871 165.334 27.7487 165.691 28.3709 166.094C28.4196 164.308 28.4447 162.522 28.5374 160.737C28.6835 157.96 28.8752 155.184 29.1172 152.414C29.1172 152.417 29.1172 152.422 29.1156 152.425C29.4142 148.965 29.7252 145.508 30.0599 142.052C30.2233 140.353 30.3867 138.658 30.5564 136.961C30.6429 136.097 30.7371 135.234 30.833 134.371C30.9068 133.711 30.976 133.053 31.0985 132.403C31.2179 131.769 31.4411 131.194 31.9674 130.797C32.7609 130.195 33.9456 130.413 34.5191 131.207C34.9119 131.747 34.9527 132.426 34.7076 132.996C34.7029 133.015 34.6982 133.036 34.6935 133.055C34.5222 133.991 34.4436 134.948 34.3384 135.894C34.2708 136.496 34.2095 137.099 34.1498 137.701C34.0116 139.102 33.8764 140.505 33.7382 141.907C33.4522 144.859 33.1772 147.815 32.918 150.772C32.9211 150.736 32.9243 150.698 32.9274 150.662C32.8662 151.367 32.8049 152.076 32.7436 152.783C32.7452 152.77 32.7451 152.758 32.7467 152.747C32.7451 152.769 32.7436 152.791 32.742 152.813C32.7373 152.868 32.7326 152.923 32.7279 152.979C32.731 152.943 32.7342 152.909 32.7373 152.874C32.4639 156.204 32.2172 159.538 32.101 162.877C32.0428 164.534 32.0067 166.193 31.9643 167.853C31.9485 168.462 31.8935 169.048 31.7521 169.645C31.7003 169.861 31.5824 170.085 31.441 170.285C31.4379 170.679 31.3091 171.077 31.053 171.408C30.4857 172.141 29.862 172.829 29.2178 173.492C28.5343 174.194 27.7235 174.768 26.8153 175.143C25.9998 175.481 25.1215 175.67 24.2432 175.751C23.8724 175.786 23.5047 175.805 23.1371 175.805C22.8275 175.808 22.5149 175.794 22.2006 175.764ZM23.2015 172.167C23.643 172.141 24.0767 172.095 24.515 172.029C24.68 171.994 24.845 171.958 25.01 171.917C25.1781 171.863 25.3431 171.801 25.508 171.734C25.629 171.674 25.7484 171.611 25.8663 171.545C26.0061 171.449 26.1428 171.35 26.2764 171.247C26.5655 170.987 26.8357 170.709 27.1013 170.425C27.2333 170.28 27.3621 170.134 27.491 169.988C27.2317 169.782 26.9693 169.578 26.7006 169.383C26.2072 169.055 25.6966 168.761 25.1718 168.48C24.7523 168.272 24.3281 168.082 23.8913 167.914C23.6399 167.832 23.3885 167.76 23.1324 167.696C22.9297 167.656 22.7301 167.625 22.5259 167.6C22.419 167.595 22.3106 167.593 22.2022 167.597C22.0796 167.604 21.9555 167.615 21.833 167.633C21.635 167.672 21.4417 167.718 21.2469 167.768C21.2139 167.779 21.1809 167.791 21.1479 167.806C21.1086 167.828 21.0678 167.85 21.0285 167.873C20.9845 167.903 20.9421 167.934 20.8996 167.967C20.8572 168.007 20.8164 168.048 20.7755 168.087C20.6749 168.206 20.5791 168.327 20.4848 168.454C20.4471 168.514 20.411 168.574 20.378 168.635C20.3387 168.717 20.3042 168.8 20.2712 168.885C20.2382 168.989 20.2083 169.092 20.1816 169.198C20.1596 169.309 20.1423 169.419 20.1297 169.531C20.1234 169.631 20.1219 169.732 20.1234 169.834C20.1297 169.909 20.1376 169.986 20.147 170.062C20.1769 170.216 20.2146 170.367 20.2617 170.516C20.2649 170.522 20.268 170.529 20.2712 170.536C20.2586 170.494 20.2445 170.452 20.2303 170.409C20.2649 170.496 20.2994 170.58 20.3324 170.667C20.3748 170.752 20.4204 170.833 20.4676 170.915C20.5446 171.033 20.6262 171.146 20.7142 171.256C20.7598 171.308 20.8069 171.358 20.8556 171.407C20.8965 171.44 20.9389 171.471 20.9798 171.504C21.1432 171.61 21.3081 171.707 21.4794 171.8C21.58 171.847 21.6805 171.892 21.7827 171.933C21.9602 171.99 22.1378 172.04 22.32 172.086C22.5007 172.117 22.6814 172.144 22.8637 172.164C22.9768 172.164 23.0884 172.167 23.2015 172.167Z" fill="#242424"/>
<path d="M59.9794 174.023C59.0948 173.775 58.2432 173.406 57.4199 173.003C56.496 172.552 55.6224 172.007 54.8195 171.366C54.6026 171.193 54.4361 170.978 54.3214 170.741C54.0873 170.595 53.8752 170.408 53.7369 170.197C53.6096 170.007 53.473 169.823 53.396 169.606C53.3221 169.4 53.2593 169.198 53.2059 168.986C53.1493 168.758 53.1037 168.525 53.0518 168.296C52.8554 167.388 52.7015 166.475 52.5726 165.556C52.0447 161.783 51.6582 157.99 51.2308 154.205C50.805 150.445 50.3776 146.688 49.9534 142.928C49.7428 141.073 49.548 139.214 49.3563 137.355C49.2746 136.56 49.1913 135.757 49.1458 134.959C49.1175 134.467 49.0908 133.979 49.0625 133.488C49.0342 132.99 49.0153 132.47 49.0892 131.977C49.1269 131.735 49.2055 131.463 49.3438 131.262C49.6266 130.849 49.9927 130.541 50.4892 130.423C50.9496 130.315 51.4461 130.39 51.8515 130.632C52.5082 131.026 52.8806 131.883 52.7046 132.629C52.6983 132.819 52.6999 133.011 52.703 133.202C52.934 137.196 53.4337 141.173 53.8862 145.147C54.3214 148.974 54.7567 152.804 55.184 156.634C55.3726 158.322 55.5658 160.011 55.7669 161.698C55.9508 163.23 56.1283 164.767 56.3781 166.289C56.4033 166.426 56.43 166.564 56.4567 166.701C57.9494 165.573 59.3101 164.261 60.996 163.411C62.8988 162.452 65.1849 162.528 66.995 163.673C67.9802 164.297 68.6165 165.301 69.0674 166.349C69.2953 166.885 69.3927 167.482 69.4461 168.057C69.5074 168.714 69.4618 169.385 69.3424 170.032C68.9276 172.284 67.0547 173.981 64.8597 174.452C64.3899 174.553 63.9138 174.597 63.4361 174.597C62.2671 174.595 61.0903 174.336 59.9794 174.023ZM63.5697 170.926C63.7551 170.914 63.9389 170.896 64.1243 170.871C64.206 170.854 64.2861 170.835 64.3678 170.811C64.5108 170.761 64.6507 170.703 64.7858 170.634C64.7136 170.667 64.6397 170.7 64.5674 170.733C64.7324 170.648 64.8911 170.557 65.0466 170.456C65.0325 170.467 65.0183 170.48 65.0058 170.491C65.0215 170.478 65.0372 170.466 65.0545 170.452C65.0812 170.434 65.1079 170.417 65.1346 170.398C65.1111 170.412 65.089 170.426 65.0655 170.441C65.0906 170.42 65.1142 170.4 65.1394 170.378C65.1127 170.4 65.0859 170.422 65.0592 170.445C65.0168 170.472 64.9728 170.499 64.9288 170.525C65.0105 170.466 65.0922 170.406 65.1739 170.346C65.2289 170.298 65.2823 170.247 65.3342 170.196C65.3829 170.133 65.4332 170.07 65.4819 170.009C65.5133 169.96 65.5432 169.91 65.5714 169.859C65.6107 169.771 65.6484 169.683 65.6861 169.595C65.6704 169.642 65.6531 169.69 65.6358 169.737C65.6186 169.77 65.6013 169.804 65.584 169.837C65.5997 169.807 65.617 169.778 65.6327 169.746C65.6249 169.77 65.6154 169.793 65.6076 169.817C65.6186 169.79 65.628 169.762 65.639 169.735C65.6531 169.708 65.6657 169.682 65.6783 169.655C65.6657 169.679 65.6547 169.701 65.6421 169.724C65.6877 169.598 65.7254 169.473 65.7584 169.344C65.7757 169.25 65.7898 169.155 65.8008 169.06C65.8118 168.833 65.8134 168.61 65.8087 168.385C65.8008 168.297 65.793 168.208 65.7851 168.12C65.7647 168.015 65.7396 167.911 65.7113 167.807C65.6767 167.707 65.639 167.608 65.5982 167.51C65.5463 167.403 65.4913 167.3 65.43 167.198C65.3735 167.121 65.3184 167.045 65.2619 166.97C65.2195 166.924 65.177 166.879 65.133 166.835C65.0875 166.799 65.0435 166.762 64.9979 166.728C64.9555 166.701 64.9115 166.673 64.8675 166.646C64.8942 166.66 64.9194 166.673 64.9461 166.687C64.9429 166.684 64.9398 166.682 64.9351 166.679C64.844 166.634 64.7513 166.591 64.6554 166.553C64.5124 166.508 64.3695 166.467 64.2233 166.432C64.1306 166.415 64.0379 166.401 63.9452 166.392C63.8541 166.385 63.7645 166.384 63.675 166.385C63.5791 166.393 63.4848 166.403 63.389 166.417C63.312 166.432 63.235 166.451 63.158 166.47C62.9915 166.528 62.8296 166.591 62.6678 166.659C62.4667 166.761 62.2703 166.869 62.0754 166.984C61.2238 167.543 60.4367 168.191 59.6463 168.832C59.3431 169.078 59.0383 169.323 58.7256 169.561C58.7932 169.598 58.8623 169.635 58.9298 169.672C59.3918 169.895 59.8568 170.098 60.3314 170.288C60.7383 170.425 61.1453 170.549 61.5601 170.667C62.0016 170.761 62.4415 170.846 62.8925 170.901C63.1187 170.918 63.3418 170.926 63.5697 170.926Z" fill="#242424"/>
<path d="M16.8491 124.834C16.2505 124.009 16.472 122.89 17.2592 122.282C17.4996 122.097 17.7352 121.907 17.9709 121.717C18.6104 121.17 19.2153 120.598 19.7983 119.992C19.9193 119.855 20.0371 119.718 20.1518 119.578C19.9821 119.489 19.8109 119.401 19.6396 119.313C19.7103 119.35 19.781 119.385 19.8517 119.423C16.395 117.669 12.8613 116.068 9.45488 114.217C8.60327 113.754 7.75951 113.27 6.9409 112.745C6.3234 112.346 5.71376 111.944 5.11826 111.51C4.03726 110.723 3.09453 109.782 2.24921 108.749C1.48716 107.819 0.927794 106.754 0.479992 105.643C0.01805 104.494 -0.137515 103.189 0.132737 101.977C0.472123 100.447 1.34731 99.036 2.28848 97.7963C2.87141 97.028 3.45589 96.2596 4.08124 95.5243C4.44891 95.0922 4.8056 94.6428 5.19369 94.2312C5.58964 93.8117 5.98403 93.3921 6.37998 92.9726C6.96762 92.3473 7.59296 91.7424 8.22774 91.1657C8.93637 90.5199 9.63871 89.8694 10.3615 89.2394C11.9893 87.8206 13.6281 86.4222 15.3454 85.1118C16.9292 83.9019 18.5727 82.7753 20.2194 81.655C20.7724 81.2795 21.3224 80.8977 21.899 80.5567C22.3782 80.2739 22.8575 79.9691 23.3791 79.7696C24.3093 79.4145 25.3856 79.9015 25.736 80.8301C26.0895 81.7619 25.6071 82.8288 24.6785 83.1854C24.3344 83.3535 24.0076 83.5515 23.6792 83.7479C22.053 84.7975 20.4692 85.9084 18.8933 87.0302C17.377 88.1081 15.944 89.2818 14.5111 90.4649C13.2871 91.5287 12.0773 92.6018 10.8768 93.6938C9.8194 94.6554 8.83264 95.6893 7.85219 96.7295C6.88274 97.8686 5.94629 99.0219 5.04126 100.211C4.7113 100.703 4.39076 101.192 4.10637 101.713C4.00267 101.926 3.90685 102.138 3.81886 102.354C3.77015 102.502 3.72773 102.65 3.69002 102.801C3.67902 102.879 3.66803 102.958 3.65703 103.036C3.65389 103.109 3.65075 103.181 3.65075 103.253C3.6586 103.336 3.66644 103.421 3.67429 103.506C3.71357 103.712 3.7607 103.913 3.8157 104.116C3.90054 104.35 3.99169 104.579 4.08911 104.809C4.23523 105.114 4.39077 105.407 4.56046 105.7C4.79614 106.059 5.0491 106.4 5.31778 106.737C5.6226 107.085 5.94001 107.415 6.27468 107.736C6.77433 108.176 7.29597 108.583 7.83805 108.969C9.4957 110.105 11.2649 111.056 13.0436 111.986C15.6785 113.314 18.3433 114.58 20.9799 115.903C21.7293 116.279 22.4867 116.646 23.1749 117.126C23.4923 117.347 23.7499 117.731 23.9196 118.072C24.083 118.398 24.1899 118.779 24.1804 119.145C24.171 119.534 24.1255 119.93 23.9715 120.293C23.7908 120.716 23.5771 121.113 23.3006 121.483C22.2148 122.93 20.8227 124.141 19.3992 125.244C19.0944 125.481 18.7267 125.591 18.3606 125.591C17.7808 125.59 17.1979 125.315 16.8491 124.834Z" fill="#242424"/>
<path d="M91.3585 56.6897C91.4166 56.6583 91.4779 56.63 91.5392 56.6049C91.3444 56.8594 91.082 57.0589 90.7819 57.1846C90.9343 56.9851 91.1228 56.8154 91.3585 56.6897Z" fill="#242424"/>
<path d="M91.7214 59.5336C90.5178 59.4267 89.8202 57.9529 90.3497 56.919C90.5681 56.4932 90.8494 56.1051 91.1259 55.7155C91.6695 54.9236 92.1927 54.1144 92.6782 53.2863C92.9532 52.8181 93.2046 52.3358 93.4859 51.8691C93.8252 51.3082 94.2212 50.7755 94.6046 50.2429C95.1859 49.4337 96.4241 49.3536 97.1736 49.9522C97.5554 50.2554 97.802 50.7064 97.8523 51.1903C97.9042 51.6821 97.7486 52.1252 97.4642 52.5212C97.3417 52.6924 97.2191 52.8653 97.0966 53.0397C96.5011 53.9133 96.0187 54.8513 95.4656 55.7516C94.9691 56.5545 94.4412 57.3386 93.9023 58.1132C93.8221 58.2294 93.7435 58.3473 93.6681 58.4683C93.5377 58.7621 93.3303 59.0198 93.0679 59.2115C92.7333 59.4534 92.3593 59.5477 91.9633 59.5477C91.8832 59.5446 91.8031 59.5414 91.7214 59.5336Z" fill="#242424"/>
<path d="M90.0779 59.4109C89.6427 58.9773 89.4918 58.3393 89.4007 57.7533C89.3347 57.3227 89.2876 56.8906 89.2546 56.4586C89.1933 55.6274 89.1587 54.7946 89.1305 53.9619C89.0755 52.3812 89.0598 50.7974 89.0236 49.2167C89.0001 48.2206 89.9318 47.4098 90.8934 47.4318C91.3742 47.4428 91.8393 47.6471 92.1724 47.9959C92.5165 48.3573 92.6673 48.8098 92.6783 49.3016C92.7192 51.0944 92.7474 52.8872 92.8071 54.6799C92.8496 55.552 92.8967 56.4256 93.024 57.2897C93.0255 57.2945 93.0256 57.2992 93.0271 57.3039C93.387 58.0015 93.244 58.916 92.6626 59.4706C92.3107 59.8069 91.866 59.9687 91.4198 59.9687C90.9342 59.9687 90.4472 59.777 90.0779 59.4109Z" fill="#242424"/>
<path d="M91.3757 60.5625C90.7111 59.8664 90.6844 58.633 91.4354 57.9778C92.2132 57.2975 93.1261 56.7648 93.9792 56.1882C94.9707 55.5204 95.9574 54.8479 96.941 54.1692C98.7857 52.8996 100.629 51.63 102.476 50.3668C103.298 49.8043 104.433 49.9535 105.03 50.7769C105.602 51.5672 105.443 52.7676 104.62 53.3285C102.833 54.551 101.051 55.7781 99.268 57.0052C98.2938 57.6746 97.3181 58.3439 96.3361 59.0054C95.4829 59.5805 94.581 60.1147 93.7844 60.7652C93.8174 60.7385 93.8504 60.7118 93.8834 60.6835C93.5251 60.9663 93.0946 61.1156 92.6657 61.1156C92.199 61.1171 91.7355 60.938 91.3757 60.5625Z" fill="#242424"/>
<path d="M100.89 63.8639C99.4095 63.6549 97.9404 63.3721 96.4728 63.083C95.6778 62.9258 94.8796 62.764 94.0924 62.5629C93.4152 62.3916 92.7632 62.1512 92.1268 61.8668C91.5235 61.595 91.0584 61.1723 90.8855 60.5124C90.6341 59.5493 91.2878 58.5358 92.2415 58.3111C92.7333 58.1949 93.2204 58.2923 93.6164 58.5405C93.6132 58.5358 93.61 58.5311 93.6053 58.5264C93.5393 58.4934 93.4749 58.4588 93.4089 58.4258C93.698 58.5719 93.9935 58.6976 94.2951 58.8108C94.9205 59.015 95.5568 59.1596 96.1963 59.3026C97.9372 59.653 99.6782 60.0033 101.436 60.25C102.423 60.3867 103.118 61.3562 102.968 62.3319C102.832 63.2401 102.03 63.8811 101.141 63.8811C101.059 63.8811 100.974 63.8749 100.89 63.8639Z" fill="#242424"/>
<path d="M89.6898 60.7481C88.5003 60.1447 87.4947 59.1753 86.5064 58.2985C85.482 57.3903 84.4607 56.4806 83.4598 55.5488C82.7307 54.8685 82.8298 53.6209 83.5195 52.9642C83.8683 52.6311 84.3413 52.4472 84.8236 52.4582C85.3264 52.4692 85.7428 52.6876 86.1026 53.0239C86.3116 53.2187 86.5205 53.4104 86.7311 53.6037C86.6714 53.5487 86.6101 53.4921 86.5488 53.4355C87.2889 54.1096 88.0352 54.7742 88.7831 55.4389C89.5216 56.0925 90.2617 56.7336 91.0536 57.3196C91.1463 57.3793 91.2405 57.439 91.3379 57.4925C91.2955 57.4705 91.2547 57.4485 91.2123 57.428C91.6271 57.6527 91.9554 57.9685 92.1283 58.4226C92.2948 58.8641 92.2838 59.3654 92.0969 59.7975C91.814 60.4511 91.1038 60.913 90.3905 60.913C90.1501 60.9115 89.9113 60.8612 89.6898 60.7481Z" fill="#242424"/>
</svg>
