<svg width="22" height="22" viewBox="0 0 22 22" fill="none" xmlns="http://www.w3.org/2000/svg">
<path d="M11.0009 15.9037C11.8261 15.9037 12.4951 15.2348 12.4951 14.4095C12.4951 13.5843 11.8261 12.9153 11.0009 12.9153C10.1757 12.9153 9.50676 13.5843 9.50676 14.4095C9.50676 15.2348 10.1757 15.9037 11.0009 15.9037Z" fill="#242424"/>
<path d="M16.7566 8.73551V7.58967C16.7566 5.11467 16.1608 1.83301 10.9999 1.83301C5.83909 1.83301 5.24325 5.11467 5.24325 7.58967V8.73551C2.67659 9.05634 1.83325 10.358 1.83325 13.5572V15.2622C1.83325 19.0205 2.97909 20.1663 6.73742 20.1663H15.2624C19.0208 20.1663 20.1666 19.0205 20.1666 15.2622V13.5572C20.1666 10.358 19.3233 9.05634 16.7566 8.73551ZM10.9999 17.178C9.46909 17.178 8.23159 15.9313 8.23159 14.4097C8.23159 12.8788 9.47825 11.6413 10.9999 11.6413C12.5216 11.6413 13.7683 12.888 13.7683 14.4097C13.7683 15.9405 12.5308 17.178 10.9999 17.178ZM6.73742 8.65301C6.66409 8.65301 6.59992 8.65301 6.52659 8.65301V7.58967C6.52659 4.90384 7.28742 3.11634 10.9999 3.11634C14.7124 3.11634 15.4733 4.90384 15.4733 7.58967V8.66217C15.3999 8.66217 15.3358 8.66217 15.2624 8.66217H6.73742V8.65301Z" fill="#242424"/>
</svg>
