<svg width="22" height="22" viewBox="0 0 22 22" fill="none" xmlns="http://www.w3.org/2000/svg">
<path d="M7.22184 11.0638C7.22184 10.688 7.53351 10.3763 7.90934 10.3763H12.9327V2.62134C12.9235 2.18134 12.5752 1.83301 12.1352 1.83301C6.73601 1.83301 2.96851 5.60051 2.96851 10.9997C2.96851 16.3988 6.73601 20.1663 12.1352 20.1663C12.566 20.1663 12.9235 19.818 12.9235 19.378V11.7422H7.90934C7.52434 11.7513 7.22184 11.4397 7.22184 11.0638Z" fill="#242424"/>
<path d="M18.8299 10.5782L16.2265 7.96565C15.9607 7.69982 15.5207 7.69982 15.2549 7.96565C14.989 8.23149 14.989 8.67149 15.2549 8.93732L16.6849 10.3674H12.9265V11.7424H16.6757L15.2457 13.1724C14.9799 13.4382 14.9799 13.8782 15.2457 14.144C15.3832 14.2815 15.5574 14.3457 15.7315 14.3457C15.9057 14.3457 16.0799 14.2815 16.2174 14.144L18.8207 11.5315C19.0957 11.2749 19.0957 10.844 18.8299 10.5782Z" fill="#242424"/>
</svg>
