<svg width="24" height="24" viewBox="0 0 24 24" fill="none" xmlns="http://www.w3.org/2000/svg">
<path d="M20.854 15.9367C20.7054 15.6859 20.2874 15.2959 19.2472 15.4816C18.6714 15.5838 18.0863 15.6302 17.5012 15.6023C15.3373 15.5095 13.3777 14.5157 12.0124 12.9833C10.8051 11.6367 10.0621 9.88133 10.0528 7.98672C10.0528 6.92796 10.2571 5.90636 10.6751 4.94048C11.0837 4.00246 10.7958 3.51023 10.5915 3.30591C10.3779 3.0923 9.87637 2.79511 8.89192 3.20375C5.0934 4.80117 2.74371 8.60897 3.02233 12.6861C3.30095 16.5218 5.99427 19.8002 9.5606 21.0354C10.415 21.3326 11.3159 21.5091 12.2446 21.5462C12.3932 21.5555 12.5418 21.5648 12.6904 21.5648C15.8017 21.5648 18.7179 20.0974 20.5568 17.5991C21.179 16.7354 21.0118 16.1874 20.854 15.9367Z" fill="#242424"/>
</svg>
