<svg width="24" height="24" viewBox="0 0 24 24" fill="none" xmlns="http://www.w3.org/2000/svg">
<path d="M18.5263 14.241L17.6263 12.747C17.4373 12.414 17.2663 11.784 17.2663 11.415V9.138C17.2663 7.023 16.0243 5.196 14.2333 4.341C13.7653 3.513 12.9013 3 11.9113 3C10.9303 3 10.0483 3.531 9.58033 4.368C7.82533 5.241 6.61033 7.05 6.61033 9.138V11.415C6.61033 11.784 6.43933 12.414 6.25033 12.738L5.34133 14.241C4.98133 14.844 4.90033 15.51 5.12533 16.122C5.34133 16.725 5.85433 17.193 6.52033 17.418C8.26633 18.012 10.1023 18.3 11.9383 18.3C13.7743 18.3 15.6103 18.012 17.3563 17.427C17.9863 17.22 18.4723 16.743 18.7063 16.122C18.9403 15.501 18.8773 14.817 18.5263 14.241Z" fill="#242424"/>
<path d="M14.4671 19.209C14.0891 20.253 13.0901 21 11.9201 21C11.2091 21 10.5071 20.712 10.0121 20.199C9.72411 19.929 9.50811 19.569 9.38211 19.2C9.49911 19.218 9.61611 19.227 9.74211 19.245C9.94911 19.272 10.1651 19.299 10.3811 19.317C10.8941 19.362 11.4161 19.389 11.9381 19.389C12.4511 19.389 12.9641 19.362 13.4681 19.317C13.6571 19.299 13.8461 19.29 14.0261 19.263C14.1701 19.245 14.3141 19.227 14.4671 19.209Z" fill="#242424"/>
</svg>
