<svg width="22" height="22" viewBox="0 0 22 22" fill="none" xmlns="http://www.w3.org/2000/svg">
<path d="M13.0693 6.72591L8.33521 6.74219L8.47866 15.4092L13.2128 15.3929L13.0693 6.72591Z" fill="#FF5F00"/>
<path d="M8.64671 11.093C8.61742 9.33016 9.40709 7.76385 10.644 6.74786C9.71036 6.01524 8.5399 5.57469 7.2711 5.57903C4.26525 5.58933 1.87439 8.06558 1.92508 11.116C1.97577 14.1664 4.44865 16.626 7.45451 16.6157C8.72331 16.6113 9.87899 16.1628 10.7882 15.4239C9.5179 14.4318 8.67601 12.8558 8.64671 11.093Z" fill="#EB001B"/>
<path d="M19.6229 11.0185C19.6736 14.0689 17.2828 16.5452 14.2769 16.5554C13.0081 16.5598 11.8376 16.1192 10.904 15.3866C12.156 14.3706 12.9306 12.8043 12.9013 11.0415C12.872 9.27872 12.0304 7.71798 10.7598 6.71058C11.669 5.97165 12.8247 5.52313 14.0935 5.51879C17.0994 5.50849 19.5725 7.98341 19.6229 11.0185Z" fill="#F79E1B"/>
</svg>
