<svg width="22" height="22" viewBox="0 0 22 22" fill="none" xmlns="http://www.w3.org/2000/svg">
<path d="M9.07317 4.5957C7.39521 4.5957 6.03107 5.95984 6.03107 7.6378C6.03107 9.28373 7.31836 10.6159 8.99631 10.6735C9.04755 10.6671 9.09879 10.6671 9.13721 10.6735C9.15002 10.6735 9.15642 10.6735 9.16923 10.6735C9.17564 10.6735 9.17564 10.6735 9.18204 10.6735C10.8216 10.6159 12.1089 9.28373 12.1153 7.6378C12.1153 5.95984 10.7511 4.5957 9.07317 4.5957Z" fill="#242424"/>
<path d="M12.3272 12.3764C10.5404 11.1851 7.62637 11.1851 5.82673 12.3764C5.01337 12.9207 4.56506 13.6572 4.56506 14.445C4.56506 15.2327 5.01337 15.9628 5.82033 16.5008C6.71695 17.1028 7.89536 17.4038 9.07377 17.4038C10.2522 17.4038 11.4306 17.1028 12.3272 16.5008C13.1341 15.9564 13.5824 15.2263 13.5824 14.4322C13.576 13.6444 13.1341 12.9143 12.3272 12.3764Z" fill="#242424"/>
<path d="M16.1112 8.01447C16.2137 9.25693 15.3299 10.3456 14.1067 10.493C14.1002 10.493 14.1002 10.493 14.0938 10.493H14.0746C14.0362 10.493 13.9978 10.493 13.9658 10.5058C13.3445 10.5378 12.7745 10.3392 12.3454 9.97419C13.0051 9.38502 13.383 8.50121 13.3061 7.54055C13.2613 7.02179 13.0819 6.54786 12.813 6.14439C13.0563 6.0227 13.3381 5.94585 13.6263 5.92023C14.8816 5.81136 16.0024 6.7464 16.1112 8.01447Z" fill="#242424"/>
<path d="M17.3914 13.94C17.3402 14.5612 16.9431 15.0992 16.277 15.4642C15.6366 15.8165 14.8296 15.983 14.0291 15.9638C14.4902 15.5475 14.7592 15.0287 14.8104 14.478C14.8745 13.6838 14.4966 12.9217 13.7409 12.3133C13.3118 11.9738 12.8123 11.7049 12.2679 11.5063C13.6833 11.0964 15.4637 11.3718 16.5588 12.2556C17.148 12.7296 17.4491 13.3252 17.3914 13.94Z" fill="#242424"/>
</svg>
