<svg width="153" height="176" viewBox="0 0 153 176" fill="none" xmlns="http://www.w3.org/2000/svg">
<path d="M70.2145 62.2281C69.6972 62.2115 69.1815 62.1933 68.6658 62.1766C68.1864 62.1599 67.7026 62.0765 67.2263 62.0249C66.7196 61.9703 66.2115 61.9157 65.7019 61.8596C65.2347 61.8095 64.7644 61.6957 64.3018 61.6138C63.8376 61.5319 63.3765 61.4515 62.9139 61.3696C61.5563 61.1299 60.2108 60.7401 58.9003 60.3169C56.4339 59.5191 54.0509 58.433 51.8257 57.1027C50.7123 56.4368 49.6551 55.6693 48.6221 54.882C47.5254 54.0493 46.4955 53.1346 45.505 52.179C43.5483 50.2921 41.8919 48.1093 40.4706 45.7976C39.0614 43.5042 38.0406 40.9923 37.4339 38.3696C36.8392 35.8016 36.8226 33.1532 37.1684 30.5518C37.5158 27.9201 38.3879 25.3869 39.5256 22.9979C41.8084 18.2016 45.2092 13.9074 49.2501 10.4748C50.9156 9.05803 52.7237 7.75354 54.647 6.70539C55.545 6.21697 56.4294 5.69366 57.3622 5.27349C58.2754 4.86242 59.1779 4.42405 60.1183 4.08125C60.7099 3.86434 61.2999 3.64895 61.8915 3.43355C62.2662 3.29704 62.6499 3.19389 63.0322 3.08164C63.6086 2.91327 64.1865 2.7449 64.7644 2.57805C65.1634 2.46125 65.576 2.38389 65.9794 2.29136C66.4618 2.18063 66.9411 2.06838 67.422 1.95765C67.9544 1.83631 68.502 1.75895 69.0389 1.65884C70.078 1.46771 71.1185 1.32058 72.1652 1.17496C72.511 1.12642 72.8508 1.09153 73.1981 1.06271C73.7912 1.01569 74.3873 0.938337 74.9819 0.927719C75.4855 0.920134 75.9922 0.912546 76.4958 0.903445C76.9796 0.895861 77.4605 0.929235 77.9428 0.948954C78.7725 0.985359 79.5962 1.06575 80.4153 1.20833C80.9371 1.29934 81.4498 1.43738 81.9579 1.59058C82.1612 1.54811 82.372 1.54508 82.5844 1.59058C86.2567 2.38086 89.9381 3.25608 93.4663 4.55602C95.2137 5.20068 96.8989 6.00613 98.531 6.89955C99.3607 7.35309 100.172 7.84151 100.949 8.38303C101.779 8.96095 102.567 9.57224 103.347 10.2184C104.897 11.5047 106.24 13.0261 107.5 14.59C108.644 16.0082 109.653 17.5782 110.493 19.1936C110.965 20.1022 111.415 21.0184 111.797 21.9694C112.183 22.9296 112.492 23.9034 112.758 24.903C113 25.8177 113.155 26.7521 113.246 27.694C113.304 28.2932 113.302 28.8999 113.323 29.5006C113.34 30.0072 113.316 30.5351 113.27 31.0417C113.229 31.4922 113.216 31.9503 113.149 32.3978C113.07 32.9105 113.012 33.4308 112.899 33.9359C112.799 34.3818 112.726 34.8475 112.592 35.2844C112.441 35.7788 112.312 36.287 112.127 36.7693C111.96 37.2016 111.814 37.6506 111.623 38.0708C111.395 38.5638 111.185 39.0674 110.934 39.5467C110.702 39.9942 110.469 40.4401 110.237 40.8861C109.772 41.7795 109.207 42.6214 108.659 43.4647C108.166 44.2231 107.618 44.9634 107.028 45.6505C106.692 46.0434 106.369 46.4544 106.011 46.8291C105.607 47.2477 105.205 47.6664 104.802 48.085C104.196 48.7145 103.537 49.3031 102.881 49.881C102.052 50.6091 101.211 51.3114 100.356 52.0061C99.6353 52.5916 98.8754 53.1255 98.1275 53.6762C97.7741 53.9355 97.3858 54.16 97.0172 54.3982C96.641 54.6439 96.2679 54.8987 95.8781 55.1247C94.9998 55.6344 94.1306 56.1516 93.2236 56.6128C92.7291 56.8646 92.2331 57.1164 91.7371 57.3697C91.2896 57.5987 90.8163 57.7823 90.3598 57.987C89.9229 58.1812 89.4861 58.3769 89.0492 58.571C88.5881 58.7773 88.0981 58.9336 87.6264 59.1125C87.2062 59.2718 86.7861 59.4326 86.3644 59.5934C85.8759 59.7799 85.3572 59.9104 84.8566 60.0681C84.4107 60.2077 83.9662 60.3488 83.5188 60.4883C83.0212 60.6446 82.5085 60.7523 82.0034 60.8797C81.4756 61.0116 80.9477 61.1436 80.4214 61.2756C80.0103 61.3772 79.584 61.4333 79.1684 61.5107C78.6102 61.6123 78.0505 61.717 77.4938 61.8201C77.0524 61.902 76.6034 61.9339 76.1575 61.9809C75.5932 62.0431 75.029 62.1023 74.4632 62.1644C74.0294 62.2099 73.5804 62.1993 73.145 62.213C72.5914 62.2312 72.0392 62.2494 71.4841 62.2691C71.4264 62.2706 71.3673 62.2721 71.3081 62.2721C70.9456 62.2706 70.577 62.2418 70.2145 62.2281ZM71.5129 58.6848C71.9664 58.6999 72.4336 58.656 72.8872 58.6393C73.2785 58.6256 73.6699 58.6135 74.0612 58.5998C74.9744 58.5012 75.889 58.4026 76.8022 58.3041C77.7153 58.1357 78.6284 57.9658 79.5431 57.7974C80.0331 57.7064 80.5215 57.5517 81.0053 57.4304C81.4877 57.3105 81.9701 57.1877 82.4509 57.0678C83.1502 56.8464 83.8494 56.6279 84.5487 56.408C85.1054 56.2336 85.6469 56.0257 86.1945 55.8164C86.7891 55.5904 87.3943 55.3856 87.9753 55.1263C88.6669 54.8183 89.3601 54.5089 90.0518 54.201C90.7799 53.8309 91.505 53.4608 92.2331 53.0906C92.5364 52.9359 92.8277 52.7478 93.1219 52.5764C93.4936 52.361 93.8637 52.1456 94.2368 51.9303C95.1014 51.3705 95.9615 50.8154 96.7912 50.2041C97.2114 49.8962 97.6391 49.5973 98.0426 49.2682C98.5083 48.889 98.9755 48.5113 99.4411 48.1321C100.113 47.542 100.788 46.958 101.434 46.3407C102.131 45.6763 102.798 44.9967 103.464 44.3035C103.814 43.8925 104.165 43.4829 104.516 43.0719C104.685 42.8747 104.829 42.6502 104.982 42.4424C105.151 42.2164 105.319 41.9903 105.487 41.7628C105.891 41.1439 106.296 40.5266 106.666 39.8865C107.051 39.2221 107.411 38.5516 107.766 37.8721C107.958 37.4534 108.149 37.0333 108.342 36.6146C108.509 36.2506 108.639 35.8638 108.779 35.4861C108.903 35.0796 109.028 34.6715 109.152 34.265C109.279 33.8509 109.348 33.408 109.442 32.9833C109.428 33.044 109.414 33.1046 109.402 33.1653C109.471 32.7178 109.539 32.2734 109.609 31.8259C109.674 31.3891 109.687 30.9371 109.725 30.4957C109.718 30.573 109.713 30.6489 109.706 30.7247C109.716 30.2878 109.727 29.851 109.737 29.4141C109.747 29.0698 109.722 28.7209 109.706 28.3751C109.668 27.9018 109.615 27.4331 109.543 26.966C109.416 26.2894 109.241 25.6326 109.067 24.9683C108.947 24.6118 108.829 24.2553 108.709 23.9004C108.582 23.5197 108.409 23.1465 108.259 22.7734C107.929 22.068 107.587 21.3764 107.229 20.6847C106.883 20.0203 106.481 19.3847 106.083 18.7477C105.428 17.7966 104.746 16.8789 104.024 15.9794C103.309 15.1679 102.572 14.3928 101.798 13.6374C101.313 13.2036 100.823 12.7804 100.322 12.3632C99.837 11.9613 99.3167 11.6033 98.7995 11.2438C97.9576 10.7038 97.1037 10.2017 96.2285 9.71937C94.7253 8.95488 93.1978 8.27533 91.6172 7.68831C88.9946 6.80702 86.3204 6.10321 83.6265 5.48433C83.1016 5.71034 82.4827 5.68 81.9731 5.37815C81.8775 5.3372 81.782 5.29776 81.6864 5.26135C81.1525 5.08995 80.6201 4.9231 80.0755 4.79265C79.5507 4.68799 79.0259 4.61669 78.4934 4.56512C77.3391 4.47714 76.1893 4.48776 75.0335 4.50596C74.7165 4.53175 74.3979 4.55754 74.0794 4.58181C73.7245 4.60911 73.3635 4.61973 73.0131 4.66827C72.2197 4.779 71.4264 4.88973 70.6331 5.00046C69.9945 5.11877 69.3559 5.23709 68.7158 5.3554C68.1334 5.4631 67.5585 5.60113 66.9821 5.7331C66.4102 5.86506 65.8399 5.98793 65.2786 6.15175C64.631 6.33984 63.9833 6.52944 63.3356 6.71753C62.4983 7.02242 61.664 7.32882 60.8267 7.63522C60.4308 7.77932 60.0455 7.98713 59.6602 8.16005C59.281 8.32994 58.9018 8.50135 58.5211 8.67275C57.4487 9.25674 56.3656 9.82252 55.3236 10.4611C54.0494 11.2681 52.8329 12.1524 51.668 13.1126C50.5212 14.0909 49.4397 15.133 48.4143 16.2358C47.3237 17.4447 46.315 18.7143 45.3791 20.0446C44.5797 21.2186 43.8441 22.4291 43.1812 23.6865C42.6366 24.762 42.1497 25.8602 41.728 26.9887C41.4307 27.8397 41.1774 28.6967 40.9772 29.5749C40.7997 30.4547 40.6693 31.3405 40.5828 32.2355C40.5252 33.0076 40.5085 33.7766 40.5328 34.5517C40.5737 35.2707 40.6481 35.9836 40.7588 36.695C40.9074 37.505 41.1016 38.3014 41.3352 39.0916C41.6188 39.9744 41.951 40.8345 42.3287 41.6809C42.7913 42.6562 43.3177 43.5891 43.8865 44.5053C44.5782 45.5777 45.3336 46.6031 46.1421 47.589C46.943 48.531 47.7939 49.4199 48.6965 50.2648C49.8493 51.3068 51.0673 52.2624 52.3369 53.1574C53.3365 53.8369 54.368 54.4497 55.4388 55.0064C56.6963 55.6359 57.9841 56.1881 59.3068 56.6674C60.5977 57.1118 61.9082 57.4759 63.24 57.7747C64.2244 57.9825 65.2225 58.1342 66.213 58.3071C66.6104 58.3769 67.0246 58.3966 67.425 58.4406C67.8846 58.4906 68.3427 58.5407 68.8023 58.5892C69.7063 58.6241 70.6104 58.6544 71.5129 58.6848Z" fill="#242424"/>
<path d="M72.3638 131.74C68.4655 131.578 64.5581 131.356 60.6765 130.956C58.691 130.75 56.7175 130.498 54.7547 130.125C53.8901 129.961 53.0119 129.777 52.1928 129.454C51.7529 129.28 51.2629 129.086 50.9004 128.77C50.4863 128.411 50.145 128.027 49.9205 127.52C49.6703 126.959 49.6096 126.346 49.5823 125.739C49.558 125.225 49.555 124.719 49.5762 124.206C49.6566 122.399 49.8159 120.593 49.9327 118.789C50.054 116.892 50.1784 114.994 50.3043 113.093C50.5516 109.342 50.8473 105.593 51.1355 101.843C51.4313 98.0023 51.7089 94.1601 51.9789 90.3179C52.2534 86.3923 52.5356 82.4667 52.8693 78.5457C53.2197 74.435 53.5928 70.3259 53.9705 66.2167C54.1161 64.6346 54.2633 63.0526 54.4104 61.4705C54.4817 60.7136 54.5515 59.9537 54.6213 59.1952C54.6577 58.8039 54.6941 58.4156 54.7274 58.0242C54.7563 57.6951 54.7745 57.3538 54.9004 57.0474C55.2326 56.2268 56.1988 55.7762 57.0513 56.0205C57.9416 56.2738 58.4513 57.1566 58.3209 58.0379C58.3224 58.0333 58.3239 58.0272 58.3254 58.0227C58.2268 58.6128 58.2132 59.2286 58.157 59.8232C58.0842 60.6104 58.0114 61.3962 57.9386 62.1819C57.8006 63.6578 57.6625 65.1352 57.5275 66.6126C57.2378 69.7707 56.9526 72.9273 56.6705 76.0853C56.352 79.832 56.0395 83.5801 55.7771 87.3313C55.4935 91.3828 55.2113 95.4358 54.9064 99.4843C54.6243 103.238 54.3149 106.988 54.054 110.744C53.79 114.501 53.5595 118.261 53.3092 122.02C53.2394 123.083 53.1378 124.147 53.1393 125.212C53.1514 125.471 53.1666 125.73 53.1924 125.988C53.2864 126.032 53.3835 126.073 53.4806 126.111C53.9948 126.276 54.5121 126.413 55.0384 126.531C56.079 126.728 57.118 126.926 58.1707 127.056C59.4206 127.212 60.6704 127.353 61.9249 127.481C65.0648 127.743 68.2062 127.942 71.3536 128.107C74.4723 128.271 77.5879 128.254 80.7065 128.145C83.2988 128.022 85.8926 127.881 88.4728 127.607C91.0438 127.335 93.6028 126.985 96.1526 126.555C96.1162 126.562 96.0783 126.568 96.0419 126.575C97.225 126.37 98.4339 126.202 99.5928 125.879C99.6368 125.862 99.6808 125.846 99.7248 125.829C99.7581 125.812 99.7915 125.794 99.8249 125.777C99.8461 125.758 99.8658 125.738 99.8871 125.718C99.8992 125.705 99.9113 125.689 99.925 125.676C99.9189 125.683 99.9144 125.691 99.9098 125.698L99.9159 125.692C99.9508 125.639 99.9841 125.585 100.016 125.529C100.087 125.374 100.153 125.218 100.213 125.058C100.294 124.794 100.366 124.532 100.432 124.264C100.576 123.545 100.656 122.824 100.737 122.096C100.84 120.344 100.893 118.59 100.87 116.834C100.846 114.902 100.788 112.972 100.715 111.041C100.718 111.118 100.721 111.194 100.723 111.27C100.386 103.577 99.9098 95.8802 98.9618 88.2353C98.4703 84.2566 97.9137 80.2855 97.36 76.3144C96.8321 72.5238 96.3604 68.7286 95.9357 64.9244C95.4988 60.9988 95.0953 57.0686 94.5963 53.1491C94.4734 52.1798 95.2364 51.2773 96.192 51.1787C97.1795 51.0755 98.0396 51.8051 98.1624 52.7744C98.616 56.3375 98.9906 59.9112 99.3835 63.4803C99.8021 67.2876 100.26 71.0904 100.78 74.884C101.302 78.6928 101.865 82.4955 102.337 86.3104C102.815 90.1708 103.224 94.0388 103.521 97.9174C103.823 101.854 104.063 105.79 104.237 109.734C104.409 113.649 104.592 117.589 104.36 121.506C104.286 122.739 104.183 123.983 103.893 125.187C103.646 126.226 103.292 127.252 102.586 128.074C102.308 128.394 101.958 128.711 101.577 128.907C101.166 129.116 100.753 129.269 100.312 129.398C99.9296 129.509 99.5306 129.572 99.1393 129.65C98.6842 129.739 98.2261 129.821 97.7695 129.903C96.8974 130.059 96.0237 130.207 95.1484 130.345C91.4094 130.932 87.6567 131.326 83.8798 131.56C81.333 131.716 78.7847 131.811 76.2348 131.811C74.947 131.817 73.6562 131.793 72.3638 131.74Z" fill="#242424"/>
<path d="M52.284 175.385C51.4558 175.06 50.7368 174.484 50.1361 173.841C49.4202 173.075 48.8772 172.11 48.589 171.101C48.0202 169.099 48.3296 166.722 49.989 165.313C50.975 164.477 52.3235 164.376 53.5642 164.366C54.3287 164.36 55.0856 164.515 55.8289 164.671C56.5721 164.826 57.3108 165.032 58.0238 165.298C59.2979 165.768 60.4689 166.479 61.7355 166.966C61.7446 166.969 61.7552 166.972 61.7643 166.975C61.8174 166.654 61.8508 166.331 61.8826 166.006C62.1708 162.416 62.4257 158.822 62.7063 155.23C63.0081 151.375 63.3449 147.522 63.7135 143.671C64.117 139.469 64.4856 135.261 64.9861 131.069C65.1014 130.098 66.0858 129.424 67.0278 129.567C68.0168 129.717 68.6448 130.639 68.5295 131.609C68.1594 134.712 67.8757 137.828 67.5739 140.939C67.2674 144.109 66.9656 147.281 66.685 150.455C66.6865 150.43 66.6895 150.404 66.691 150.378C66.688 150.422 66.6835 150.466 66.6804 150.509C66.6774 150.542 66.6744 150.574 66.6713 150.607C66.6728 150.583 66.6759 150.557 66.6774 150.533C66.368 154.26 66.0843 157.99 65.8007 161.718C65.7324 162.613 65.6641 163.506 65.5974 164.4C65.5246 165.345 65.4776 166.297 65.3501 167.236C65.3016 167.597 65.2364 167.955 65.1105 168.297C64.9285 168.788 64.6721 169.216 64.3566 169.631C64.2155 169.818 64.0533 169.982 63.8743 170.123C63.8985 170.475 63.8212 170.836 63.627 171.154C62.8974 172.351 61.9767 173.402 60.8315 174.215C59.3268 175.282 57.5429 175.778 55.7212 175.884C55.527 175.896 55.3329 175.902 55.1418 175.902C54.1649 175.904 53.2154 175.749 52.284 175.385ZM55.3769 172.319C55.7212 172.297 56.064 172.266 56.4068 172.219C56.7147 172.16 57.0196 172.089 57.3215 172.004C57.5202 171.937 57.7143 171.861 57.907 171.781C58.1239 171.673 58.3362 171.559 58.5456 171.436C58.7625 171.294 58.9718 171.142 59.1751 170.98C59.3556 170.821 59.5285 170.655 59.6938 170.481C59.7924 170.369 59.888 170.253 59.982 170.137C59.6862 170.011 59.398 169.874 59.1159 169.741C58.2786 169.343 57.4519 168.92 56.5873 168.586C56.105 168.439 55.6211 168.303 55.1296 168.184C54.7474 168.105 54.3666 168.033 53.9814 167.98C53.7387 167.964 53.4975 167.955 53.2533 167.955C53.0227 167.97 52.7937 167.989 52.5646 168.016C52.4691 168.034 52.372 168.052 52.2764 168.072C52.2689 168.08 52.2628 168.086 52.2552 168.093C52.2279 168.127 52.2006 168.16 52.1748 168.193C52.1414 168.25 52.1081 168.307 52.0747 168.363C52.0534 168.409 52.0337 168.454 52.0155 168.501C51.9943 168.573 51.973 168.642 51.9533 168.712C51.9366 168.8 51.923 168.89 51.9139 168.979C51.9078 169.085 51.9048 169.192 51.9048 169.299C51.9169 169.477 51.9367 169.65 51.9609 169.826C51.9822 169.927 52.0079 170.027 52.0352 170.127C52.0732 170.241 52.1141 170.353 52.1596 170.464C52.2324 170.616 52.3098 170.763 52.3917 170.91C52.4812 171.044 52.5752 171.173 52.6723 171.3C52.7724 171.412 52.8741 171.52 52.9787 171.626C53.0804 171.713 53.1835 171.796 53.2912 171.876C53.3504 171.914 53.4125 171.951 53.4747 171.986C53.5855 172.039 53.6962 172.087 53.8115 172.134C53.9328 172.172 54.0542 172.207 54.177 172.237C54.3181 172.262 54.4577 172.284 54.6002 172.304C54.8611 172.319 55.1175 172.324 55.3769 172.319Z" fill="#242424"/>
<path d="M93.75 174.007C92.7898 173.798 91.8827 173.489 91.009 173.037C89.3723 172.186 88.0967 170.792 87.1987 169.197C86.9864 168.821 86.9393 168.392 87.0273 167.99C86.6526 167.582 86.4342 167.054 86.3569 166.508C86.2097 165.477 86.2203 164.421 86.1855 163.38C86.1566 162.494 86.1293 161.61 86.1051 160.724C85.9958 156.902 85.9109 153.078 85.8411 149.254C85.7623 144.94 85.6879 140.626 85.5241 136.315C85.4634 135.047 85.3648 133.774 85.3451 132.505C85.3315 131.526 86.231 130.732 87.179 130.754C88.1831 130.777 88.9158 131.611 88.931 132.588C88.931 132.603 88.931 132.62 88.931 132.635C89.0144 134.452 89.1175 136.271 89.1721 138.088C89.2358 140.154 89.2874 142.22 89.3314 144.286C89.4133 148.025 89.4664 151.766 89.5529 155.505C89.6242 158.558 89.6985 161.613 89.8107 164.668C90.3265 164.389 90.8376 164.101 91.3655 163.844C92.1558 163.462 92.9718 163.159 93.8319 162.972C94.8512 162.752 95.9312 162.746 96.9627 162.88C97.2554 162.918 97.5466 162.956 97.8379 162.992C98.3748 163.062 98.8815 163.212 99.3881 163.392C100.374 163.746 101.271 164.401 101.991 165.147C102.573 165.751 103.041 166.537 103.242 167.353C103.456 168.221 103.438 169.081 103.192 169.941C102.71 171.624 101.225 173.009 99.6354 173.66C99.0908 173.883 98.5083 174.063 97.9228 174.145C97.398 174.221 96.8777 174.252 96.3468 174.268C96.2573 174.271 96.1694 174.273 96.0799 174.273C95.3002 174.273 94.5054 174.171 93.75 174.007ZM96.6881 170.675C96.9308 170.655 97.1705 170.631 97.4101 170.597C97.6104 170.552 97.806 170.502 98.0017 170.446C98.1003 170.412 98.1959 170.374 98.2929 170.335C98.4097 170.279 98.525 170.22 98.6388 170.156C98.7905 170.054 98.9361 169.948 99.0787 169.838C99.1758 169.751 99.2683 169.662 99.3593 169.571C99.4306 169.486 99.4973 169.401 99.5626 169.313C99.5974 169.258 99.6293 169.203 99.6612 169.147C99.6854 169.097 99.7066 169.047 99.7279 168.996C99.7537 168.914 99.7779 168.83 99.7992 168.747C99.8052 168.712 99.8098 168.677 99.8144 168.642C99.8159 168.603 99.8159 168.563 99.8159 168.524C99.8128 168.477 99.8083 168.431 99.8022 168.384C99.7901 168.33 99.778 168.275 99.7628 168.221C99.7506 168.187 99.7385 168.154 99.7248 168.12C99.6809 168.034 99.6338 167.948 99.5853 167.864C99.5519 167.816 99.5155 167.767 99.4791 167.72C99.3851 167.615 99.2895 167.515 99.1894 167.418C99.0756 167.323 98.9588 167.23 98.839 167.141C98.6949 167.048 98.5493 166.963 98.4006 166.88C98.2292 166.801 98.0578 166.726 97.8834 166.66C97.8197 166.642 97.756 166.625 97.6923 166.607C97.2008 166.511 96.6987 166.452 96.1997 166.402C95.9206 166.387 95.6445 166.379 95.3654 166.385C95.1637 166.4 94.9619 166.42 94.7602 166.446C94.5266 166.491 94.2976 166.544 94.0685 166.608C93.753 166.716 93.4451 166.836 93.1387 166.968C92.3499 167.354 91.587 167.788 90.8073 168.195C90.8847 168.301 90.9651 168.407 91.047 168.512C91.2533 168.748 91.4717 168.974 91.6992 169.193C91.8205 169.296 91.9434 169.398 92.0693 169.493C92.3302 169.662 92.5972 169.819 92.8702 169.968C93.0795 170.064 93.2919 170.152 93.5073 170.233C93.7485 170.314 93.9912 170.385 94.2384 170.45C94.7056 170.544 95.1728 170.617 95.6476 170.666C95.9934 170.679 96.3392 170.681 96.6881 170.675Z" fill="#242424"/>
<path d="M76.9342 24.3045C76.4336 24.303 75.9285 24.2499 75.4294 24.2241C74.8879 24.1953 74.3464 24.1179 73.8095 24.0603C72.1986 23.8904 70.6028 23.5279 69.039 23.1214C68.2153 22.9075 67.4083 22.6527 66.5983 22.3978C66.2267 22.281 65.8627 22.1339 65.4971 22.0019C65.1589 21.8791 64.8145 21.7638 64.4824 21.6242C63.6724 21.283 62.873 20.9386 62.0827 20.5549C61.2772 20.1635 60.5006 19.7373 59.7164 19.3035C58.9762 18.8924 58.2754 18.3934 57.5974 17.8867C56.7768 17.2739 55.9804 16.5489 55.3524 15.7374C54.8337 15.0669 54.3498 14.2797 54.371 13.3984C54.3847 12.7947 54.6683 12.282 55.1325 11.9088C55.8955 11.2975 57.0832 11.5493 57.6353 12.3108C57.8355 12.5869 57.9508 12.916 57.972 13.2528C58.0418 13.3559 58.1161 13.4575 58.1935 13.5546C58.4513 13.8504 58.7229 14.131 59.008 14.401C59.4191 14.7605 59.8469 15.0942 60.2883 15.4158C61.1377 15.9907 62.025 16.4806 62.9215 16.9781C63.683 17.3482 64.4414 17.7123 65.2211 18.0399C65.9962 18.3676 66.7819 18.6558 67.5707 18.944C68.1334 19.1199 68.6962 19.2959 69.2619 19.4718C69.808 19.6417 70.3753 19.7616 70.9274 19.9057C71.6282 20.0543 72.326 20.206 73.0328 20.3198C73.8565 20.4517 74.6771 20.5473 75.5083 20.6353C76.0104 20.6626 76.5125 20.6899 77.0161 20.7156C77.5273 20.743 78.0475 20.7187 78.5602 20.7172C79.2109 20.6853 79.8617 20.655 80.5109 20.5943C81.2056 20.5291 81.8927 20.4381 82.5829 20.3425C83.2807 20.2121 83.9739 20.0725 84.6671 19.9148C85.3041 19.7691 85.9321 19.578 86.5586 19.3899C87.8767 18.9531 89.166 18.4631 90.4341 17.9004C91.6719 17.3316 92.9005 16.74 94.0579 16.0149C94.8861 15.4962 96.0465 15.9285 96.4864 16.7445C96.7063 17.1541 96.7579 17.6425 96.6289 18.0885C96.4924 18.5723 96.1708 18.9121 95.7552 19.173C94.252 20.1165 92.6214 20.8658 90.9938 21.5666C89.2495 22.3174 87.4459 22.8878 85.6136 23.3777C84.6989 23.6235 83.7448 23.8009 82.8074 23.9314C81.8912 24.0573 80.972 24.1862 80.0482 24.2317C79.5265 24.2575 79.0031 24.3045 78.4829 24.3045C77.9687 24.3045 77.4514 24.3045 76.9342 24.3045Z" fill="#242424"/>
<path d="M71.5586 39.1279C70.6272 39.1051 69.7232 38.2678 69.8066 37.294C70.0114 34.8974 70.2192 32.5023 70.427 30.1072C70.5302 28.9028 70.6379 27.6999 70.7349 26.4956C70.785 25.8645 70.835 25.2366 70.8745 24.6056C70.8942 24.3037 70.9139 24.0019 70.9276 23.7C70.9427 23.3875 70.9306 23.0614 70.9791 22.752C71.0899 22.0391 71.6314 21.446 72.3367 21.2791C73.1012 21.0971 73.9734 21.4581 74.3314 22.174C74.5104 22.532 74.568 22.9234 74.5134 23.295C74.5164 23.295 74.5195 23.2935 74.5225 23.2935C74.5301 23.2207 74.5362 23.1479 74.5422 23.0751C74.4345 25.5035 74.2055 27.9244 73.9962 30.3453C73.7929 32.6888 73.5897 35.0309 73.391 37.3744C73.3485 37.8568 73.1937 38.2875 72.8358 38.6288C72.5036 38.9458 72.0561 39.1248 71.598 39.1248C71.5859 39.1279 71.5722 39.1279 71.5586 39.1279Z" fill="#242424"/>
<path d="M80.2651 39.1865C79.3095 39.1638 78.4631 38.328 78.5147 37.3512C78.6421 34.9288 78.8272 32.5079 79.0213 30.0885C79.1214 28.8553 79.2306 27.6251 79.349 26.3934C79.4096 25.7579 79.4673 25.1208 79.5371 24.4868C79.5947 23.965 79.6174 23.4189 79.7236 22.9032C79.8222 22.4254 80.0422 22.0113 80.4441 21.72C80.8218 21.4455 81.3027 21.3302 81.7653 21.4015C82.6921 21.541 83.4642 22.4875 83.2685 23.4432C83.1896 23.8209 83.1699 24.2183 83.129 24.602C83.0759 25.1041 83.0228 25.6062 82.9727 26.1098C82.8741 27.1412 82.7786 28.1742 82.6876 29.2072C82.457 31.9466 82.2431 34.6906 82.099 37.4361C82.049 38.3993 81.286 39.1881 80.3061 39.1881C80.2924 39.1865 80.2788 39.1865 80.2651 39.1865Z" fill="#242424"/>
<path d="M80.1743 52.4475C79.5433 52.1486 78.8956 51.8893 78.2418 51.6481C77.2953 51.3189 76.3427 51.0353 75.3689 50.8047C74.5771 50.6485 73.7883 50.5317 72.9874 50.4482C72.2867 50.4103 71.5919 50.3982 70.8911 50.4149C70.3496 50.4558 69.8157 50.5104 69.2772 50.5893C69.0194 50.6379 68.763 50.6894 68.5051 50.7319C67.5404 50.8912 66.6303 50.066 66.5348 49.1362C66.4862 48.6705 66.6227 48.1972 66.914 47.8317C67.2143 47.457 67.6163 47.2598 68.0759 47.1734C68.0213 47.1825 67.9667 47.1916 67.9121 47.2022C70.2222 46.7471 72.6006 46.6789 74.926 47.0763C77.2194 47.4676 79.4902 48.1624 81.5986 49.1544C82.4829 49.57 82.9274 50.5954 82.5315 51.5131C82.2478 52.1684 81.5622 52.5976 80.8629 52.5991C80.6308 52.5991 80.3957 52.5506 80.1743 52.4475Z" fill="#242424"/>
<path d="M45.4474 108.724C45.091 108.695 44.7573 108.619 44.419 108.509C44.1248 108.413 43.8032 108.266 43.562 108.067C43.3041 107.856 43.0979 107.653 42.9158 107.371C42.7369 107.096 42.6413 106.835 42.5837 106.515C42.5275 106.203 42.5215 105.915 42.6049 105.605C42.6398 105.449 42.6868 105.297 42.746 105.149C42.8491 104.912 43.0129 104.715 43.1676 104.509C43.5013 104.069 44.0702 103.749 44.5722 103.547C45.0394 103.359 45.5218 103.239 46.0117 103.133C46.5714 103.011 47.1357 102.907 47.6985 102.81C47.8562 102.782 48.0155 102.758 48.1748 102.735C47.6575 102.256 47.1387 101.778 46.6185 101.304C46.6791 101.358 46.7383 101.413 46.799 101.467C44.0065 98.919 41.1548 96.4314 38.4548 93.7815C37.7297 93.0701 37.0138 92.3511 36.3039 91.6245C35.6031 90.9086 34.9675 90.135 34.3335 89.3629C33.707 88.6014 33.1913 87.7611 32.6756 86.9223C32.1993 86.1472 31.7867 85.3478 31.4545 84.4999C31.0177 83.388 30.9161 82.1867 31.0632 81.0096C31.2088 79.8386 31.8034 78.7889 32.4693 77.8409C33.0078 77.0734 33.7025 76.4075 34.3472 75.7294C35.0267 75.0135 35.726 74.3188 36.4207 73.621C37.7646 72.2786 39.1707 71.0029 40.5768 69.7288C43.4649 67.1092 46.4334 64.5821 49.364 62.0126C50.3226 61.1722 51.2813 60.3334 52.2323 59.4855C52.7177 59.0532 53.2031 58.6194 53.687 58.184C54.0798 57.8306 54.4606 57.4575 54.9081 57.1769C55.7393 56.6596 56.8966 57.0904 57.3365 57.908C57.5565 58.3175 57.6081 58.8059 57.4806 59.2504C57.3472 59.7221 57.0377 60.0589 56.6373 60.3167C56.6797 60.2894 56.7237 60.2636 56.7662 60.2348C56.7935 60.2136 56.8193 60.1908 56.8466 60.1696C56.8254 60.1878 56.8056 60.206 56.7844 60.2242C56.792 60.2196 56.7996 60.2151 56.8056 60.2106C56.795 60.2181 56.7859 60.2242 56.7753 60.2318C55.4116 61.424 54.0738 62.6436 52.7116 63.8389C51.1887 65.1752 49.6582 66.5009 48.1277 67.8297C45.1229 70.4341 42.1347 73.0704 39.2815 75.8402C38.1818 76.9065 37.1048 78.0002 36.0642 79.1242C35.7518 79.4745 35.4545 79.8325 35.1769 80.2117C35.0768 80.3634 34.9842 80.5196 34.8963 80.6804C34.8325 80.8139 34.7734 80.9489 34.7218 81.0885C34.7476 81.0157 34.7734 80.9428 34.7992 80.87C34.7324 81.0445 34.6763 81.222 34.6308 81.404C34.6096 81.5162 34.5929 81.6285 34.5808 81.7407C34.5747 81.8408 34.5716 81.9409 34.5716 82.041C34.5853 82.2382 34.6065 82.4309 34.6354 82.625C34.6581 82.7358 34.6854 82.8465 34.7142 82.9557C34.8098 83.2333 34.916 83.5018 35.0297 83.7718C35.3907 84.5135 35.8261 85.2113 36.2584 85.9121C36.5147 86.2761 36.7726 86.6401 37.029 87.0042C37.2671 87.3409 37.5492 87.6534 37.8177 87.9704C37.8101 87.9628 37.804 87.9537 37.798 87.9461C38.8749 89.1293 39.9792 90.2806 41.1351 91.3879C42.3804 92.5816 43.6394 93.7602 44.9075 94.9297C47.0356 96.8713 49.1895 98.784 51.2964 100.75C51.7454 101.17 52.1914 101.593 52.6313 102.022C53.0044 102.385 53.3867 102.76 53.5869 103.25C53.8508 103.894 53.7916 104.657 53.3472 105.214C52.8512 105.834 52.1459 106 51.4147 106.066C51.4223 106.798 50.9718 107.492 50.2604 107.774C49.188 108.201 48.0944 108.543 46.9431 108.681C46.6139 108.721 46.2863 108.745 45.9571 108.745C45.7888 108.744 45.6173 108.738 45.4474 108.724Z" fill="#242424"/>
<path d="M105.032 107.705C104.087 106.948 103.294 106.029 102.696 104.975C102.246 104.18 101.983 103.233 102.061 102.317C102.137 101.404 102.551 100.621 103.119 99.916C103.688 99.2122 104.362 98.5842 104.994 97.938C105.634 97.2843 106.278 96.632 106.921 95.9782C108.387 94.4872 109.848 92.99 111.277 91.4626C111.975 90.6905 112.662 89.9154 113.323 89.113C113.994 88.2984 114.619 87.452 115.238 86.5965C115.57 86.1005 115.903 85.6075 116.214 85.0948C116.554 84.5351 116.862 83.9663 117.167 83.3869C117.346 82.9986 117.514 82.6087 117.666 82.2083C117.801 81.8124 117.918 81.4135 118.019 81.0069C118.063 80.7764 118.1 80.5488 118.129 80.3168C118.133 80.2455 118.133 80.1757 118.133 80.1059C118.129 80.0377 118.121 79.9709 118.112 79.9042C118.1 79.8602 118.086 79.8147 118.074 79.7707C118.057 79.7267 118.041 79.6827 118.026 79.6403C117.953 79.4931 117.874 79.3521 117.79 79.211C117.055 78.1219 116.207 77.1011 115.391 76.0726C114.519 74.9729 113.631 73.8853 112.733 72.8053C110.276 69.8869 107.81 66.9791 105.217 64.179C102.599 61.3516 99.9781 58.509 97.1673 55.8697C96.9292 55.6558 96.6926 55.442 96.4453 55.2372C95.8265 54.726 95.5944 53.8675 95.9159 53.1227C96.2299 52.3976 97.0415 51.9229 97.8317 52.0624C97.9091 52.0761 97.9849 52.0912 98.0593 52.1125C98.2898 52.1807 98.4976 52.2915 98.6766 52.4371L98.6781 52.4325C100.049 53.5687 101.296 54.8656 102.54 56.1352C103.929 57.5534 105.289 58.999 106.646 60.4476C109.331 63.3099 111.899 66.2723 114.434 69.2696C115.684 70.747 116.92 72.2365 118.123 73.7534C118.693 74.4708 119.259 75.1898 119.82 75.9134C120.082 76.2516 120.333 76.5959 120.583 76.9418C121.234 77.8443 121.678 78.8849 121.708 80.0058C121.74 81.1389 121.441 82.2629 121.068 83.3247C120.777 84.1574 120.398 84.9386 119.988 85.7168C119.527 86.5965 118.992 87.4262 118.441 88.2499C117.346 89.8851 116.105 91.4019 114.816 92.8854C113.361 94.56 111.788 96.1314 110.235 97.715C109.018 98.9558 107.781 100.178 106.581 101.436C107.823 102.152 108.967 103.117 109.771 104.301C110.006 104.647 110.196 105.002 110.365 105.384C110.557 105.807 110.596 106.305 110.588 106.762C110.573 107.717 109.913 108.655 109.022 108.993C108.718 109.108 108.418 109.158 108.122 109.158C106.984 109.158 105.91 108.407 105.032 107.705Z" fill="#242424"/>
</svg>
