<svg width="22" height="22" viewBox="0 0 22 22" fill="none" xmlns="http://www.w3.org/2000/svg">
<path d="M16.4392 7.60525C16.6531 7.94029 16.539 8.38939 16.1968 8.59612L15.7763 8.84562L6.43066 14.4487C6.08849 14.6554 5.63939 14.5413 5.43979 14.192C4.72693 12.9517 4.40614 11.4404 4.68416 9.85785C5.15465 7.1704 7.36451 5.03183 10.0663 4.64689C12.7395 4.26907 15.1561 5.55222 16.4392 7.60525Z" fill="#242424"/>
<path d="M17.3371 12.0195C16.8523 15.0492 14.172 17.366 11.0996 17.4159C9.74512 17.4372 8.49047 17.0452 7.44969 16.3394C7.00772 16.0472 7.02198 15.3913 7.47821 15.1205L16.3248 9.92372C16.7882 9.65283 17.3584 9.96649 17.4012 10.5011C17.4369 11.0001 17.4155 11.5063 17.3371 12.0195Z" fill="#242424"/>
</svg>
