<svg width="29" height="29" viewBox="0 0 29 29" fill="none" xmlns="http://www.w3.org/2000/svg">
<g opacity="0.5">
<path d="M14.5 2.4165C11.3341 2.4165 8.76038 4.99025 8.76038 8.15609C8.76038 11.2615 11.1891 13.7748 14.355 13.8836C14.4516 13.8715 14.5483 13.8715 14.6208 13.8836C14.645 13.8836 14.657 13.8836 14.6812 13.8836C14.6933 13.8836 14.6933 13.8836 14.7054 13.8836C17.7987 13.7748 20.2275 11.2615 20.2395 8.15609C20.2395 4.99025 17.6658 2.4165 14.5 2.4165Z" fill="#242424"/>
<path d="M20.6395 17.1109C17.2682 14.8634 11.7703 14.8634 8.37492 17.1109C6.84034 18.1259 5.99451 19.5155 5.99451 21.0018C5.99451 22.488 6.84034 23.8655 8.36284 24.8805C10.0545 26.0163 12.2778 26.5843 14.5011 26.5843C16.7245 26.5843 18.9478 26.0163 20.6395 24.8805C22.162 23.8534 23.0078 22.4759 23.0078 20.9776C22.9957 19.5034 22.162 18.1138 20.6395 17.1109ZM16.7124 21.8355H12.302C11.8428 21.8355 11.4683 21.4609 11.4683 21.0018C11.4683 20.5426 11.8428 20.168 12.302 20.168H16.7124C17.1715 20.168 17.5461 20.5426 17.5461 21.0018C17.5461 21.4609 17.1715 21.8355 16.7124 21.8355Z" fill="#242424"/>
<path d="M10.875 19.3335H18.125V22.9585H10.875V19.3335Z" fill="#242424"/>
</g>
</svg>
