<svg width="24" height="24" viewBox="0 0 24 24" fill="none" xmlns="http://www.w3.org/2000/svg">
<path d="M19.2898 8.99653C17.6598 8.99653 16.9935 7.84385 17.8039 6.43002C18.2722 5.61054 17.993 4.56593 17.1736 4.09766L15.6156 3.20613C14.9042 2.78288 13.9857 3.03503 13.5624 3.74645L13.4634 3.91755C12.6529 5.33138 11.3201 5.33138 10.5006 3.91755L10.4016 3.74645C9.99635 3.03503 9.07781 2.78288 8.36639 3.20613L6.80848 4.09766C5.98899 4.56593 5.70983 5.61955 6.17811 6.43903C6.99759 7.84385 6.3312 8.99653 4.70124 8.99653C3.76469 8.99653 2.99023 9.76198 2.99023 10.7075V12.2925C2.99023 13.229 3.75568 14.0035 4.70124 14.0035C6.3312 14.0035 6.99759 15.1561 6.17811 16.57C5.70983 17.3895 5.98899 18.4341 6.80848 18.9023L8.36639 19.7939C9.07781 20.2171 9.99635 19.965 10.4196 19.2536L10.5187 19.0825C11.3291 17.6686 12.6619 17.6686 13.4814 19.0825L13.5805 19.2536C14.0037 19.965 14.9222 20.2171 15.6337 19.7939L17.1916 18.9023C18.0111 18.4341 18.2902 17.3805 17.8219 16.57C17.0025 15.1561 17.6688 14.0035 19.2988 14.0035C20.2354 14.0035 21.0098 13.238 21.0098 12.2925V10.7075C21.0008 9.77099 20.2354 8.99653 19.2898 8.99653ZM11.9955 14.4267C10.3836 14.4267 9.0688 13.1119 9.0688 11.5C9.0688 9.88805 10.3836 8.57328 11.9955 8.57328C13.6075 8.57328 14.9222 9.88805 14.9222 11.5C14.9222 13.1119 13.6075 14.4267 11.9955 14.4267Z" fill="#242424"/>
</svg>
