<svg width="22" height="22" viewBox="0 0 22 22" fill="none" xmlns="http://www.w3.org/2000/svg">
<path d="M16.8007 5.19717L6.03904 15.9588C5.63571 16.3622 4.95738 16.3072 4.62738 15.8305C3.49071 14.1713 2.82153 12.2097 2.82153 10.193V6.16884C2.82153 5.41717 3.38988 4.56467 4.08654 4.28051L9.19235 2.19051C10.3473 1.71384 11.6307 1.71384 12.7857 2.19051L16.4982 3.70301C17.1032 3.95051 17.259 4.73884 16.8007 5.19717Z" fill="#FF0000"/>
<path d="M17.6641 6.45447C18.2599 5.9503 19.1674 6.38113 19.1674 7.1603V10.1945C19.1674 14.677 15.9133 18.8753 11.4674 20.1036C11.1649 20.1861 10.8349 20.1861 10.5233 20.1036C9.22159 19.737 8.0116 19.1228 6.97577 18.3161C6.53577 17.977 6.48993 17.3353 6.87493 16.9411C8.87327 14.897 14.7216 8.93863 17.6641 6.45447Z" fill="#FF0000"/>
</svg>
