<svg width="22" height="22" viewBox="0 0 22 22" fill="none" xmlns="http://www.w3.org/2000/svg">
<path d="M18.04 11.3586C18.04 10.8386 17.9933 10.3386 17.9067 9.85864H11V12.6953H14.9467C14.7767 13.612 14.26 14.3886 13.4833 14.9086V16.7486H15.8533C17.24 15.472 18.04 13.592 18.04 11.3586Z" fill="#242424"/>
<path d="M11 18.73C12.98 18.73 14.64 18.0734 15.8533 16.9534L13.4833 15.1134C12.8267 15.5534 11.9867 15.8134 11 15.8134C9.08999 15.8134 7.47332 14.5234 6.89665 12.79H4.44666V14.69C5.65332 17.0867 8.13332 18.73 11 18.73Z" fill="#242424"/>
<path d="M6.89663 12.3935C6.74996 11.9535 6.66663 11.4835 6.66663 11.0001C6.66663 10.5168 6.74996 10.0468 6.89663 9.60679V7.70679H4.44663C3.93329 8.72869 3.66617 9.85653 3.66663 11.0001C3.66663 12.1835 3.94996 13.3035 4.44663 14.2935L6.89663 12.3935Z" fill="#242424"/>
<path d="M11 6.18669C12.0767 6.18669 13.0433 6.55669 13.8033 7.28335L15.9067 5.18002C14.6367 3.99669 12.9767 3.27002 11 3.27002C8.13332 3.27002 5.65332 4.91335 4.44666 7.31002L6.89665 9.21002C7.47332 7.47669 9.08999 6.18669 11 6.18669Z" fill="#242424"/>
</svg>
