<svg width="29" height="29" viewBox="0 0 29 29" fill="none" xmlns="http://www.w3.org/2000/svg">
<path fill-rule="evenodd" clip-rule="evenodd" d="M22.1195 29H6.23883C2.79322 29 0 26.2068 0 22.7612V12.8309C0 11.0319 0.776617 9.32033 2.13053 8.13573L9.66433 1.54367C11.9464 -0.453185 15.3337 -0.519927 17.6927 1.3854L26.0396 8.12714C27.506 9.3116 28.3583 11.0955 28.3583 12.9806V22.7612C28.3583 26.2068 25.5651 29 22.1195 29ZM10.4701 16.8261C10.1681 16.3688 9.55236 16.2428 9.09493 16.5448C8.63748 16.8469 8.51151 17.4625 8.81356 17.92C9.58845 19.0936 11.0654 20.5922 13.0084 21.0584C14.006 21.2978 15.1047 21.2573 16.2352 20.7793C17.354 20.3061 18.4486 19.4284 19.4992 18.0812C19.8363 17.6489 19.7591 17.0253 19.3268 16.6881C18.8946 16.3511 18.2709 16.4282 17.9338 16.8605C17.0328 18.016 16.1922 18.6422 15.4621 18.9509C14.7436 19.2547 14.0799 19.2741 13.4716 19.1282C12.2026 18.8237 11.0938 17.7708 10.4701 16.8261Z" fill="#242424"/>
</svg>
