<svg width="24" height="24" viewBox="0 0 24 24" fill="none" xmlns="http://www.w3.org/2000/svg">
<path d="M12.0164 17.7541C15.1852 17.7541 17.7541 15.1852 17.7541 12.0164C17.7541 8.84755 15.1852 6.27869 12.0164 6.27869C8.84755 6.27869 6.27869 8.84755 6.27869 12.0164C6.27869 15.1852 8.84755 17.7541 12.0164 17.7541Z" fill="#242424"/>
<path d="M12.0164 21C11.5656 21 11.1967 20.6639 11.1967 20.2131V20.1475C11.1967 19.6967 11.5656 19.3279 12.0164 19.3279C12.4672 19.3279 12.8361 19.6967 12.8361 20.1475C12.8361 20.5984 12.4672 21 12.0164 21ZM17.8689 18.6885C17.6557 18.6885 17.4508 18.6066 17.2869 18.4508L17.1803 18.3443C16.8607 18.0246 16.8607 17.5082 17.1803 17.1885C17.5 16.8689 18.0164 16.8689 18.3361 17.1885L18.4426 17.2951C18.7623 17.6148 18.7623 18.1311 18.4426 18.4508C18.2869 18.6066 18.082 18.6885 17.8689 18.6885ZM6.16393 18.6885C5.95082 18.6885 5.7459 18.6066 5.58197 18.4508C5.2623 18.1311 5.2623 17.6148 5.58197 17.2951L5.68852 17.1885C6.0082 16.8689 6.52459 16.8689 6.84426 17.1885C7.16393 17.5082 7.16393 18.0246 6.84426 18.3443L6.7377 18.4508C6.58197 18.6066 6.36885 18.6885 6.16393 18.6885ZM20.2131 12.8361H20.1475C19.6967 12.8361 19.3279 12.4672 19.3279 12.0164C19.3279 11.5656 19.6967 11.1967 20.1475 11.1967C20.5984 11.1967 21 11.5656 21 12.0164C21 12.4672 20.6639 12.8361 20.2131 12.8361ZM3.88525 12.8361H3.81967C3.36885 12.8361 3 12.4672 3 12.0164C3 11.5656 3.36885 11.1967 3.81967 11.1967C4.27049 11.1967 4.67213 11.5656 4.67213 12.0164C4.67213 12.4672 4.33607 12.8361 3.88525 12.8361ZM17.7623 7.09016C17.5492 7.09016 17.3443 7.0082 17.1803 6.85246C16.8607 6.53279 16.8607 6.01639 17.1803 5.69672L17.2869 5.59016C17.6066 5.27049 18.123 5.27049 18.4426 5.59016C18.7623 5.90984 18.7623 6.42623 18.4426 6.7459L18.3361 6.85246C18.1803 7.0082 17.9754 7.09016 17.7623 7.09016ZM6.27049 7.09016C6.05738 7.09016 5.85246 7.0082 5.68852 6.85246L5.58197 6.7377C5.2623 6.41803 5.2623 5.90164 5.58197 5.58197C5.90164 5.2623 6.41803 5.2623 6.7377 5.58197L6.84426 5.68852C7.16393 6.0082 7.16393 6.52459 6.84426 6.84426C6.68852 7.0082 6.47541 7.09016 6.27049 7.09016ZM12.0164 4.67213C11.5656 4.67213 11.1967 4.33607 11.1967 3.88525V3.81967C11.1967 3.36885 11.5656 3 12.0164 3C12.4672 3 12.8361 3.36885 12.8361 3.81967C12.8361 4.27049 12.4672 4.67213 12.0164 4.67213Z" fill="#242424"/>
</svg>
