<svg width="22" height="22" viewBox="0 0 22 22" fill="none" xmlns="http://www.w3.org/2000/svg">
<path d="M5.06474 15.2669C4.80168 15.2669 4.58353 15.0487 4.58353 14.7856V11.1285C4.55145 9.38974 5.19947 7.74724 6.40569 6.51536C7.61191 5.2899 9.22875 4.61621 10.9675 4.61621C14.522 4.61621 17.4156 7.50984 17.4156 11.0643V14.7215C17.4156 14.9845 17.1975 15.2027 16.9344 15.2027C16.6713 15.2027 16.4532 14.9845 16.4532 14.7215V11.0643C16.4532 8.04238 13.9959 5.57862 10.9675 5.57862C9.48539 5.57862 8.11236 6.14964 7.09221 7.18904C6.06564 8.23486 5.52028 9.62714 5.54594 11.1157V14.7792C5.54594 15.0487 5.33421 15.2669 5.06474 15.2669Z" fill="#242424"/>
<path d="M7.11157 11.2879H7.02816C5.68079 11.2879 4.58365 12.385 4.58365 13.7324V14.9386C4.58365 16.286 5.68079 17.3831 7.02816 17.3831H7.11157C8.45894 17.3831 9.55608 16.286 9.55608 14.9386V13.7324C9.55608 12.385 8.45894 11.2879 7.11157 11.2879Z" fill="#242424"/>
<path d="M14.9712 11.2879H14.8878C13.5404 11.2879 12.4433 12.385 12.4433 13.7324V14.9386C12.4433 16.286 13.5404 17.3831 14.8878 17.3831H14.9712C16.3186 17.3831 17.4157 16.286 17.4157 14.9386V13.7324C17.4157 12.385 16.3186 11.2879 14.9712 11.2879Z" fill="#242424"/>
</svg>
