<svg width="20" height="7" viewBox="0 0 20 7" fill="none" xmlns="http://www.w3.org/2000/svg">
<g clip-path="url(#clip0_3198_6092)">
<path d="M13.0309 0C11.6127 0 10.3393 0.737961 10.3393 2.09216C10.3393 3.65176 12.5886 3.75827 12.5886 4.53427C12.5886 4.86141 12.2074 5.15812 11.5669 5.15812C10.6519 5.15812 9.96569 4.74729 9.96569 4.74729L9.67594 6.11671C9.67594 6.11671 10.4613 6.46667 11.5135 6.46667C13.069 6.46667 14.289 5.69827 14.289 4.31365C14.289 2.67035 12.032 2.56384 12.032 1.8411C12.032 1.58243 12.3446 1.30094 12.9851 1.30094C13.7095 1.30094 14.3042 1.59765 14.3042 1.59765L14.594 0.273882C14.5864 0.273882 13.9382 0 13.0309 0ZM0.0381243 0.098902L0 0.296706C0 0.296706 0.594739 0.403216 1.1361 0.623843C1.82997 0.874902 1.87571 1.01945 1.99771 1.46831L3.27106 6.36016H4.97903L7.59436 0.098902H5.89401L4.20892 4.35929L3.52268 0.745569C3.46169 0.334745 3.14144 0.098902 2.74495 0.098902H0.0381243ZM8.28059 0.098902L6.94624 6.36016H8.57034L9.89707 0.098902H8.28059ZM17.3237 0.098902C16.9348 0.098902 16.7289 0.304314 16.5764 0.66949L14.1975 6.36016H15.8978L16.2257 5.40918H18.2997L18.4979 6.36016H20L18.6961 0.098902H17.3237ZM17.5448 1.79545L18.048 4.14627H16.6984L17.5448 1.79545Z" fill="#1434CB"/>
</g>
<defs>
<clipPath id="clip0_3198_6092">
<rect width="20" height="6.46667" fill="white"/>
</clipPath>
</defs>
</svg>
