<svg width="153" height="177" viewBox="0 0 153 177" fill="none" xmlns="http://www.w3.org/2000/svg">
<path d="M79.6228 33.5794C78.8206 33.399 78.0359 33.1313 77.2665 32.8428C76.6184 32.5979 75.9955 32.2996 75.378 31.9892C74.8413 31.7192 74.3069 31.4438 73.7943 31.1258C73.2621 30.7946 72.7637 30.4318 72.2686 30.046C71.85 29.7214 71.438 29.3892 71.0347 29.046C70.3342 28.4493 69.6948 27.764 69.1429 27.0285C68.6161 26.329 68.1637 25.5738 67.7538 24.8011C67.2915 23.9344 66.9003 23.0404 66.5833 22.1093C65.9767 20.3256 65.6937 18.4021 65.7385 16.5201C65.7855 14.5999 66.2183 12.7168 66.8959 10.9266C67.5571 9.17794 68.4948 7.53748 69.6992 6.10686C70.0948 5.63691 70.544 5.21832 70.9888 4.79645C71.5145 4.30027 72.0446 3.81285 72.6107 3.36147C74.1036 2.1702 75.8075 1.31335 77.6447 0.797495C78.8053 0.471807 80.0086 0.3494 81.2076 0.481642C81.2666 0.488199 81.3245 0.499145 81.3813 0.51226C82.6141 0.569091 83.8524 0.636831 85.0786 0.777816C86.3694 0.926452 87.647 1.19094 88.9027 1.52319C90.212 1.87073 91.4886 2.32538 92.7454 2.83139C94.0744 3.36692 95.3181 4.10355 96.493 4.91996C97.646 5.71997 98.7204 6.65441 99.7258 7.63366C100.142 8.03913 100.504 8.48941 100.866 8.94296C101.081 9.21182 101.293 9.4938 101.478 9.78343C101.854 10.3736 102.218 10.9845 102.514 11.6184C102.811 12.2545 103.08 12.8938 103.3 13.5605C103.517 14.2185 103.667 14.8851 103.801 15.5649C103.882 15.9704 103.911 16.3922 103.93 16.8043C103.946 17.1147 103.937 17.4404 103.904 17.7486C103.863 18.13 103.811 18.506 103.753 18.8852C103.652 19.5486 103.506 20.2076 103.346 20.859C103.143 21.6885 102.928 22.5158 102.634 23.318C102.024 24.9825 101.013 26.4875 99.7652 27.7388C98.9925 28.5137 98.1291 29.2044 97.2373 29.8383C96.0132 30.7072 94.6547 31.3498 93.2536 31.8744C91.9476 32.3629 90.6142 32.8089 89.2525 33.1193C88.8415 33.2132 88.4306 33.3072 88.0186 33.4012C87.7049 33.4723 87.3847 33.5181 87.0677 33.5739C86.3792 33.6952 85.6907 33.7739 84.9956 33.857C84.3759 33.9324 83.7497 33.9685 83.1234 33.9685C81.9453 33.9685 80.766 33.8373 79.6228 33.5794ZM84.6371 31.3411C85.3519 31.2558 86.0612 31.1684 86.7705 31.0438C87.4503 30.9247 88.1202 30.7728 88.7934 30.6198C89.2732 30.4864 89.7552 30.3531 90.235 30.2197C90.7093 30.0886 91.1738 29.9181 91.6416 29.7673C91.6142 29.7771 91.5869 29.787 91.5607 29.7979C91.8875 29.6755 92.2132 29.5542 92.5399 29.4307C93.187 29.1891 93.8154 28.9028 94.4285 28.5837C94.975 28.2831 95.4995 27.9541 96.0088 27.5968C96.5783 27.1782 97.128 26.7257 97.6493 26.2503C98.0242 25.8929 98.3826 25.5235 98.7149 25.1257C98.9695 24.7946 99.2089 24.4546 99.4307 24.1005C99.6526 23.7235 99.8559 23.3388 100.042 22.9421C100.191 22.5901 100.324 22.2339 100.445 21.871C100.6 21.3169 100.749 20.765 100.885 20.2065C101.021 19.6524 101.13 19.095 101.237 18.5344C101.304 18.0852 101.366 17.6371 101.39 17.1835C101.391 16.9649 101.382 16.7475 101.365 16.5289C101.318 16.1289 101.244 15.7376 101.166 15.343C101.107 15.1201 101.048 14.8961 100.989 14.6731C100.927 14.4392 100.838 14.2086 100.761 13.9791C100.645 13.6829 100.53 13.3856 100.397 13.096C100.243 12.7638 100.079 12.4403 99.9105 12.1157C99.7072 11.7594 99.4985 11.4097 99.2788 11.0632C98.9291 10.5922 98.5739 10.1277 98.1837 9.68724C97.5422 9.02493 96.8405 8.41728 96.1313 7.82821C95.4591 7.30907 94.7793 6.81507 94.0645 6.35714C93.7257 6.15167 93.3858 5.94182 93.0328 5.76586C92.6405 5.57132 92.2481 5.38664 91.8503 5.2085C90.7738 4.7757 89.6831 4.39208 88.5705 4.06202C87.6153 3.80956 86.6557 3.59425 85.683 3.42158C84.1475 3.19316 82.5901 3.11011 81.0392 3.03798C80.9485 3.03361 80.8622 3.0183 80.778 2.99426C80.5343 2.97568 80.2906 2.97022 80.0458 2.96257C80.1004 2.96476 80.154 2.96585 80.2086 2.96694C79.9802 2.96913 79.7551 2.97895 79.5288 2.99863C79.2687 3.0336 79.0119 3.0806 78.7551 3.13634C78.2665 3.25765 77.7889 3.40083 77.3157 3.57023C76.872 3.74291 76.4403 3.93417 76.0162 4.14947C75.5965 4.37898 75.19 4.62814 74.7944 4.89918C74.2151 5.32104 73.6708 5.77899 73.1375 6.25768C73.179 6.21834 73.2206 6.17789 73.2621 6.13854C72.6042 6.76041 71.9506 7.37356 71.3703 8.06865C71.0577 8.46647 70.7724 8.87848 70.5058 9.30581C70.1462 9.91566 69.8238 10.5408 69.5353 11.1867C69.2708 11.8119 69.0413 12.4479 68.8424 13.0971C68.6686 13.7135 68.5298 14.3354 68.4227 14.9671C68.3495 15.4818 68.3025 15.9977 68.2795 16.5168C68.2686 17.0797 68.2882 17.6382 68.3385 18.1988C68.4117 18.8404 68.5167 19.4753 68.6588 20.1059C68.7986 20.6677 68.9626 21.2196 69.156 21.765C69.3975 22.389 69.6784 22.9923 69.9845 23.588C70.309 24.1858 70.661 24.765 71.0468 25.3268C71.3112 25.6875 71.5943 26.0274 71.897 26.3563C72.344 26.8121 72.8184 27.2307 73.3102 27.6372C73.9233 28.1159 74.5288 28.5858 75.1878 29.0012C76.0446 29.5039 76.9386 29.9323 77.8425 30.3411C78.1583 30.4602 78.4753 30.5793 78.7922 30.6985C79.1004 30.8143 79.4261 30.8963 79.7441 30.9892C80.1758 31.0995 80.6086 31.1946 81.048 31.27C81.5781 31.3454 82.107 31.3935 82.6425 31.4132C83.3092 31.423 83.9715 31.3946 84.6371 31.3411Z" fill="#242424"/>
<path d="M79.1834 16.0057C78.5364 15.7707 78.1812 15.0243 78.4227 14.3762C78.9277 13.0242 79.5189 11.704 80.1069 10.3871C80.425 9.67667 80.7496 8.97283 81.0851 8.27118C81.2326 7.96188 81.4042 7.65693 81.5813 7.36294C81.9004 6.83616 82.2785 6.24162 82.9376 6.13889C83.6217 6.03178 84.2862 6.49629 84.401 7.18374C84.4753 7.6362 84.2917 8.08646 83.9572 8.36843C83.8971 8.45477 83.8392 8.54113 83.7824 8.62965C83.4611 9.17283 83.1846 9.74441 82.9245 10.3182C82.6173 10.9914 82.3135 11.6668 82.0152 12.3455C81.5955 13.304 81.1791 14.2647 80.8129 15.244C80.6228 15.7543 80.1288 16.0789 79.6075 16.0789C79.4665 16.0811 79.3233 16.0571 79.1834 16.0057Z" fill="#242424"/>
<path d="M85.1604 17.433C84.4926 17.1904 84.1844 16.4603 84.3997 15.8035C84.827 14.5051 85.2686 13.2122 85.7079 11.9182C85.9276 11.2734 86.1483 10.6285 86.3724 9.98592C86.4915 9.64384 86.6128 9.30612 86.7385 8.96732C86.9298 8.45365 87.1167 7.81756 87.6183 7.52357C88.2161 7.17274 88.9976 7.33777 89.3681 7.93778C89.6369 8.37166 89.6052 8.94327 89.3211 9.34874C89.2905 9.40995 89.2621 9.47334 89.2369 9.53782C89.2599 9.48755 89.2817 9.43617 89.3047 9.3859C88.8161 10.5892 88.4238 11.8329 88.0052 13.0614C87.5965 14.2636 87.1866 15.4669 86.7899 16.6734C86.6205 17.1904 86.1046 17.5062 85.5833 17.5062C85.4401 17.5073 85.297 17.4833 85.1604 17.433Z" fill="#242424"/>
<path d="M86.2459 63.132C83.6272 63.0894 81.0163 62.9254 78.4042 62.7396C75.6479 62.5429 72.8927 62.3407 70.1385 62.1178C68.7932 62.0085 67.4478 61.897 66.1024 61.791C64.7133 61.6806 63.322 61.6008 61.9319 61.5123C61.2816 61.4708 60.6324 61.414 59.9854 61.3342C59.0477 61.2194 58.087 61.1068 57.1832 60.8281C56.8334 60.721 56.4465 60.5921 56.1449 60.3713C55.864 60.1658 55.6509 59.9396 55.4695 59.6413C55.0509 58.9582 55.0891 58.0893 55.1635 57.3254C55.2247 56.6871 55.3209 56.0478 55.4072 55.4117C55.5842 54.11 55.7722 52.8105 55.9842 51.5133C56.0804 50.9187 56.1864 50.3253 56.2903 49.7318C56.3886 49.1624 56.4903 48.5886 56.6127 48.0247C56.8684 46.8509 57.1132 45.676 57.416 44.5132C57.7351 43.2902 58.0433 42.064 58.3952 40.8497L58.3941 40.8541C58.3996 40.8344 58.405 40.8148 58.4116 40.7951C58.4214 40.7623 58.4302 40.7295 58.44 40.6967C58.4378 40.7044 58.4356 40.712 58.4335 40.7197C58.6488 39.9765 58.863 39.2333 59.0805 38.4901C59.0652 38.5426 59.0498 38.5951 59.0345 38.6486C59.4411 37.2398 59.9242 35.854 60.4073 34.4693C60.828 33.2649 61.2871 32.0726 61.769 30.8911C62.8379 28.2638 63.9614 25.6441 65.3428 23.1621C65.7614 22.4112 66.1844 21.6637 66.6532 20.9413C66.8838 20.5861 67.109 20.2243 67.3494 19.8757C67.6226 19.4789 67.8838 19.0112 68.2467 18.691C68.6653 18.3216 69.3385 18.315 69.7833 18.6341C70.097 18.8582 70.3243 19.2363 70.3243 19.6298C70.3243 19.9271 70.2292 20.2079 70.0653 20.432C70.0697 20.4276 70.0741 20.4221 70.0784 20.4178C69.7014 20.9019 69.3713 21.4254 69.0369 21.9391C68.7156 22.4298 68.4095 22.9293 68.1035 23.4287C67.8696 23.8495 67.6358 24.2692 67.4019 24.6899C67.1866 25.0779 66.9931 25.4801 66.7909 25.8758C66.3669 26.7086 65.9735 27.5556 65.5778 28.4026C65.2368 29.1829 64.8915 29.9633 64.5701 30.7512C64.1636 31.7491 63.7647 32.7458 63.3832 33.7524C63.016 34.724 62.6718 35.6999 62.3308 36.6814C62.0259 37.5535 61.7603 38.441 61.4838 39.3218C61.2717 40.0497 61.0608 40.7787 60.8488 41.5077C60.5898 42.4137 60.3526 43.3274 60.1154 44.2389C59.8783 45.1514 59.6357 46.0662 59.4378 46.9875C59.2094 48.0487 58.9941 49.1111 58.793 50.1777C58.6182 51.0958 58.4728 52.0215 58.3231 52.9439C58.2061 53.7133 58.0947 54.4838 57.9908 55.2554C57.8673 56.1756 57.7187 57.1002 57.6575 58.0281C57.6597 57.9735 57.6608 57.9199 57.663 57.8653C57.6553 57.9997 57.6553 58.1352 57.664 58.2696C57.6662 58.2828 57.6673 58.2948 57.6695 58.3068C57.7504 58.3396 57.8324 58.3691 57.9154 58.3953C58.2564 58.486 58.5985 58.5593 58.9449 58.6227C59.5286 58.7123 60.1143 58.8063 60.7023 58.8598C61.4215 58.9243 62.1384 58.9767 62.8597 59.0227C64.2761 59.1123 65.6926 59.2063 67.1079 59.3188C69.768 59.5287 72.4282 59.7483 75.0894 59.9451C78.4774 60.1975 81.8655 60.4642 85.2622 60.5691C85.5234 60.5768 85.7857 60.5855 86.0469 60.5888C86.0502 60.5451 86.0524 60.5003 86.0546 60.4555C86.0579 59.7571 86.0065 59.0587 85.9529 58.3636C85.8983 57.6554 85.8437 56.9472 85.7879 56.2379C85.6852 54.9352 85.5901 53.6313 85.5267 52.3253C85.4557 50.8608 85.4185 49.3985 85.4109 47.9307C85.4065 47.2553 85.4294 46.5755 85.4535 45.9012C85.4753 45.2651 85.4939 44.6279 85.5223 43.9919C85.6437 41.2454 85.836 38.5076 86.177 35.7786C86.3508 34.3841 86.5344 32.9895 86.7715 31.6048C87.0032 30.2518 87.2819 28.9097 87.5879 27.572C87.8087 26.6113 88.0513 25.655 88.3104 24.7053C88.5683 23.7588 88.8273 22.8069 89.1781 21.8899C89.4251 21.2429 90.1486 20.891 90.8077 21.1303C91.4492 21.3642 91.8153 22.114 91.5672 22.7599C91.3858 23.2353 91.2317 23.7195 91.0864 24.2069C90.2328 27.1632 89.5694 30.1665 89.0852 33.2037C88.7792 35.3371 88.5147 37.4748 88.33 39.6224C88.1453 41.77 88.0612 43.9241 87.9869 46.0771C87.9748 46.6837 87.9486 47.2903 87.9508 47.8968C87.9552 48.6247 87.9584 49.3526 87.9803 50.0805C88.0196 51.439 88.0863 52.7963 88.1814 54.1526C88.2765 55.5319 88.388 56.91 88.494 58.2871C88.553 59.0445 88.6131 59.8085 88.5902 60.568C88.5781 60.9659 88.5541 61.3888 88.4175 61.7691C88.3639 61.9167 88.3038 62.0544 88.2284 62.1932C88.1377 62.3615 88.0131 62.4916 87.883 62.6314C87.4852 63.0555 86.9093 63.132 86.3595 63.132C86.3213 63.1331 86.283 63.1331 86.2459 63.132Z" fill="#242424"/>
<path d="M111.143 53.9878C110.434 53.9244 109.955 53.297 109.994 52.6063C110.246 47.9472 110.47 43.2849 110.682 38.6225C110.697 37.8324 110.73 37.0422 110.679 36.252C110.67 36.1864 110.661 36.1209 110.653 36.0553C110.057 35.9285 109.444 35.8531 108.844 35.7537C108.185 35.6444 107.524 35.5372 106.864 35.4312C105.488 35.2083 104.114 34.9799 102.74 34.7449C100.043 34.2815 97.341 33.8312 94.6492 33.3394C94.0229 33.2257 93.3967 33.1055 92.7727 32.982C92.4677 32.9219 92.1617 32.864 91.859 32.794C91.2502 32.6531 90.8513 32.2006 90.7945 31.5766C90.7311 30.8858 91.3541 30.2836 92.0175 30.2596C92.1737 30.2541 92.33 30.2771 92.4765 30.3274C92.7191 30.3875 92.9683 30.429 93.2131 30.4771C93.5705 30.5481 93.929 30.618 94.2863 30.6869C94.929 30.8104 95.5716 30.9284 96.2164 31.0399C97.6001 31.2814 98.9859 31.5099 100.368 31.7514C103.068 32.2235 105.771 32.6804 108.476 33.1208C109.106 33.2236 109.738 33.3263 110.369 33.4323C110.75 33.4968 111.135 33.5492 111.511 33.6432C112.192 33.8126 112.762 34.2695 112.996 34.9427C113.23 35.617 113.264 36.3744 113.251 37.0837C113.242 37.5231 113.233 37.9613 113.225 38.4018C113.212 39.1144 113.173 39.8258 113.142 40.5384C113.028 43.2128 112.873 45.886 112.743 48.5604C112.673 49.9866 112.604 51.4129 112.526 52.838C112.49 53.4927 111.885 53.9932 111.253 53.9932C111.216 53.9921 111.179 53.991 111.143 53.9878Z" fill="#242424"/>
<path d="M93.3924 24.9226C92.9355 24.7302 92.6098 24.3892 92.3465 23.9805C92.0634 23.5411 91.9989 22.9947 91.9617 22.4876C91.9344 22.1083 91.9771 21.717 92.0197 21.34C92.0426 21.1389 92.0656 20.9389 92.0962 20.7389C92.1158 20.611 92.1355 20.4821 92.1563 20.3542C92.1476 20.4078 92.1399 20.4613 92.1301 20.5149C92.1519 20.3728 92.1749 20.2307 92.1967 20.0886C92.1891 20.1422 92.1792 20.1957 92.1716 20.2493C92.3137 19.3291 92.553 18.4044 92.8394 17.517C92.9738 17.0984 93.106 16.682 93.259 16.2711C93.3891 15.9213 93.5268 15.5793 93.682 15.2405C93.882 14.8022 94.1651 14.3115 94.5618 14.024C94.8361 13.824 95.1388 13.7104 95.4831 13.7421C95.8197 13.7716 96.1356 13.941 96.3498 14.2022C96.6197 14.5312 96.7006 15.0066 96.576 15.4132C96.9738 15.5771 97.2941 15.9301 97.3487 16.3749C97.4514 17.2033 97.529 18.0361 97.5738 18.87C97.6329 19.9476 97.6438 21.0274 97.4329 22.0919C97.3498 22.5127 97.1902 22.9116 97.0077 23.2974C96.7859 23.7652 96.3979 24.1477 96.0121 24.481C95.5389 24.8876 94.9366 25.1116 94.329 25.1116C94.012 25.1116 93.694 25.0504 93.3924 24.9226ZM94.5039 22.4275L94.5071 22.4242C94.5585 22.3728 94.6077 22.3215 94.6558 22.2668C94.6776 22.2384 94.6995 22.21 94.7203 22.1816C94.7487 22.1313 94.7749 22.081 94.799 22.0296C94.8306 21.9531 94.859 21.8755 94.8842 21.7979C94.9301 21.6263 94.9673 21.4537 94.999 21.2788C95.0405 20.9542 95.0569 20.6307 95.0711 20.305C95.0689 19.8995 95.0569 19.4952 95.0372 19.0919C94.9049 19.5979 94.7858 20.1061 94.682 20.622C94.6896 20.5684 94.6995 20.5149 94.7071 20.4613C94.694 20.5433 94.6809 20.6274 94.6689 20.7094C94.6765 20.6558 94.6853 20.6023 94.694 20.5487C94.6689 20.7072 94.6448 20.8668 94.6197 21.0263C94.6219 21.0132 94.6241 21.0001 94.6263 20.987C94.6175 21.0405 94.6099 21.093 94.6011 21.1465C94.5465 21.5083 94.5148 21.8777 94.5006 22.2428C94.4995 22.3029 94.5017 22.3652 94.5039 22.4275Z" fill="#242424"/>
<path d="M110.904 55.804C110.53 55.7526 110.198 55.6564 109.859 55.4914C109.505 55.3187 109.231 55.0127 109.026 54.6837C108.644 54.0673 108.679 53.2422 108.965 52.5996C109.281 51.8892 109.887 51.3307 110.595 51.0192C111.222 50.7427 112.057 50.7974 112.515 51.3558C112.805 51.7078 112.876 52.1362 112.785 52.5723C112.922 52.7712 113.022 52.9832 113.107 53.2181C113.219 53.5263 113.211 53.9111 113.141 54.2258C113.066 54.5657 112.9 54.8958 112.663 55.1504C112.285 55.5559 111.708 55.8193 111.144 55.8193C111.065 55.8204 110.984 55.8149 110.904 55.804Z" fill="#242424"/>
<path d="M53.77 37.3358C52.9962 37.1096 52.2956 36.7467 51.6541 36.2582C50.9426 35.7161 50.347 35.044 49.7776 34.3587C49.1557 33.6101 48.6136 32.7947 48.0573 31.9969C47.6682 31.4406 47.3054 30.8636 46.9393 30.292C46.5917 29.7488 46.2453 29.2045 45.9119 28.6515C45.1983 27.4657 44.4922 26.2744 43.7961 25.0766C43.3294 24.2733 42.854 23.4678 42.4212 22.6427C41.9622 22.6449 41.5031 22.5782 41.0692 22.4328C40.7906 22.3399 40.502 22.1542 40.3151 21.9268C40.2135 21.8033 40.1184 21.6569 40.0528 21.5115C39.9643 21.3148 39.9479 21.1126 39.9326 20.9006C39.9118 20.5869 40.0266 20.2416 40.1687 19.9672C40.325 19.6689 40.5829 19.4394 40.8681 19.2689C41.0201 19.1782 41.1906 19.1093 41.3687 19.0557C41.4583 18.9607 41.5534 18.8711 41.6529 18.7891C41.9917 18.5082 42.3917 18.2612 42.7764 18.047C43.054 17.8929 43.3436 17.777 43.6518 17.7049C43.9829 17.6284 44.289 17.6175 44.6267 17.6393C45.0048 17.6645 45.3699 17.8371 45.6977 18.0098C46.1021 18.2229 46.4278 18.5552 46.642 18.953C46.8005 19.2492 46.8879 19.6011 46.8562 19.9399C46.8387 20.1301 46.818 20.2984 46.7644 20.4809C46.7262 20.6143 46.6704 20.7356 46.6136 20.8623C46.4912 21.1388 46.254 21.3585 46.0387 21.5607C45.7972 21.788 45.4617 21.9356 45.16 22.0612C45.1163 22.0798 45.0737 22.0962 45.03 22.1137C45.8474 23.5946 46.713 25.0526 47.5852 26.5007C48.159 27.4537 48.7459 28.3969 49.3459 29.3346C49.8759 30.1619 50.4366 30.9674 50.9994 31.7729C51.4475 32.3783 51.912 32.9652 52.4169 33.5237C52.6508 33.7641 52.8924 33.9893 53.1492 34.2035C53.2858 34.3062 53.4246 34.4046 53.5667 34.4986C53.6946 34.5718 53.8246 34.6407 53.9579 34.7062C54.1448 34.7838 54.3328 34.8516 54.5262 34.9117C54.6334 34.939 54.7405 34.962 54.8487 34.9827C55.0159 35.0046 55.1809 35.0188 55.3492 35.0287C55.5208 35.0276 55.6902 35.0221 55.8607 35.0101C56.1175 34.9784 56.3722 34.9368 56.6268 34.8855C57.0421 34.7838 57.4487 34.6625 57.8531 34.5237C58.4105 34.3041 58.9591 34.0789 59.5067 33.8319C60.0006 33.609 60.4815 33.3587 60.9635 33.1117C62.5996 32.1729 64.1996 31.1718 65.7931 30.1576C66.5942 29.6483 67.3909 29.1302 68.1975 28.6275C68.6259 28.3608 69.0565 28.0985 69.4948 27.846C69.9352 27.5925 70.4139 27.3028 70.9341 27.2712C71.6259 27.2274 72.2259 27.8154 72.2511 28.4952C72.2729 29.092 71.8762 29.5925 71.3341 29.7565C71.3287 29.7586 71.3232 29.7608 71.3177 29.7641C71.3221 29.763 71.3254 29.7619 71.3287 29.7619C71.3243 29.763 71.321 29.7641 71.3166 29.7652C71.2456 29.7958 71.1768 29.8275 71.1057 29.8614C69.9418 30.5018 68.8314 31.2352 67.7133 31.9521C66.6215 32.6527 65.5264 33.351 64.4182 34.0232C63.7865 34.4079 63.1537 34.786 62.5133 35.1543C61.9668 35.468 61.4029 35.7686 60.8291 36.0276C59.1438 36.7861 57.3132 37.573 55.4519 37.573C54.8935 37.5708 54.3317 37.4997 53.77 37.3358Z" fill="#242424"/>
<path d="M33.9783 76.9517C33.6363 76.8763 33.3007 76.7812 32.9696 76.6708C32.6122 76.5517 32.2723 76.3921 31.9313 76.2314C31.1914 75.885 30.5444 75.3768 30.0439 74.732C29.8308 74.4588 29.6428 74.1385 29.5368 73.8074C29.4155 73.4314 29.3695 73.0565 29.3553 72.6642C29.3302 72.0511 29.4941 71.4696 29.6843 70.8937C29.9007 70.2401 30.2176 69.6587 30.6723 69.1406C31.1182 68.6324 31.751 68.3253 32.3914 68.1526C33.1368 67.9516 33.927 68.016 34.6767 68.1592C35.3183 68.2816 35.9653 68.4139 36.5762 68.6532C37.2309 68.909 37.8822 69.1909 38.4811 69.5625C38.7369 69.7221 38.9893 69.8794 39.2331 70.0543C39.4986 69.0423 39.7664 68.0303 40.0987 67.039C40.5315 65.7472 41.0298 64.4848 41.6091 63.2499C41.938 62.5504 42.2779 61.8619 42.6276 61.1722C42.7457 60.9394 42.8736 60.7132 43.0003 60.4848C43.1992 60.1252 43.3872 59.7569 43.6036 59.4072C44.0594 58.6749 44.4998 57.9394 45.008 57.2421C45.5173 56.5437 46.0856 55.8869 46.6966 55.2749C47.3141 54.6541 47.9938 54.0825 48.7436 53.6257C50.1261 52.7841 51.8037 52.4967 53.4005 52.6093C54.2606 52.6694 55.1131 52.8945 55.9317 53.1535C56.5011 53.3328 57.041 53.5831 57.5765 53.8421C58.7973 54.4323 59.9514 55.1437 61.0924 55.8727C61.5984 56.1973 62.0858 56.5613 62.5722 56.9154C63.1525 57.3383 63.7318 57.7634 64.311 58.1886C64.8279 58.5678 65.3515 58.9361 65.8782 59.3023C66.3646 59.6411 66.8531 59.9842 67.3569 60.2968C67.3985 60.3187 67.4389 60.3438 67.4783 60.3711C67.5646 60.4236 67.6509 60.4761 67.7362 60.5285C67.6881 60.499 67.6411 60.4695 67.5919 60.44C67.7537 60.5383 67.9318 60.629 68.0881 60.7416C68.3788 60.9121 68.6684 61.0859 68.9668 61.2422C69.4641 61.4006 69.84 61.8761 69.8597 62.4116C69.8859 63.1143 69.3264 63.6881 68.6356 63.7285C68.3001 63.7482 67.9821 63.6083 67.6957 63.4477C67.3875 63.2739 67.0815 63.0979 66.7788 62.9154C66.7755 62.9143 66.7733 62.9122 66.7711 62.9111C66.7886 62.9209 66.805 62.9318 66.8225 62.9427C66.805 62.9318 66.7864 62.9209 66.769 62.91C66.7252 62.887 66.6826 62.8608 66.6433 62.8324C66.5547 62.7777 66.4651 62.7242 66.3766 62.6695C66.4247 62.699 66.4728 62.7285 66.5209 62.758C66.4028 62.6859 66.2837 62.6127 66.1657 62.5416C65.9689 62.4422 65.7831 62.3001 65.6039 62.1821C65.0793 61.8389 64.5635 61.4848 64.0498 61.1263C63.158 60.5067 62.2891 59.8542 61.4115 59.2148C60.9219 58.8574 60.429 58.5077 59.9328 58.1613C59.5153 57.8684 59.0803 57.6006 58.6508 57.3263C58.2574 57.0978 57.865 56.8662 57.4639 56.6498C56.9721 56.3842 56.4781 56.1328 55.9754 55.8902C55.5721 55.7208 55.1633 55.5722 54.7448 55.4454C54.359 55.3427 53.9721 55.2563 53.5786 55.1907C53.3185 55.1569 53.0595 55.1339 52.7972 55.1219C52.5917 55.1219 52.3895 55.1295 52.1851 55.1437C51.9261 55.1765 51.6715 55.2213 51.4168 55.276C51.2103 55.3285 51.007 55.3875 50.8037 55.453C50.6037 55.5328 50.4092 55.6202 50.2168 55.7164C50.031 55.8224 49.8518 55.935 49.6747 56.0552C49.325 56.3197 48.9906 56.6028 48.6682 56.9022C48.2693 57.2946 47.8911 57.7044 47.5326 58.1339C47.1304 58.6378 46.7501 59.158 46.4091 59.7066C46.1949 60.052 45.9807 60.3974 45.7665 60.7427C45.5315 61.1679 45.2955 61.593 45.0594 62.0181C44.8321 62.428 44.6288 62.852 44.4146 63.2717C44.0277 64.0346 43.6867 64.8226 43.3402 65.6051C43.3632 65.5548 43.385 65.5034 43.408 65.4532C43.1654 66.0444 42.9162 66.6324 42.7151 67.2379C42.5031 67.8707 42.302 68.5068 42.1107 69.1472C41.9785 69.6215 41.8506 70.0969 41.7238 70.5734C41.6561 70.8292 41.5905 71.086 41.5249 71.3418C41.5227 71.3505 41.5205 71.3593 41.5183 71.368C41.7489 71.6992 41.8276 72.133 41.6746 72.5276C41.2254 73.6828 40.5631 74.8555 39.5588 75.6129C39.0309 76.0096 38.4669 76.3462 37.8735 76.6347C37.28 76.9233 36.6079 77.0533 35.9532 77.0992C35.7926 77.1102 35.6297 77.1167 35.468 77.1167C34.9663 77.1134 34.4625 77.0588 33.9783 76.9517ZM35.4363 74.5691C35.6002 74.5659 35.7631 74.5604 35.927 74.5495C36.0582 74.532 36.186 74.5112 36.315 74.4872C36.4308 74.4544 36.5456 74.4194 36.6593 74.3812C36.7839 74.3276 36.9052 74.2719 37.0276 74.2129C37.3205 74.0511 37.6046 73.8784 37.88 73.6882C37.9817 73.6117 38.08 73.533 38.1762 73.4511C38.2571 73.3702 38.3347 73.2883 38.4112 73.2052C38.5063 73.0828 38.5959 72.956 38.6812 72.8281C38.5511 72.7374 38.4265 72.6358 38.3041 72.5396C38.0801 72.3636 37.8527 72.1942 37.6232 72.027C37.4757 71.9199 37.3183 71.8248 37.162 71.7298C36.8188 71.5451 36.4778 71.3713 36.127 71.2062C35.8035 71.0806 35.4811 70.9658 35.151 70.8598C34.7488 70.7647 34.3488 70.6795 33.9434 70.6095C33.7783 70.5888 33.6155 70.5735 33.4494 70.5658C33.3838 70.568 33.3182 70.5713 33.2516 70.5734C33.1783 70.5822 33.1051 70.5942 33.033 70.6084C32.9499 70.6303 32.868 70.6554 32.7871 70.6849C32.7849 70.686 32.7816 70.6882 32.7794 70.6893C32.8024 70.6806 32.8242 70.6729 32.8461 70.6642C32.8024 70.6849 32.7587 70.7057 32.715 70.7265C32.6931 70.7396 32.6712 70.7538 32.6494 70.768C32.6188 70.7931 32.5882 70.8183 32.5565 70.8445C32.5237 70.8784 32.492 70.9133 32.4603 70.9494C32.4286 70.9909 32.398 71.0336 32.3685 71.0773C32.3117 71.1789 32.2592 71.2806 32.2089 71.3844C32.1204 71.6128 32.0439 71.8434 31.9674 72.0751C31.9466 72.1538 31.928 72.2336 31.9106 72.3134C31.9029 72.3691 31.8985 72.4248 31.8942 72.4817C31.8942 72.6041 31.8985 72.7254 31.9073 72.8478C31.9116 72.874 31.916 72.9003 31.9204 72.9265C31.9259 72.944 31.9313 72.9615 31.9368 72.9779C31.9477 73.0019 31.9587 73.027 31.9707 73.0522C31.9947 73.0926 32.0188 73.132 32.045 73.1713C32.0985 73.2423 32.1554 73.3101 32.2144 73.3768C32.269 73.4314 32.3248 73.485 32.3827 73.5363C32.4996 73.6248 32.6177 73.7068 32.7401 73.7844C32.9554 73.9025 33.174 74.0096 33.3958 74.1134C33.6035 74.1954 33.8111 74.2708 34.0232 74.3429C34.3062 74.4172 34.5882 74.4817 34.8756 74.532C35.0658 74.5484 35.2505 74.5604 35.4363 74.5691Z" fill="#242424"/>
<path d="M77.0521 80.3681C75.4619 79.7703 73.9712 78.8206 72.922 77.4686C72.1416 76.4631 71.6466 75.297 71.1701 74.1298C70.9198 73.5177 70.7209 72.8806 70.5198 72.2521C70.2881 71.5265 70.0695 70.7986 69.8553 70.0674C69.4859 68.8139 69.1668 67.5384 68.8957 66.2597C68.7296 65.4794 68.57 64.698 68.4159 63.9154C68.346 63.557 68.2728 63.1985 68.1984 62.84C68.0979 62.3482 67.9001 61.7766 68.0924 61.287C68.2968 60.7679 68.829 60.3842 69.4028 60.4553C69.4258 60.4585 69.4487 60.4618 69.4706 60.4651C69.4837 60.4673 69.4979 60.4695 69.511 60.4717C69.5307 60.4749 69.5493 60.4782 69.5678 60.4804C69.5613 60.4804 69.5547 60.4793 69.5482 60.4782C70.1034 60.5973 70.5395 61.0848 70.5613 61.6749C70.5613 61.6837 70.5624 61.6925 70.5624 61.7012C70.687 62.4389 70.8586 63.1722 71.005 63.9067C71.1548 64.6619 71.3143 65.4149 71.4728 66.1679C71.7406 67.2892 72.016 68.4084 72.3427 69.5144C72.699 70.7177 73.0794 71.909 73.4925 73.0948C73.7406 73.7013 73.9854 74.3003 74.2849 74.8828C74.451 75.1834 74.6247 75.4762 74.8182 75.7593C74.945 75.9298 75.0761 76.0937 75.2171 76.2544C75.4084 76.4489 75.6084 76.6303 75.816 76.8052C76.0423 76.979 76.275 77.1418 76.5166 77.2959C76.8554 77.4926 77.2018 77.6686 77.5592 77.8293C77.8434 77.9473 78.1286 78.0566 78.4204 78.1528C78.5669 78.1899 78.7133 78.2227 78.862 78.2511C79.0346 78.273 79.2041 78.2883 79.3778 78.2992C79.639 78.2992 79.898 78.2883 80.1593 78.2686C80.5571 78.2205 80.9494 78.1528 81.3396 78.0686C81.8522 77.944 82.3549 77.7921 82.8522 77.6151C83.3451 77.426 83.826 77.215 84.3014 76.9844C84.6369 76.8041 84.9724 76.6238 85.3069 76.4424C85.6697 76.2456 86.0151 76.0052 86.367 75.7888C86.72 75.5702 87.0566 75.321 87.3987 75.0872C87.6949 74.885 87.9845 74.6719 88.2774 74.4631C90.4523 72.8839 92.6315 71.3101 94.7802 69.6958C95.272 69.3264 95.7638 68.9581 96.2556 68.5887C96.4983 68.4073 96.7398 68.2248 96.9824 68.0433C97.3136 67.7952 97.6469 67.5067 98.024 67.3308C98.2764 67.2127 98.5475 67.1384 98.8174 67.1231C98.9125 67.0641 99.0152 67.016 99.1234 66.9843C99.4513 66.8849 99.7704 66.9351 100.076 67.0739C101.393 67.6685 102.678 68.4641 103.623 69.568C104.069 70.0882 104.411 70.7308 104.625 71.38C104.851 72.0653 104.967 72.756 104.899 73.4762C104.848 74.0248 104.658 74.5549 104.402 75.038C104.132 75.5462 103.701 76.0304 103.177 76.2817C102.945 76.3932 102.714 76.4631 102.461 76.497C102.201 76.5309 101.95 76.5003 101.694 76.45C101.084 76.3287 100.587 75.8752 100.199 75.4194C99.9879 75.1735 99.8174 74.885 99.6688 74.5986C99.5486 74.3713 99.4327 74.1418 99.342 73.9003C99.2218 73.5811 99.1027 73.2642 99.001 72.9396C98.8196 72.356 98.6863 71.7625 98.554 71.1669C98.4819 70.8401 98.4229 70.5101 98.3617 70.1811C97.6032 70.7461 96.8491 71.3199 96.0928 71.8871C95.0327 72.6838 93.9638 73.4664 92.8917 74.2456C91.8009 75.0391 90.7168 75.8402 89.6184 76.6227C88.4741 77.4369 87.3277 78.2358 86.0905 78.9025C85.6588 79.1364 85.2282 79.3637 84.7823 79.5681C83.9484 79.9506 83.0729 80.2501 82.1844 80.4774C81.344 80.6916 80.4871 80.8184 79.6215 80.8413C79.5713 80.8424 79.5221 80.8435 79.4718 80.8435C78.6357 80.8468 77.8303 80.6599 77.0521 80.3681ZM102.169 73.8183C102.195 73.7724 102.219 73.7254 102.24 73.6784C102.269 73.6074 102.295 73.5352 102.319 73.462C102.332 73.4117 102.343 73.3614 102.353 73.3112C102.365 73.215 102.374 73.121 102.38 73.0237C102.378 72.9822 102.377 72.9396 102.375 72.897C102.357 72.7647 102.335 72.6357 102.308 72.5046C102.279 72.3931 102.246 72.2838 102.209 72.1745C102.145 72.0139 102.076 71.8576 102.001 71.7024C101.923 71.568 101.842 71.4379 101.753 71.309C101.685 71.2193 101.613 71.1319 101.539 71.0467C101.386 70.8915 101.228 70.7461 101.062 70.604C101.05 70.5953 101.038 70.5865 101.026 70.5778C101.074 70.8139 101.123 71.051 101.176 71.2871C101.283 71.6959 101.397 72.0981 101.522 72.5024C101.648 72.8325 101.777 73.1538 101.937 73.4696C101.99 73.5636 102.048 73.6565 102.109 73.7462C102.129 73.7691 102.149 73.7942 102.169 73.8183Z" fill="#242424"/>
<path d="M87.3637 130.913C87.2894 130.566 87.2162 130.211 87.1047 129.874C86.9845 129.507 86.8501 129.15 86.7047 128.791C86.4501 128.169 86.1025 127.581 85.7593 127.004C85.0763 125.854 84.1659 124.829 83.156 123.958C82.0784 123.028 80.8117 122.36 79.474 121.892C78.8499 121.674 78.1997 121.529 77.5516 121.411C76.8914 121.29 76.2193 121.227 75.5472 121.267C74.8892 121.307 74.2269 121.401 73.5952 121.597C73.2706 121.698 72.9504 121.81 72.6324 121.93C72.358 121.959 72.0837 121.999 71.816 122.058C71.3351 122.164 70.8608 122.285 70.405 122.477C69.922 122.679 69.4706 122.927 69.0378 123.221C68.1219 123.845 67.3274 124.678 66.6902 125.581C66.0683 126.461 65.5197 127.411 65.1765 128.437C64.4355 130.655 64.3732 133.134 65.0935 135.367C65.4432 136.45 65.8585 137.538 66.4815 138.496C67.0421 139.357 67.711 140.161 68.5066 140.817C69.2116 141.4 69.9657 141.923 70.7974 142.31C71.5395 142.654 72.3056 142.946 73.1034 143.132C74.0444 143.353 74.9974 143.449 75.9636 143.474C76.2171 143.48 76.4729 143.485 76.7297 143.485C77.3767 143.485 78.0281 143.455 78.6598 143.345C79.8729 143.132 81.0358 142.694 82.1407 142.156C83.6926 141.402 85.1101 140.268 86.0489 138.803C86.4927 138.11 86.8752 137.37 87.1145 136.578C87.2938 135.989 87.4238 135.397 87.5091 134.787C87.602 134.135 87.6894 133.477 87.6457 132.816C87.6063 132.171 87.4992 131.544 87.3637 130.913ZM84.967 134.637C84.9101 134.963 84.8435 135.285 84.7571 135.604C84.6719 135.877 84.5757 136.143 84.4686 136.408C84.3396 136.689 84.1986 136.96 84.0424 137.227C83.8894 137.462 83.7276 137.688 83.5549 137.909C83.3615 138.136 83.1593 138.353 82.9484 138.563C82.6817 138.807 82.4074 139.035 82.1167 139.249C81.8959 139.396 81.6729 139.535 81.4412 139.665C80.8445 139.967 80.2281 140.236 79.603 140.475C79.3352 140.57 79.0663 140.654 78.7909 140.727C78.4805 140.795 78.1701 140.848 77.8543 140.887C77.2281 140.936 76.5996 140.947 75.9723 140.934C75.4543 140.911 74.9395 140.877 74.4258 140.807C74.0521 140.742 73.6848 140.66 73.3187 140.56C72.9165 140.437 72.5231 140.294 72.1351 140.129C71.7952 139.97 71.4651 139.796 71.1416 139.606C70.8673 139.429 70.6028 139.242 70.3438 139.042C70.052 138.797 69.7733 138.541 69.5066 138.268C69.2728 138.012 69.0553 137.746 68.8498 137.467C68.6738 137.21 68.5121 136.948 68.358 136.678C68.1208 136.218 67.923 135.744 67.7394 135.26C67.5919 134.843 67.4585 134.424 67.3503 133.995C67.2662 133.601 67.2006 133.205 67.1547 132.805C67.1339 132.522 67.1241 132.24 67.1263 131.956C67.146 131.496 67.1886 131.04 67.252 130.583C67.3066 130.265 67.3744 129.952 67.4574 129.641C67.5656 129.296 67.6913 128.959 67.8334 128.627C67.982 128.315 68.1438 128.015 68.3187 127.719C68.5569 127.343 68.8094 126.98 69.0848 126.63C69.3045 126.371 69.5329 126.124 69.7733 125.885C69.9788 125.698 70.1919 125.523 70.4149 125.357C70.5974 125.233 70.7832 125.117 70.9755 125.009C71.1602 124.92 71.346 124.838 71.5362 124.762C71.6149 124.736 71.6947 124.711 71.7744 124.687C72.0673 124.783 72.3963 124.776 72.6969 124.647C72.8684 124.574 73.04 124.502 73.2127 124.432C73.2313 124.431 73.2499 124.43 73.2684 124.429C73.5559 124.411 73.8204 124.302 74.0291 124.13C74.2236 124.067 74.4193 124.008 74.6182 123.953C74.8488 123.906 75.0794 123.867 75.3133 123.837C75.5548 123.816 75.7942 123.802 76.0357 123.796C76.3505 123.812 76.6597 123.845 76.9712 123.89C77.4073 123.97 77.839 124.067 78.2696 124.179C78.627 124.291 78.9767 124.416 79.3264 124.553C79.6784 124.714 80.0194 124.887 80.3593 125.073C80.721 125.303 81.0675 125.546 81.4084 125.807C81.7505 126.104 82.074 126.412 82.3888 126.737C82.7035 127.101 82.9986 127.473 83.2817 127.86C83.5702 128.302 83.838 128.752 84.0926 129.215C84.2522 129.548 84.4019 129.882 84.544 130.225C84.6522 130.557 84.7462 130.887 84.8325 131.225C84.9287 131.67 85.0216 132.115 85.0806 132.569C85.1014 132.807 85.1123 133.045 85.1134 133.285C85.0927 133.738 85.0315 134.186 84.967 134.637Z" fill="#242424"/>
<path d="M121.421 123.267C121.176 123.212 120.912 123.228 120.661 123.232C120.101 123.243 119.539 123.271 118.979 123.299C116.349 123.428 113.719 123.577 111.089 123.699C109.695 123.762 108.301 123.822 106.907 123.881C106.645 123.892 106.381 123.905 106.119 123.918C106.055 123.759 105.988 123.599 105.916 123.445C105.745 123.083 105.574 122.722 105.403 122.362C104.819 121.123 104.122 119.924 103.336 118.801C102.917 118.206 102.499 117.602 102.037 117.039C101.803 116.751 101.567 116.466 101.332 116.178C101.122 115.923 100.876 115.689 100.65 115.447C100.262 115.033 99.8503 114.64 99.4273 114.257C99.6601 113.701 99.8918 113.143 100.126 112.587C100.823 110.935 101.544 109.292 102.232 107.636C102.51 106.964 102.8 106.293 103.047 105.609C103.211 105.155 103.36 104.701 103.458 104.228C103.533 103.868 103.521 103.508 103.472 103.147C103.432 102.854 103.271 102.513 103.079 102.29C102.883 102.063 102.664 101.86 102.42 101.686C101.87 101.294 101.286 100.952 100.707 100.604C100.129 100.259 99.5475 99.9191 98.9661 99.5792C97.8305 98.9148 96.6885 98.2525 95.5147 97.659C94.2491 97.0197 92.9704 96.4196 91.6676 95.8623C91.0578 95.601 90.4447 95.3464 89.8326 95.0939C89.4818 94.9486 89.131 94.8054 88.7812 94.6644C88.2741 94.46 87.6982 94.2589 87.1484 94.4251C86.0304 94.7617 85.767 95.9847 85.4828 96.9705C85.3036 97.5902 85.1276 98.2098 84.9561 98.8317C84.3812 100.915 83.8435 103.008 83.2741 105.092C82.6937 104.94 82.1112 104.794 81.5232 104.669C80.838 104.522 80.1418 104.423 79.4489 104.325C78.3997 104.177 77.3439 104.068 76.2882 103.968C76.0936 103.858 75.8762 103.808 75.6445 103.797C75.6641 103.797 75.6827 103.798 75.7035 103.798C75.0641 103.775 74.4259 103.73 73.7854 103.725C73.098 103.718 72.4193 103.728 71.7329 103.751C71.0444 103.774 70.3624 103.841 69.6761 103.901C69.0728 103.953 68.4804 104.038 67.8826 104.127C67.2564 104.22 66.6367 104.313 66.017 104.442C65.0771 104.636 64.1328 104.818 63.2038 105.06C63.1394 105.078 63.0749 105.097 63.0104 105.115C62.4006 104.002 61.806 102.882 61.1907 101.773C60.5218 100.567 59.8453 99.3661 59.1677 98.1661C58.841 97.588 58.5153 97.0098 58.183 96.4349C57.8683 95.8896 57.5612 95.3322 57.1852 94.8251C56.6934 94.1595 55.842 93.7038 55.0048 93.7344C54.242 93.7628 53.4988 94.142 52.8616 94.53C52.6037 94.6874 52.3403 94.8371 52.0879 95.0043C50.9512 95.753 49.8419 96.5366 48.7381 97.33C47.6157 98.1377 46.4823 98.9344 45.3938 99.7869C44.3173 100.63 43.2571 101.494 42.2036 102.366C41.2101 103.189 40.2014 103.997 39.2287 104.843C39.0888 104.964 38.9554 105.091 38.8232 105.22C38.692 105.349 38.609 105.529 38.5215 105.688C38.4418 105.83 38.397 105.998 38.3838 106.159C38.3675 106.329 38.3609 106.529 38.3981 106.697C38.491 107.11 38.6068 107.507 38.7871 107.891C38.9609 108.259 39.1522 108.62 39.362 108.97C39.6986 109.526 40.0658 110.061 40.4538 110.584C40.6746 110.882 40.8866 111.187 41.1161 111.479C41.9926 112.585 42.879 113.682 43.7795 114.769C44.3708 115.483 44.9741 116.188 45.5828 116.889C45.291 117.312 45.0069 117.739 44.7391 118.175C44.2309 119.002 43.7358 119.843 43.314 120.718C42.9129 121.548 42.5511 122.397 42.2396 123.265C41.6003 125.05 41.0921 126.875 40.8188 128.753C40.5784 130.41 40.5041 132.085 40.562 133.757C39.6757 133.806 38.7904 133.861 37.9051 133.931C36.7303 134.023 35.5598 134.175 34.3903 134.328C33.833 134.402 33.2767 134.49 32.7204 134.578C31.9269 134.703 31.0537 134.79 30.4635 135.399C29.9171 135.963 29.622 136.724 29.5881 137.508C29.5509 138.338 29.6351 139.156 29.7848 139.972C29.9783 141.027 30.257 142.063 30.5313 143.099C30.8734 144.393 31.2788 145.676 31.6985 146.948C32.5269 149.464 33.3739 151.976 34.1718 154.502C34.28 154.846 34.3838 155.19 34.4964 155.532C34.5914 155.823 34.7324 156.097 34.9423 156.322C35.1761 156.576 35.4548 156.732 35.7772 156.85C36.0155 156.937 36.2723 156.964 36.5292 156.964C36.6909 156.964 36.8516 156.953 37.0079 156.94C37.4352 156.906 37.8658 156.811 38.2767 156.693C38.9139 156.512 39.5369 156.294 40.1511 156.046C41.421 155.533 42.6834 155 43.9511 154.478C45.0276 154.036 46.1031 153.591 47.1785 153.143C47.8321 153.989 48.5217 154.806 49.2572 155.581C49.9436 156.304 50.6529 157.008 51.4179 157.647C52.1458 158.254 52.8977 158.829 53.6791 159.365C54.9141 160.211 56.207 160.987 57.5458 161.661C57.1196 162.716 56.7054 163.775 56.3152 164.845C56.0846 165.48 55.8682 166.121 55.6562 166.763C55.4518 167.381 55.2365 168 55.0606 168.628C54.8868 169.247 54.7371 169.881 54.6496 170.518C54.6037 170.847 54.5742 171.213 54.6802 171.534C54.736 171.704 54.7841 171.874 54.8792 172.027C54.9535 172.149 55.0332 172.26 55.125 172.368C55.5218 172.834 56.1327 173.09 56.6879 173.316C59.1983 174.343 61.8159 175.092 64.4935 175.531C65.876 175.758 67.2684 175.931 68.6662 176.036C69.3231 176.084 69.9777 176.129 70.6346 176.168C70.9712 176.188 71.3089 176.209 71.6455 176.224C71.8236 176.231 72.0007 176.239 72.1745 176.239C72.5297 176.239 72.8805 176.209 73.228 176.09C74.0029 175.823 74.4925 175.135 74.7778 174.398C75.0292 173.749 75.1833 173.06 75.2794 172.37C75.3833 171.629 75.4729 170.892 75.5537 170.147C75.6925 168.848 75.7647 167.54 75.8423 166.236C75.8762 165.652 75.9057 165.069 75.9341 164.484C76.4434 164.459 76.9516 164.429 77.4609 164.384C78.1472 164.324 78.8347 164.277 79.5177 164.187C80.2008 164.096 80.8937 164.033 81.5713 163.908C82.0478 163.821 82.5243 163.733 83.0008 163.645C83.2664 163.595 83.5331 163.553 83.7965 163.488C84.614 163.287 85.4435 163.111 86.249 162.864C87.037 162.623 87.8086 162.343 88.5659 162.029C88.6425 162.178 88.719 162.327 88.7966 162.475C89.7955 164.397 90.8425 166.294 91.8589 168.206C92.0534 168.577 92.2469 168.949 92.4403 169.32C92.5813 169.591 92.7223 169.915 92.9343 170.142C93.3037 170.539 93.7824 170.751 94.3081 170.751C94.4021 170.751 94.4983 170.744 94.5955 170.73C94.9988 170.673 95.3759 170.427 95.7201 170.22C95.9485 170.082 96.1813 169.944 96.4054 169.8C98.4229 168.508 100.393 167.142 102.376 165.797C103.477 165.05 104.58 164.31 105.683 163.568C106.225 163.203 106.767 162.841 107.31 162.478C107.58 162.299 107.853 162.119 108.122 161.936C108.548 161.647 109.004 161.345 109.248 160.875C109.6 160.195 109.549 159.428 109.262 158.73C108.952 157.976 108.494 157.296 107.983 156.664C107.521 156.094 107.021 155.553 106.517 155.02C105.627 154.081 104.727 153.155 103.839 152.215C103.529 151.886 103.219 151.556 102.909 151.227C102.884 151.201 102.859 151.174 102.835 151.148C102.831 151.143 102.826 151.137 102.821 151.132C102.818 151.129 102.815 151.126 102.813 151.123C102.745 151.051 102.678 150.978 102.609 150.906C103.298 150.026 103.927 149.103 104.561 148.184C104.749 147.913 104.904 147.614 105.073 147.332C105.233 147.065 105.415 146.803 105.556 146.525C105.824 145.996 106.089 145.465 106.356 144.936C106.518 144.616 106.638 144.269 106.776 143.94C106.879 143.695 106.998 143.449 107.088 143.197C107.343 142.474 107.61 141.756 107.82 141.017C108.406 141.069 108.991 141.122 109.577 141.181C111.027 141.326 112.474 141.485 113.918 141.688C115.234 141.873 116.542 142.109 117.866 142.239C118.221 142.274 118.581 142.307 118.938 142.309C119.008 142.309 119.078 142.31 119.149 142.31C119.586 142.31 120.035 142.289 120.417 142.054C120.976 141.709 121.164 141.044 121.263 140.434C121.464 139.191 121.538 137.923 121.628 136.667C121.726 135.316 121.811 133.966 121.886 132.614C121.959 131.292 122.008 129.969 122.105 128.65C122.154 127.996 122.196 127.342 122.268 126.692C122.307 126.334 122.346 125.975 122.392 125.619C122.435 125.284 122.508 124.935 122.495 124.596C122.469 123.964 122.054 123.408 121.421 123.267ZM119.725 126.526C119.655 127.161 119.605 127.801 119.567 128.439C119.493 129.755 119.422 131.069 119.35 132.385C119.277 133.71 119.193 135.034 119.097 136.358C119.016 137.493 118.942 138.636 118.79 139.763C118.114 139.721 117.44 139.655 116.77 139.556C115.456 139.359 114.142 139.131 112.823 138.979C111.351 138.809 109.878 138.657 108.401 138.52C108.38 138.517 108.36 138.516 108.339 138.514C107.493 138.436 106.646 138.359 105.799 138.286C105.792 138.339 105.785 138.392 105.777 138.445C105.666 139.128 105.519 139.802 105.331 140.469C105.22 140.837 105.094 141.196 104.965 141.56C104.872 141.819 104.793 142.089 104.686 142.343C104.484 142.828 104.28 143.314 104.077 143.798C103.949 144.052 103.822 144.307 103.693 144.559C103.561 144.821 103.445 145.102 103.293 145.355C103.016 145.814 102.743 146.274 102.468 146.734C101.8 147.701 101.149 148.683 100.408 149.596C100.411 149.593 100.414 149.59 100.416 149.586C100.408 149.599 100.398 149.611 100.388 149.623C100.374 149.64 100.361 149.655 100.348 149.673C100.343 149.677 100.339 149.684 100.334 149.688C100.299 149.725 100.268 149.765 100.237 149.806C100.145 149.91 100.061 150.023 99.9759 150.13C99.9388 150.17 99.9027 150.214 99.8699 150.26C99.8634 150.271 99.8557 150.28 99.8492 150.291C99.7934 150.354 99.741 150.419 99.6874 150.486C99.6557 150.524 99.6229 150.564 99.5923 150.602C99.5573 150.639 99.5257 150.679 99.4951 150.722C99.4929 150.726 99.4907 150.729 99.4896 150.732C99.4349 150.794 99.3836 150.861 99.3311 150.926C99.3016 150.96 99.2699 150.994 99.2393 151.028C99.2874 151.079 99.3377 151.131 99.3847 151.183C99.6666 151.483 99.9486 151.783 100.231 152.083C100.485 152.355 100.739 152.627 100.993 152.899C100.996 152.902 100.999 152.906 101.001 152.907C102.326 154.319 103.672 155.709 105.001 157.118C105.463 157.64 105.927 158.153 106.342 158.711C106.479 158.909 106.607 159.109 106.728 159.317C106.79 159.44 106.848 159.564 106.903 159.692C105.925 160.376 104.915 161.019 103.924 161.686C102.827 162.425 101.729 163.164 100.633 163.906C99.4841 164.684 98.3409 165.466 97.1879 166.242C96.3278 166.824 95.4644 167.401 94.5737 167.938C93.5999 166.098 92.6119 164.266 91.6337 162.43C91.3638 161.918 91.096 161.404 90.8294 160.89C90.5157 160.287 90.2053 159.684 89.8938 159.079C89.8261 158.948 89.7594 158.817 89.6927 158.686C89.6479 158.711 89.6031 158.735 89.5572 158.76C89.2381 158.926 88.9146 159.084 88.59 159.237C88.5332 159.264 88.4752 159.292 88.4173 159.318C88.0894 159.47 87.7594 159.614 87.426 159.752C87.2632 159.819 87.1003 159.886 86.9353 159.951C86.1594 160.237 85.3746 160.484 84.5703 160.681C84.0938 160.798 83.6162 160.916 83.1396 161.033C82.7495 161.105 82.3593 161.177 81.9691 161.248C81.6478 161.307 81.3254 161.382 81.0019 161.425C80.2686 161.522 79.5352 161.618 78.8008 161.716C78.121 161.776 77.4401 161.835 76.7592 161.894C76.4871 161.918 76.2149 161.932 75.9417 161.944C75.8204 161.949 75.6991 161.954 75.5778 161.958C75.3986 161.965 75.2182 161.971 75.039 161.98C74.521 162.004 74.0029 162.017 73.4849 162.025C73.4564 162.835 73.4215 163.642 73.3821 164.451C73.3526 165.063 73.322 165.675 73.287 166.286C73.2302 167.254 73.1625 168.221 73.0783 169.187C72.9941 170.165 72.8783 171.134 72.745 172.107C72.686 172.438 72.6193 172.765 72.5318 173.091C72.4783 173.262 72.4182 173.429 72.3504 173.596C72.3329 173.629 72.3165 173.664 72.3001 173.698C72.2368 173.702 72.1723 173.703 72.1078 173.702C69.9045 173.605 67.7066 173.431 65.5208 173.129C64.7055 172.994 63.8935 172.853 63.0858 172.676C62.3153 172.506 61.5557 172.303 60.7984 172.085C59.6563 171.717 58.5273 171.323 57.4158 170.871C57.3349 170.833 57.2551 170.794 57.1764 170.755C57.2682 170.259 57.3764 169.769 57.5087 169.283C57.9568 167.84 58.4289 166.4 58.9666 164.988C59.5164 163.536 60.0967 162.103 60.7044 160.675C60.7492 160.574 60.794 160.473 60.8388 160.371C60.5972 160.274 60.3579 160.174 60.1197 160.071C59.83 159.941 59.5426 159.806 59.2574 159.667C59.1284 159.605 59.0005 159.54 58.8716 159.475C58.0562 159.067 57.2573 158.63 56.4737 158.158C55.4267 157.511 54.4169 156.808 53.454 156.043C52.5895 155.333 51.7851 154.562 51.0135 153.753C50.4244 153.117 49.866 152.456 49.3293 151.777C49.2463 151.672 49.1621 151.568 49.0802 151.462C48.89 151.215 48.7031 150.967 48.5206 150.715C48.3588 150.487 48.1993 150.255 48.0441 150.023C46.9512 150.485 45.8572 150.942 44.7621 151.393C43.691 151.835 42.6211 152.274 41.5522 152.718C40.6342 153.098 39.7194 153.495 38.7904 153.848C38.3226 154.019 37.8494 154.175 37.3674 154.301C37.1773 154.343 36.9893 154.378 36.7969 154.406C36.468 153.389 36.1499 152.367 35.8177 151.349C35.4363 150.182 35.0472 149.016 34.6625 147.851C33.8603 145.418 33.0646 142.978 32.4767 140.483C32.3368 139.856 32.2165 139.226 32.1411 138.587C32.1226 138.332 32.1105 138.076 32.1083 137.819C32.1138 137.728 32.1215 137.638 32.1324 137.547C32.1455 137.476 32.1597 137.406 32.1772 137.336C32.1838 137.313 32.1925 137.291 32.2002 137.269C32.2056 137.26 32.2111 137.25 32.2165 137.24C33.8242 136.938 35.4516 136.739 37.0745 136.555C38.6713 136.405 40.2691 136.299 41.8713 136.221C42.3435 136.198 42.8178 136.179 43.2899 136.156C43.2615 135.92 43.2342 135.681 43.209 135.444C43.1817 135.144 43.1577 134.843 43.138 134.543C43.1336 134.479 43.1325 134.416 43.1282 134.353C43.1151 134.122 43.1019 133.89 43.0932 133.657C43.0724 133.089 43.067 132.521 43.0779 131.951C43.114 130.923 43.2047 129.901 43.3566 128.883C43.5151 127.922 43.7282 126.975 43.9938 126.039C44.3358 124.887 44.7358 123.752 45.208 122.647C45.643 121.674 46.1479 120.737 46.6943 119.823C46.9195 119.456 47.1544 119.096 47.3949 118.74C47.573 118.475 47.7567 118.211 47.9424 117.951C48.0091 117.858 48.0758 117.765 48.1435 117.672C48.3709 117.362 48.6015 117.055 48.8397 116.752C48.2692 116.106 47.702 115.458 47.1381 114.806C45.4364 112.835 43.7795 110.829 42.232 108.735C41.879 108.223 41.5445 107.705 41.2462 107.161C41.162 106.992 41.0844 106.824 41.0123 106.651C41.6549 106.103 42.3118 105.571 42.962 105.032C43.7435 104.384 44.5238 103.732 45.3129 103.092C46.1949 102.379 47.0867 101.682 47.9927 100.999C48.7851 100.402 49.5971 99.8317 50.4015 99.2524C51.7436 98.2983 53.0726 97.3071 54.5163 96.5093C54.6617 96.4382 54.8059 96.3737 54.9556 96.3136C54.9841 96.3049 55.0136 96.2961 55.0431 96.2874C55.0453 96.2874 55.0475 96.2863 55.0496 96.2863C55.0737 96.2983 55.0977 96.3114 55.1218 96.3235C55.1393 96.3453 55.1567 96.3683 55.1731 96.3912C55.4737 96.836 55.7404 97.306 56.0092 97.7716C56.3273 98.3224 56.6409 98.8765 56.9535 99.4317C57.5907 100.558 58.2267 101.686 58.8552 102.818C59.4191 103.832 59.9699 104.853 60.524 105.873C60.6169 106.045 60.7098 106.217 60.8027 106.388C61.1197 106.973 61.4454 107.553 61.7689 108.135C62.1514 108.009 62.5372 107.891 62.9241 107.778C62.97 107.765 63.0148 107.751 63.0607 107.738C63.4355 107.63 63.8115 107.528 64.1897 107.432C64.3088 107.401 64.4279 107.37 64.547 107.34C65.3798 107.167 66.2137 106.996 67.0443 106.821C67.4127 106.743 67.7952 106.708 68.1668 106.654C68.5657 106.594 68.9646 106.536 69.3624 106.476C70.1045 106.409 70.8477 106.325 71.5919 106.298C72.0258 106.283 72.463 106.25 72.8969 106.255C73.2608 106.259 73.6226 106.262 73.9865 106.266C74.286 106.279 74.5843 106.293 74.8838 106.306C75.0193 106.375 75.1701 106.42 75.3286 106.434C76.7614 106.564 78.1942 106.714 79.6194 106.915C80.2139 107.009 80.8096 107.107 81.3954 107.244C82.015 107.389 82.6314 107.548 83.2435 107.719C83.8304 107.891 84.4183 108.065 84.9987 108.258C85.12 107.871 85.2337 107.482 85.3451 107.093C85.4675 106.668 85.5867 106.241 85.7025 105.814C85.8894 105.136 86.0708 104.455 86.2511 103.774C86.802 101.687 87.3572 99.6 87.955 97.5257C87.9943 97.3912 88.0348 97.2568 88.0763 97.1224C88.5255 97.3005 88.9714 97.4918 89.4173 97.6765C90.0446 97.9377 90.6709 98.2033 91.296 98.471C92.0032 98.7869 92.7135 99.0984 93.4043 99.4481C94.2469 99.8732 95.0808 100.308 95.9059 100.765C97.3289 101.552 98.73 102.379 100.121 103.221C100.402 103.396 100.681 103.572 100.946 103.767C100.917 103.903 100.884 104.034 100.847 104.166C100.46 105.337 99.9585 106.47 99.4765 107.603C99.0426 108.627 98.6054 109.649 98.1683 110.672C97.9049 111.29 97.6469 111.909 97.3879 112.529C97.3628 112.589 97.3376 112.648 97.3125 112.708C96.9977 113.462 96.6841 114.218 96.3639 114.97C96.613 115.177 96.86 115.387 97.1016 115.603C97.4754 115.938 97.8426 116.279 98.2076 116.621C98.3715 116.775 98.5344 116.927 98.6972 117.083C98.8819 117.281 99.0677 117.48 99.2535 117.678C99.4393 117.877 99.6054 118.093 99.777 118.303C100.132 118.735 100.468 119.182 100.804 119.628C101.007 119.916 101.209 120.205 101.411 120.493C101.598 120.759 101.762 121.042 101.931 121.318C102.285 121.898 102.603 122.49 102.925 123.087C103.077 123.41 103.239 123.731 103.392 124.056C103.462 124.206 103.531 124.356 103.595 124.507C103.8 125 104.005 125.492 104.21 125.983C104.278 126.166 104.344 126.351 104.411 126.535C104.808 126.518 105.203 126.5 105.6 126.482C108.28 126.361 110.96 126.256 113.636 126.118C114.955 126.051 116.275 125.98 117.591 125.911C118.237 125.878 118.883 125.844 119.529 125.815C119.618 125.81 119.707 125.807 119.795 125.801C119.777 126.045 119.751 126.286 119.725 126.526Z" fill="#242424"/>
<path d="M19.8382 118.424C19.1967 118.19 18.8295 117.44 19.0786 116.795C19.4448 115.844 19.8437 114.904 20.2546 113.97C20.2317 114.021 20.2098 114.072 20.1868 114.122C20.2852 113.899 20.3836 113.675 20.4809 113.452C20.4743 113.468 20.4677 113.483 20.4612 113.497C21.3333 111.509 22.2492 109.54 23.1956 107.586C23.67 106.606 24.2263 105.668 24.7793 104.732C25.0514 104.27 25.3454 103.822 25.6339 103.369C25.823 103.074 26.0132 102.782 26.2099 102.493C26.5815 101.943 26.9727 101.366 27.4558 100.907C27.705 100.671 27.9902 100.515 28.3411 100.501C28.6755 100.488 29.0077 100.612 29.2525 100.84C29.7367 101.291 29.822 102.159 29.3181 102.637C29.1892 102.759 29.0744 102.893 28.9618 103.029C28.2831 103.902 27.7006 104.847 27.1083 105.779C26.729 106.417 26.3509 107.053 26.0044 107.71C25.5815 108.51 25.1815 109.317 24.788 110.132C24.0918 111.576 23.4437 113.044 22.7891 114.505C22.7596 114.574 22.729 114.643 22.6984 114.711C22.7213 114.661 22.7432 114.61 22.7661 114.56C22.6776 114.761 22.5902 114.962 22.5016 115.163C22.141 115.99 21.7923 116.822 21.4678 117.665C21.2721 118.173 20.7847 118.5 20.2644 118.5C20.1235 118.501 19.9792 118.475 19.8382 118.424Z" fill="#242424"/>
<path d="M24.8437 123.724C24.1847 123.485 23.8568 122.748 24.083 122.095C24.577 120.673 25.0918 119.258 25.6065 117.843C25.8721 117.116 26.1377 116.389 26.4055 115.661C26.5366 115.302 26.6721 114.945 26.8109 114.589C27.0208 114.05 27.2197 113.478 27.5716 113.014C27.9891 112.462 28.7618 112.295 29.3421 112.704C29.894 113.092 30.07 113.922 29.6525 114.475C29.6383 114.494 29.6241 114.512 29.611 114.531C29.5388 114.661 29.4733 114.794 29.411 114.93C29.117 115.622 28.8678 116.335 28.6088 117.041C28.3716 117.687 28.1366 118.332 27.9006 118.979C27.4164 120.305 26.9366 121.632 26.4743 122.966C26.2962 123.48 25.7891 123.8 25.2677 123.8C25.1257 123.799 24.9825 123.775 24.8437 123.724Z" fill="#242424"/>
<path d="M126.563 116.673C125.877 115.068 125.157 113.478 124.439 111.886C123.727 110.307 123.019 108.727 122.25 107.175C122.086 106.884 121.922 106.597 121.735 106.321C121.738 106.326 121.741 106.33 121.743 106.334C121.378 105.785 121.433 105.048 121.966 104.61C122.483 104.186 123.342 104.233 123.757 104.788C124.023 105.146 124.236 105.53 124.458 105.917C124.592 106.152 124.703 106.401 124.822 106.643C124.925 106.851 125.033 107.059 125.132 107.27C125.579 108.238 126.02 109.209 126.459 110.18C127.279 111.992 128.102 113.802 128.882 115.631C129.155 116.268 128.886 117.024 128.244 117.313C128.081 117.386 127.908 117.42 127.735 117.42C127.246 117.419 126.764 117.143 126.563 116.673Z" fill="#242424"/>
<path d="M132.544 114.183C132.231 114.02 132.028 113.749 131.913 113.422C131.282 111.644 130.622 109.878 129.965 108.109C129.669 107.331 129.38 106.552 129.056 105.785C128.787 105.149 129.052 104.392 129.694 104.105C130.315 103.826 131.105 104.105 131.375 104.743C131.94 106.08 132.428 107.45 132.933 108.811C133.41 110.101 133.887 111.391 134.347 112.688C134.579 113.34 134.136 114.08 133.497 114.272C133.378 114.308 133.254 114.326 133.132 114.326C132.927 114.326 132.725 114.278 132.544 114.183Z" fill="#242424"/>
</svg>
