<svg width="12" height="12" viewBox="0 0 12 12" fill="none" xmlns="http://www.w3.org/2000/svg">
<path d="M0 6.02344L1.26562 4.75L3.35938 6.83594C3.59375 7.07031 3.83073 7.3151 4.07031 7.57031C4.3099 7.83073 4.54688 8.09115 4.78125 8.35156C4.77083 8.11719 4.76042 7.8776 4.75 7.63281C4.74479 7.39323 4.74219 7.15885 4.74219 6.92969V0L6.58594 0V6.92969C6.58594 7.15885 6.58073 7.39323 6.57031 7.63281C6.5651 7.8724 6.55729 8.10938 6.54688 8.34375C6.78125 8.08333 7.01563 7.82552 7.25 7.57031C7.48958 7.3151 7.72656 7.07031 7.96094 6.83594L10.0547 4.74219L11.3281 6.02344L5.66406 11.6875L0 6.02344Z" fill="white"/>
</svg>
