<svg width="24" height="24" viewBox="0 0 24 24" fill="none" xmlns="http://www.w3.org/2000/svg">
<path d="M22.56 12.25C22.56 11.47 22.49 10.72 22.36 10H12.5V14.26H18.02C17.74 15.63 16.92 16.78 15.73 17.56V20.34H19.28C21.36 18.42 22.56 15.6 22.56 12.25Z" fill="#4285F4"/>
<path d="M12.5 23C15.5 23 18.04 21.92 19.28 20.34L15.73 17.56C15.04 18.02 14.14 18.29 12.5 18.29C9.59 18.29 7.14 16.33 6.31 13.75H2.7V16.57C3.96 19.07 6.66 21 12.5 21Z" fill="#34A853"/>
<path d="M6.31 13.75C6.09 13.09 5.96 12.39 5.96 11.67C5.96 10.95 6.09 10.25 6.31 9.59V6.77H2.7C1.96 8.25 1.5 9.87 1.5 11.67C1.5 13.47 1.96 15.09 2.7 16.57L6.31 13.75Z" fill="#FBBC05"/>
<path d="M12.5 5.04C14.27 5.04 15.84 5.68 17.06 6.81L20.32 3.55C18.03 1.39 15.49 0.33 12.5 0.33C6.66 0.33 3.96 2.26 2.7 4.77L6.31 7.59C7.14 5.01 9.59 5.04 12.5 5.04Z" fill="#EA4335"/>
</svg>
